<mxfile host="app.diagrams.net" agent="Mozilla/5.0 (X11; Ubuntu; Linux x86_64; rv:133.0) Gecko/20100101 Firefox/133.0" version="25.0.3">
  <diagram name="Page-1" id="qdd38qgmiHeHfxOcRqGU">
    <mxGraphModel dx="2359" dy="819" grid="1" gridSize="10" guides="1" tooltips="1" connect="1" arrows="1" fold="1" page="1" pageScale="1" pageWidth="850" pageHeight="1100" math="0" shadow="0">
      <root>
        <mxCell id="0" />
        <mxCell id="1" parent="0" />
        <mxCell id="HyvRcSLAMewFetW_w3H8-1" value="" style="shape=image;verticalLabelPosition=bottom;labelBackgroundColor=default;verticalAlign=top;aspect=fixed;imageAspect=0;image=data:image/png,iVBORw0KGgoAAAANSUhEUgAACSsAAAOfCAYAAAAqowS7AAAABHNCSVQICAgIfAhkiAAAIABJREFUeF7s3Qfc7ETd9vGD9N6Rzjl0pCMoIl2KSrWADQUVEQsKioqU12NXRMVCU1QsqCiIBVSUcig+dBFBHqQeepMOcujvdcnkMYRkN3tvNptMfvP5/M/uJpPJzDd73/eczezMTJNICCDQVIFFVLG1FMsr5lf8WHF3qrLn6fmGTa089UKgIQIrqh7TG1IXqoEAAgggMLjAgjpkHcUKCveHfqa4PVXMGXq+2eDFcgQCnRJYQ629ulMtprEIIIBAXAILqDlrK1ZSuD/0S8XNqSaequfbxtVkWoNA5QLrq8S/VV4qBSKAAAII1CUwr060rsL9IfeNfq24PnXyE/V857oqw3kQaKnAxqr3BS2tO9WOVGCWSNtFsxBoq8ASqvjuijUViyruUtyo8E25JwsadYe2P12wj80IdFXAPz+zd7XxtBsBBBBoucBiqv/bFR6ktJTCfZ0bFO4PPVHQtju1/amCfWxGoKsC9Ie6euVpNwIIxCCwkBrxDoVvyk1R+POhaxS3Kh4vaKDzFH12VHAImxGIXsBfBp0j+lbSQAQQQCBOAQ/Sdn/opYpVFP7sx/0hD9r+d0GT/YX/os+OCg5hMwLRCyysFs4ZfStpIAIIIIDAhAV8I+4whTtZByleUqIkz6zkm3LLlMhLFgS6JjAt/HxM7lrDaS8CCCDQYgEPUjpUcZviYIUHb/dLnlnJ/SF/s46EAALPFzhNL/3zsSowCCCAAAKtEfCskl9SeODRIQrPqNQveWYl/74v03fqVxb7EYhN4Dfh58NfhCAhgAACCLRDwLMofVHxL4X7Qx683S95ZiX3hzbol5H9CHRQ4ITw88FqPR28+E1vMjMrNf0KUb8uCLxfjdxJcbRi/y40mDYigAACCCCAAAIZgT31elfFdxQfRwcBBBBAAAEEEOiggGfafpvie4oDOth+mowAAggggAACCLxVBO9U/FDh2fFICCCAAAIRCzBYKeKLS9NaIXCEaunR3tu2orZUEgEEEEAAAQQQqF7gGypyVsU21RdNiQgggAACCCCAQCsEvqJaelYl+kOtuFxUEgEEEEAAAQRGIODZlJZUbD2CsikSAQQQQKCBAi9qYJ2oEgJdEfiAGnql4sNdaTDtRAABBBBAAAEEMgLv1uvpCs80SUIAAQQQQAABBLoosJsa/YDCM02SEEAAAQQQQACBLgq8UY1+RuGZJkkIIIAAAh0RYGaljlxomtk4gc+pRjMpDmpczagQAggggAACCCBQj8DBOo1nEPhoPafjLAgggAACCCCAQOME9leNJis+2LiaUSEEEEAAAQQQQKAeAfeD1lLsVc/pOAsCCCCAQFMEGKzUlCtBPboksJEau7Zihy41mrYigAACCCCAAAIpgZfq+aYKljrhbYEAAggggAACXRVYXQ33Z0ObdRWAdiOAAAIIIIBA5wVWkIBnmdyw8xIAIIAAAh0UYBm4Dl50mjx2Ac8ecODYa0EFEEAAAQQQQACB8Ql8TKdmhsnx+XNmBBBAAAEEEBi/wCdUBfpD478O1AABBBBAAAEExifge2XcLxufP2dGAAEExirAYKWx8nPyDgp4VqVFFFd0sO00GQEEEEAAAQQQsMB6ismKi+FAAAEEEEAAAQQ6KuBZlbzcyXkdbT/NRgABBBBAAAEEPKvSKxVnQoEAAggg0E0BBit187rT6vEJbK9THzW+03NmBBBAAAEEEEBg7AI7qQb0h8Z+GagAAggggAACCIxRYGed+9tjPD+nRgABBBBAAAEExi3welWA/tC4rwLnRwABBMYowGClMeJz6k4KvE6tvqSTLafRCCCAAAIIIIDAcwI76uFSMBBAAAEEEEAAgQ4L7KC2X9bh9tN0BBBAAAEEEEBgOxHQH+J9gAACCHRYgMFKHb74NL12gYV1xtkV19V+Zk6IAAIIIIAAAgg0Q2BuVWMxxZXNqA61QAABBBBAAAEEahfw57ErKRi8XTs9J0QAAQQQQACBBgmsobpc0KD6UBUEEEAAgZoFGKxUMzin67TAFLX+rk4L0HgEEEAAAQQQ6LrA8gKgP9T1dwHtRwABBBBAoNsCK6j59Ie6/R6g9QgggAACCHRdYBkBPKR4uusQtB8BBBDosgCDlbp89Wl73QIL6oT3131SzocAAggggAACCDRIYAHV5YEG1YeqIIAAAggggAACdQvQH6pbnPMhgAACCCCAQNMEuF/WtCtCfRBAAIExCDBYaQzonLKzAnOq5Sx50tnLT8MRQAABBBBAQAJeBu5yJBBAAAEEEEAAgQ4LzKO2X9bh9tN0BBBAAAEEEEDA/SGWxOV9gAACCHRcgMFKHX8D0PxaBebQ2Zaq9YycDAEEEEAAAQQQaJbAbKrOss2qErVBAAEEEEAAAQRqFZhVZ5tc6xk5GQIIIIAAAggg0CyBWVQdL41LQgABBBDosACDlTp88Wk6AggggAACCCCAAAIIIIAAAggggAACCCCAAAIIIIAAAggggAACCCCAAAJ1CjBYqU5tztV1gRkCuL3rCLQfAQQQQAABBDot8IRaf0unBWg8AggggAACCHRd4EkBTO86Au1HAAEEEEAAgU4LPKXWX99pARqPAAIIIDCJwUq8CRCoT8DLwC1Z3+k4EwIIIIAAAggg0DgBLwO3TONqRYUQQAABBBBAAIH6BFgGrj5rzoQAAggggAACzRRgGbhmXhdqhQACCNQqwGClWrk52QAC8yjv6xUzFxyznLYfo7hIcaZiP4U/7CGNT+AAnfpZxa3jqwJnRgABBBBAICoB+kNRXU4agwACCCCAAAITEKA/NAE0DkEAAQQQQACBqAToD0V1OSf5en5RcY3iccW9Ct/r3C6uZtIaBBBAoL+AR66SEGiiwM6q1I8Vf1C8NlPBJfT6AsXiqe1b6PmrFDsoPGCGhAACCCCAAAIItF2A/lDbryD1RwABBBBAAIFhBegPDSvI8QgggAACCCDQdgH6Q22/gv+t/5x6eo5i3VSTFtJzx8PxNJOWIIAAAuUEmFmpnBO56hd4YzjluTmn/pq2eaDSI4ovKY5SeH1bjzreJSd/UzY9oYp4hDQJAQQQQAABBBAoIxBjf+hJNfyeMo0nDwIIIIAAAgggIIFY+0N3cXURQAABBBBAAIGSAjH2h55W2+8s2f6Ysr1TjUkGKu2j5/Mp5ld4QobzYmoobUEAAQTKCDCzUhkl8oxDYL1w0t9nTr6CXu8atvnRMy85Xa84TPF2xS/CtqY9zKYKLdy0SlEfBBBAAAEEEGisQIz9IS/bu2hjxakYAggggAACCDRNINb+0IubBk19EEAAAQQQQKCxAjH2h2aWdnr1lMbiV1yxbUN50/T47VTZfk1CAAEEOifAzEqdu+StaXDyoc3VmRrvrdd+356hSAYqOctPQr6k09aahlJRBBBAAAEEEECgQID+UAEMmxFAAAEEEECgMwL0hzpzqWkoAggggAACCBQI0B8qgGnh5mVDnf/WwrpTZQQQQKByAQYrVU5KgRUJPB7K8VSQSZpdTzxFotO3/m/rc0/u1oOXguOb+hkYXiKAAAIIIIBAawXoD7X20lFxBBBAAAEEEKhIgP5QRZAUgwACCCCAAAKtFaA/1NpL94KKzxW2PPiCPWxAAAEEOijAYKUOXvSWNPmWUM8pqfrurudeRu1WxSmZdvi97Gkjn8lsb9LLGarMHU2q0IB1sfG7FV439wHFo4p/KA5RuIP1hGIi6WAd9KziwHCwp/78rsLvAW+/RPGG8Nyvi6ZK/2Uqzxp6npeODXkuDDt/E17frscF8g7QtreFPD73NgV5spvLtCl7TN7rl2mjB+H53B/Py6BtXl7wypDnXD2W/b3uctPXbBe9vkjx71DW9noskz4S8ntg4SsKDlhR25NyP1+Qh80IIIAAAi8UiLE/5A/YbnthU9mCAAIIIIAAAgjkCsTYH3pSLU3aldtoNiKAAAIIIIAAAimBGPtDvj9xU0eu8tJq55cV1ylWDm3+lB593ycJ5+mXNg75/xQyeoKHTyr+qUjuIy2n575P6nJ3DfmyDx8I+53ng9md4fVuIY/7rfMV5GEzAgggMLRA2ZvaQ5+IAhAYUCAZTPKxcJynRvx0eO5ZldIzLnnz8oqZFPeGPE18mEOVWqKJFStRJ9f9d4pjFa9UzK/wAKWXKD6j8PVyx2aY5EFIKykuVuypSDpnN+v5WYpkINqmOSfxgJ30QKLtcvJ40+Zhu5cRdHqv4j6Fr8tXw7b0wyJ6cXjY8B09Jp3AnKy5m3q1KfeAzEYPHjo0bPP73z7Z5EFeqys8GGgPxSAD9mZV/gUV7ij/QrGBYk6Fk93LJPt4AJv/nnxP4WuRTv659OAzl3uFIvk5zmTjJQIIIIBAjkCM/SF/kLJUTlvZhAACCCCAAAII5AnE2B/y/8WXyWss2xBAAAEEEEAAgRyBGPtDs6idHljThbS2Gukv5Dt58I/T/YrrU+HBRmWT7zv5/twfFF9QeADUzAqX6QFgf1c4bRYesw87pDb0u5fm+3UPZQvgNQIIIIAAArELrKsGJiOK79Zzz0rk1/5DO3dO4/cK+3+fs68pmzyK+fgKK+MBIu7A1PEB1zeCr6/BkQrPlONBKR5Q9CGFOyvJzDme+WqQdLAyu1zPcuTBLJ7t59uKVys8MMkDaJwuVTif92XT1mGf3yvOc042g177xmjyntoytf8tqe2vyhz307DvRj3Om1Nm0aaybSo6Pr3dzu5cuu5nKzz4J0kepOQZKryvaAR8Kvvznvq94+M805Efbe9BYh6M5s5qMmhJT/smvx8805bL+Wwmd/Kz6evqn+u60jSdyG2cXNcJOQ8CCCAwAoEY+0M7yumkCq08ANm/7/MG9FZ4GopCoJUCp4Wfj1VbWXsqjQACCDwnEGN/aBs17dQKL7DLcn9ozQrLpCgEYhHw543++VgnlgbRDgQQ6KRAjP0h3/tJvlRexUU9UYX4931yP6mKMkdRxtUq1PdRpk6g8I3DsXfp8djw3KvQeCDURgr3MZ38xXyfwytyZNM82uD7rQ8qfG/pMYUHPmXTddrgMjxZAan9AieoCf752LD9TaEFCCCAQH0Cn9CpPIOS/yA6PBBl/YLTnxXy7F6wvwmb2zpYybMO+Y+Yr8FxBZCvC/udZ6KDlXysO0dbFJzDMww5jwfVZNM3w77P6dF1dSyYybRbyONBVZ7VIZ3ckXXZNyiSjplHlHubZyoqqtPzCkm9ODgc269NRcdnt/s/Ix5x7/LeF3Z6JqMLwrYz9ZgexJQ9Pu91ck1d5m8VWZO8Y3pt2yfUxYOS1goZl9Sjlwz0Oab2OngE+6apTLdx8gjKpkgEEECgToHY+kMMVqrz3cO5ui7AYKWuvwNoPwLxCMTWH2KwUjzvTVrSfAEGKzX/GlFDBBAoJxBbf4jBSuWuezrXxnrhey1JeNWNvPTakMf3trx6SDq9PuzzrEyesctlpWdact70F/99nUjtF2CwUvuvIS1AAIExCSyv875V4RtbHvGblzy94dsUHoySN+tS3jHj2LazTupBNVWl81SQB2OMemYlz9iTdH6m9Kj8tSHfMIOVpvYof9tQfl4Hy4OMXMdNFMkMTG/OlHVsyPPnnHMsqm3JrExf13PPouRl0Fymlx0cNKUHK00d9OCC/C7H9fEsVr7m+4XXD+txsmLQlAxW8jJ4Cw16cE5+D5byoCnX0VOD+ufy1+H1X/Xoae7rTNN0MgYr1SnOuRBAYJQCMfWHXiOooyvEYmalCjEpKjoBBitFd0lpEAKdFoipP+QvRH2/wqvJzEoVYlJUdAIMVoruktIgBDotEFN/yCs8VLkSSZdmVvI9mLN6/CT4Xqq/VO58HpyUTj8I2w/RYzIDU/ZzOt9r9bGPKLzyB6n9AgxWav81pAUIIIDA0AJtnVnpOLXcHRNPT9krJYOBhhms5Jl4ipJnPEqWPPNMTklaQ09cPw/a8YCYL4fXP/pvlv88uy5s9zcQ8pKnynQ5ns3LA5r83MfkTYGZd3x6W3qwUq829Ssnvd9t86Af1+tchTuKfv7eQQpJ5U0GK31ngsfnHTZZG30dXK8/hkdfs3FMRT9N52WwkhBICCCAQMMEmFmpYReE6kQtwGClqC8vjUMAgRYLMLNSiy8eVW+dAIOVWnfJqDACCHREgJmVBr/QG+sQ33txeJKHXsmTHTjfN1KZvFpH8qX9V+i5v1DoPP7ifjol9/o8+xIpDgEGK8VxHaNsxSxRtopGxSCwrxrh5aOOK9mY5ZTPy1BdrvhxyWPIVk4gGWzjmZN6pZt67Syx717lub1HPi/f5mXP3IndTHFyyJtMUXm2XnupNN+U+bjCHS13vjwTk6etXEHhdHp4zD6cpA0/V3hGpq0UPu6dCp93oqlfmxZXwXkzhnmd4NsyJ3XbdldconCn1OlPimPC84k+/L3HgR41v2zBftfP9Uyn6Xqxv8Ij8T0TltOnFXlL94XdPCCAAAII9BCgP9QDh10IIIAAAggg0AkB+kOduMw0EgEEEEAAAQR6CNAf6oHT0V297uuYxDORe/Yq30tL0sv1xKuMPKi4SDG7wl8290oe/sJ5ch9ncz13St9Lm1+vfWxeui5vY2abV23xahzZ5JU/HGXK71dGtuz06zLl97tfN+j9sl71YR8CCCCAQMMFPJq3zB+4pBled9XHXNPgdrV1ZqVkBPbP+tgmy5JNdGalMtf7/4XrfFmqLueHbXuHbe4wJLP7bBi27RbyePCQBzAVpVeHfH4v/VOR13kqOja9/eBQTr82Jcuk+XzpsHlRStrr/G7XRNNTOrBfGeuEPNn6+bUHdOWlBbXRA7ycx7NUFQ12yju2ym3TVJjbOLnKQikLAQQQqFnAv0v7/S1JV6kN/SFmVqr5TcTpOi3AzEqdvvw0HoFoBGLsDzGzUjRvTxrSAgFmVmrBRaKKCCDQVyDG/hAzK/W97C/IsLG2JPdqln7B3udvsG9yj8b3bJy+GLb5S/tJ8hfine+AsMFf/E/OsXYqnwfMJduzj2UmRvHkFNnj/Ppz4Rxlyu9XRqq6L3hapvx+9+smcr/sBRUZ0wZmVhoTPKftL9Drpn3/o8mBQHMEPBLYqd8f6ObUuD01SWYWmqNPletYu9ajwZ3WUngktG/KvkzhTs3v/rPnubV4Tw/PXxseNwmPZ+nRMyblpTm18fDUjpX13LMENSm9S5VJBmC5Xl7yLuloNqWe31BFbOnkvzGeZYmEAAIIIFCPAP2hepw5CwIIIIAAAgg0V4D+UHOvDTVDAAEEEEAAgXoE6A/V49zks3iVEt/b8z0az7DktF14/G149MOp4XlyL82DnJzuUfSbvSlk5QEBBBCYuACDlSZux5HNEtgyVOeJZlXrebWZoVfZpb0aXN3/q9qd4ZmnWOyVXtxrZ0X7LlQ5jyj8u8uDdrYIz/+qx7Tt78P5/G1Fp2SwUjKIKWx+3sMX9GoVhTthySAlL2G2el7mirbtrHJmygmPkM8mT8X59bDRdb1a4SX6vpXNWOHrv6msvPp5W57lTtr+doUHj3mmK7/nvRzfngoSAggggMDoBdrQH3Jf7ebRU3AGBBBAAAEEEOioQBv6Q17mfXpHrw/NRgABBBBAAIHRC7ShP/SUGK4fPUVnz+DP384NrfdgpcUUXurN7sn9M+9OBiv5ftu8iuRe2pl67vs8SfIX/YvuFbnMfmmBguMPDgeWKb9fGb3qUKb8fvfrBr1f1qs+7EMAgSBQZmo2sBCoQ8Cz2DjSaS692L7PyT2bzxqKfUM+D2ZpavLMRJ5CsW3JA4E8AMUdGXdo7i5owCsKtle52Z2ecxQe5b2RYuFQeHokuDclna319Xx5xaohX94AG+9yB+xDIc8H9PhLhZc587JwP1J4Ld8yHa5QxEgevqdS51NcrpiqcCfSnc23KX4VQg9jS74Wx4SzHxWee9YnTy36NcWfFTeNrXacGAEEEGiHQBf6Q+67jWuJ0Ha8C6glAggggAAC3RboQn9oVl3iyd2+zLQeAQQQQAABBHoIdKE/5PvTK/QwYNfwAmeoiG0Vvpd2aSjO95QeSBV9nZ47VlRspkhmYSq6l5Y6lKcIIIAAAgjEIzBVTclbr3SQbf5mWjLqt4kyu6pSx1dYsfNUlgfQLFNhmXlF+Ybi0wpfCy/xlZfcgfHyas5za16GHts8ctrHuUNUJn0k5PdgHQ+k8rHr5BzoUc7e59mI/Fg0UGZu7fO5neekVDlu90Nh+9TU9jJPB21TvzI9S5Hr5/f4uqnMvh7e7gFki/YrJLPf7x0fu9uAxxVl/3kob7oe5wmZ/B8Od4J9Ho/E98j7utI0nchtnFzXCTkPAgggUIHAVJXh35nDRNP7Qzuqfem/t8Oy+YMX/75fadiCOB6BCAVOCz8fycD9CJtIkxBAIEKBqWrTMH2h5P/OTf58aBu1MfkWexWX0GW5P+QvmZEQQOD5Ar/RS/985H12iBUCCCDQVIGpqljs/SEvN+bPdKpKJ6og/77foKoCR1SOV8zwtZ06gfI3Dsf6+KVLHL9eyP+wHpP7ZMnED+nDDw/5vqlHG7r8yekMPG+9wAnh2noGLRICjRLwUkokBJogcIQq8S6FOxTJerpl6+VlwTxri6e2TKY1LHss+foL3KwsntXHybMPuVPjUdaeKcodIg+k8cxGHthTR0o6sC/TyfxBnOvngUnZlMyu5JmHnE7PZgivD9WjR/Dfp3h/Ko/LPSC8PkiP7tiNI03RSb8STvxlPV6WqsSBen6jwgOVjh5H5cI536jHN4Xn79Gjfyad3LH1z7VvnG+h+OBzm/kXAQQQQKBAgP5QAQybEUAAAQQQQKAzAvSHOnOpaSgCCCCAAAIIFAjQHyqAYfNAAr5v5vte/nL5m8OR2VVKvDm5l+Y8MytuUEwP+XlAAAEEEECgcwJeauzfiusV/iPaKzxgpi2prTMr2dezDyVr1OaN6L9E+7dXeN+oZ1by7Dz3hHP5fN9W5KX0KHPne0tOJg9wS2aE2i1nv891tsLHX6GYPSdP3qaDwzHX5e0cYJvPf1Yo6x8F598q7Hcdk4FZZU6RjJDPa3eZ45M8/nn1zE4+/7EFB3427H9Uj3XNfDFN53IbJxfUic0IIIBA0wVi7Q8xs1LT33nULyYBZlaK6WrSFgS6KRBrf4iZlbr5fqbV4xFgZqXxuHNWBBCoTiDW/hAzKw3+Hknf81q65OGeICK5p3dlwTG+7+UvoCf5jinIx+b2CjCzUnuvXfQ1Z2al6C9xKxvogQ+eycd/GP0HslfMaFELXdfbW1TfdFU9yGRrhWceujBcE29z5+aTCi8Dd4GijuT3hQdOJSlvJLj3na/wqHEnH5OdUnRebfu+wgOCTlX85D85n5983J6KxxRrKD6TzTDi1/uo/M0VHlDlGYoezznf6dqWzHz1LT1fMifPKDcdpcIXVdym+GjBiTxY6SrFXIofKvjbUwDFZgQQQCAlEGt/6Am18RauNAIIIIAAAgggUEIg1v6QZx+eXqL9ZEEAAQQQQAABBGLtD/mLxp7BhzRagfR9saJ7ab7vlM7ne04kBBBAAAEEOi0wm1q/YGQCbZ5ZKbJLQXM6IDBNbWRmpQ5caJqIQOQCMfaHmFkp8jctzWuUADMrNepyUBkEEJigQIz9IWZWmuCbgcMQmIAAMytNAI1DEECgcQIx9oe6OrNS495cVKgTAsys1InL3M5GztLOalPrDgj4W/cOEgIIIIAAAggg0FUB+kNdvfK0GwEEEEAAAQQSAfpDvBcQQAABBBBAoOsC9Ie6/g6g/QgggECkAgxWivTCRtCsDYdoQ13LkQ1RRQ5FAAEEEEAAAQT6CtAf6ktEBgQQQAABBBCIXID+UOQXmOYhgAACCCCAQF8B+kN9iciAAAIIINBGAQYrtfGqdaPO5w/RzJmGOJZDEUAAAQQQQACBpgjQH2rKlaAeCCCAAAIIIDAuAfpD45LnvAgggAACCCDQFAH6Q025EtQDAQQQQKBSAQYrVcpJYWMWeEDn/+eY69Dr9DO0885eGdiHAAIIIIAAAggMKdD0/pCnLr99yDZyOAIIIIAAAggg0Eug6f2hJ1X5W3o1gH0IIIAAAggggMCQAk3vDz2l9t08ZBs5HAEEEECg5QIMVmr5BYy4+lP6tG1u7V9WsYViT4Xfy69XnNXnuHHunkMnX3ycFeDcCCCAAAIIINAqgRj7Q7PpCizZqqtAZRFAAAEEEEBgnAIx9odmFegy40Tl3AgggAACCCDQKoEY+0O+p+d7fCQEEEAAgQ4LMFipwxe/4U2fXqJ+/1CePyi+qjhHcYpiDcWNJY4lCwIIIIAAAggg0HSB6SUqSH+oBBJZEEAAAQQQQKC1AtNL1Jz+UAkksiCAAAIIIIBAawWml6g5/aESSGRBAAEEEGiWwIuaVR1qg8CEBO7SUQcp5lJ8bEIlcBACCCCAAAIIINBuAfpD7b5+1B4BBBBAAAEEhhegPzS8ISUggAACCCCAQLsF6A+1+/pRewQQQKBTAgxW6tTljrqxnlnJaduoW0njEEAAAQQQQACBYgH6Q8U27EEAAQQQQACBbgjQH+rGdaaVCCCAAAIIIFAsQH+o2IY9CCCAAAINEmCwUoMuBlUZSmBGOHqpoUoZ7cFPqvgHR3sKSkcAAQQQQACBDgu0pT/0QIevEU1HAAEEEEAAgdEKtKE/9JQI7hstA6UjgAACCCCAQIcF2tAfelrX594OXyOajgACCCAgAQYr8TaIReAloSGPN7hBs6pu8ze4flQNAQQQQAABBNot0Jb+0ALtZqb2CCCAAAIIINBggTb0h2aR30INNqRqCCCAAAIIINBugTb0h2YW8cLtZqb2CCCAAALDCjBYaVhBjm+CwNyqxBdDRf63CRWiDggggAACCCCAQM0C9IdqBud0CCCAAAIIINA4AfpDjbskVAgBBBBAAAEEahagP1QzOKdDAAEEEJi4gL/JQ0KgiQIHl6iU37/LKF6rWDzk/1kE7Nu0AAAgAElEQVSJ48iCAAIIIIAAAgi0QYD+UBuuEnVEAAEEEEAAgVEK0B8apS5lI4AAAggggEAbBOgPNf8qbawqnhuq6fuWtza4yqerbq9SfE+xZ4PrSdUQQKADAgxW6sBFbmkTPzuBev9ZxxwxgePqOuRJnejBuk7GeRBAAAEEEECg9QKx9oceaP2VoQEIIIAAAgggUJdAjP2hp4R3X12AnAcBBBBAAAEEWi8QY3/oaV2Ve1t/ZWgAAggggMBQAgxWGoqPg0cocFuJsp9VnocV1yp+pfiJwh2cpqZZVbH5m1o56tU4gY+pRpcr/tS4mlEhBBBAAIG6BGLtDy1QFyDnQQABBBBAAIHWC8TYH/LnsQu1/srQAAQQQAABBBCoSyDG/tDMwlu4LkDOgwACCCDQTAEGKzXzulCrSZOWBgGBDgtMUdsPVXxVwWClDr8RaDoCCHRegP5Q598CACCAAAIIINB5AfpDnX8LAIAAAggggEDnBegPdf4tAAACCCAQp8CL4mwWrUIAAQRaLfDaVteeyiOAAAIIIIAAAggggAACCCCAAAIIIIAAAggggAACCCCAAAIIIFAgwGClAhg2I4AAAmMSmF3nfcOYzs1pEUAAAQQQQAABBBBAAAEEEEAAAQQQQAABBBBAAAEEEEAAAQQQGKkAg5VGykvhFQnMo3J2UXxJcZzixPD4BT2+XjGXog3pcVXyX22oaKR1PF3telaxUWjfenr8veLesP2wnHa/Ttt+o7hD4et3q8LLsr1J4TWV+6V1leEHihsUjyl8/S9SfEQxf87Be2vbjYotwr6P6tF1TuLXOcewCQEEEECgGwKx9Iee0OW6uxuXjFYigAACCCCAQMUCsfSHnpTLnRXbUBwCCCCAAAIIdEMglv7Q07pct7fgkvkez5GKqxWPKO5T/F3xQ8WGBfX3Z1+TFUcpfL/H95buV5yr2FMxk6IoLa4dvi/k+1DuL7qshxWXKA5Q+MvueWki97/yykm2LaUnhyr+oXhUcZfibMU7FEVjC9J18P2zfRSut493+y9Q7KVI2j+rnu+r8D2zh0K+v+nxEwrvK0oTNUrK20xPfN/Pn0/OUPj+3bcUS4YMl+nR9+RWDK+Th4PD9gPDhk31+EuF7x/6Otnot4otw/5eDy/Vzp8orlf43uHNipMUrhsJAQQQQKAhAv5jdpDCf4jTAzayzx/U/o8piv5ANqQ5k3ZVRY6vsDLnqaynFMtUWGbMRSUdJQ9A2knhDmL6vfShVOPn1nN3KrLvtfRrdxYX7AH2Ke17pkcZ7gCtmTneg6euU7iD5HO5A+fXSbhzSyonME3Z/PMxuVx2ciGAAAKNFYitP7SjpP2f76rSGSrIv+9XqqpAykEgIoHTws/HqhG1iaYggEA3BWLrD22jy3hqhZfSZbk/lP2MocJTUBQCrRXwzUj/fKzT2hZQcQQQQOA5gdj6Qx7o4c90qkonqiD/vt+gqgJVjgeluMyi+0TvT51r41S+rfS8133NEwrq6C+4e2BP+nweBJN+7QFPeQN5Tg/5ytz/SvIeW1CPzbXd96aK2u37WL6Hlk1JuR6Q5TxFxx+tfR50d3GPPO7f5g3qGsbI9fW95KJ6uc1+/3jglPMUDVbyQDUPKCu6/+ftH1AUpf16HOvzfqbowCG2+z3n93LRALshiuZQBBBAIF4BD+xJ/9HwKGKPvD1L4ZG2nqUmvf/7DadgsNJ4L1DSUTpc1XCHz6OmP6nYXLG1YrIiST/XE7+3/G3HzytWU8ynWEHxcYVH0Hu/bwDlpfeF/c7jkdXuACygWELxFsWNYb9HXC+syCaPNvexh2V38Lq0wDTldOdrcukjyIgAAgg0UyC2/hCDlZr5PqNWcQowWCnO60qrEOiiQGz9IQYrdfFdTJvHJcBgpXHJc14EEKhaILb+UNMHK71TFzC5/zhNz/15lgeveEac3RSeFSd9b2fjVH6v5nG5YnuFv/DugT0vV3hmoqTMHfQ8L/l+kst2f9EDepw8k5DvFSXH7hG2px8Guf+V5D02p5wp2pYMmPKAIw/29UA539/yIKRk3xE5xybl+t6tv5DvGZJcng02UST3vdwO3+P1/ZtPK1ZWeBDS+oqkDOexX16aqNGrVFhieL6eu04+79KKPRS3Kh5M5SkarOTZtTwz2CkKv4/9PvCsTF6R5bZwvGdLWlSRTb5PnNTB13RZhSficB3S13iX7IFDvmaw0pCAHI4AAt0TeLOanPzC/qmee7BIXlpXG09O5X1jXqaGbGOw0ngvRLqT46kVi2akcuciee95Wba89JpUnrdmMsyr10mH5md5B2ubOx7usPo838nJk3Ta3DkhTUxgmg5zZ3fyxA7nKAQQQKARAjH2hxis1Ii3FpXoiACDlTpyoWkmApELxNgfYrBS5G9amtcoAQYrNepyUBkEEJigQIz9oSYPVppL1ymZXccDUjxYp1/aWBmS+0qeeMEDdLLJX4i/J+T7QXZnidfTwrH+sn02lb3/5eOSvMdmC9HrXyvcDg+2miVn/z5hv2cPyt5jS9chb2YhLy3nQTyJk2c5yibfX/NgJ+c5MruzxOtp4dg8owvDvqv16AFk2eSBVekZsYoGK7lubmveaj8eAJW07x2ZE8yh157AwPvzBns5u2ej9/7rMscO+5LBSsMKcjwCCHRO4Cy12L+Qy86W5JHGyR+IpmLtpIp5Vp+q0nkqyIMxsh2CqsqPrZx0R2nzHo07Tvv8XvKAppl65Dsj5PNycOm0R9juMiZn9qVfHhLyudPrTko6MVipB1zJXdOUzz8fk0vmJxsCCCDQRIEY+0OvFvREPmwouj7+e+zf9ysVZWA7Ah0WYLBShy8+TUcgIoEY+0Nb6Prk3Rya6GU7VQe6P8QycBMV5LiYBRisFPPVpW0IdEcgxv7QK3X5fljhJTxRZbk/tEEFZXqGHN/fcZT9vGnj1DG9lvH6ccj3lwnU80vhWN8bzKay9798XJI32x/1ACuvNuJ275w9QXjte1meNcl59s3kScr1yiSzFxzvZex87L8VeQOGfJhnTnKeopVNCor+z+YiIw88Sq5pdhBRurxvp/L1Gqy0VY9K3BrK8Kot6eTZtFyHpxULZfYlL/3/hKSentWqqsRgpaokKadygbxRf5WfhAIRmICAZ0xyOrTksf4D5LReyfzjyOY/znnT/o2jLl0+5zVq/LQeAO4kO/1R4U5BUfpd2LGlHmdNZUqOv0rbphcdrO3J8R4p/ooe+diFAAIIINBdgRj7Q7Ppcr64u5eUliOAAAIIIIDAgAIx9of8GYKXiSchgAACCCCAAAJlBGLsD3m2oqXLNH4MeTYP5/ynHq+dwPnP6XHMzWGf7wsNmjwIyCn75fd0Of3uf/U6p+91zaLwfbGiNnig0g2hEC/flpcu1cbH83Zom5dJc7pS8WifPFUaeRm+JPneX1E6u2hHarsHG3nQVVG6KezI1t+zqzq57V5KLi/9I7WxyDfvOLYh0FoB/9IhIdBEgWTUrWe3KZOSP469/kiXKYc88Qtc0aeJyUxV/Tqh7vQ5uVPtm64eLe006PE+xtNfkhBAAAEEEMgK0B/KivAaAQQQQAABBLomQH+oa1ec9iKAAAIIIIBAVoD+UFZktK8XD8Un94AGPVsyICnvOM9c5FQ0mYhn83mXYjOFn8+vKJql6D8FZVK/+1/Z/OnXyeAxrzhyb6+MYd9iBXmSe2V5uz37ldPdeTvDtiRPlUbJfTuvdNLr3NN71CvZ5eOLBmM5T9E1TnzXUp5eEyUk5ynyLVFFsiDQHgEGK7XnWnWtpv5jlvwh9vqk/VKy/muvP4L9yhj1/id0gqLRsqM+N+X/V+CBHhgeeJR0/Lx2bq+UHvXtKRuT914ydWW/4z3NpTsk7vgVTfnY6/zsQwABBBCIXyDG/pD/w17mA4/4ry4tRAABBBBAAIEyArH2h+4p03jyIIAAAggggAACEoixP+TZae5q6NVdONQrmclo0Gr63s9E0gd10NcUnoXTA3Y8y84liuRe0+p6vmqfgnvd/+pz6KSk3c8o4/39Mmt/UTv73Rtz0cmApBKneV6WiRrNE0opms0pOUmZa17U7n5tSXw90KnMeZJBT/3KZT8CrRYoGpXY6kZR+SgEvJ6409YlW/OakO/kkvnHkc3LnjAoZRzy5c/pDnLSmUs6L0VHp6dwfDiVKRlc1+947/dAJaf08UXnYzsCCCCAQPcEYuwP+QOX5D/n3buitBgBBBBAAAEEBhWItT+06KAQ5EcAAQQQQACBzgrE2B9KVqxo4kV9MFRqrhor90qd65sKf272E4Vnd1pHsZ3ijSFO0uMoU3JvzPerFikR7xhlZXLKHsYoGaQ0Z0656U2z9Nk/zO7E18vQlfE9ZpiTcSwCbRFgsFJbrlT36vklNdmjxQ9VeLRwr+S1Rr8Q8n+5V0b2IVBCIJkhqd96sKuEsjy6+Y5UuYMe70OTNWxLVI8sCCCAAAIdEqA/1KGLTVMRQAABBBBAIFeA/lAuCxsRQAABBBBAoEMC9IfqvdjJjE/97hFVWat3qzB/ud33it6pyJuVPFnVo8rzpsu6Pbzw0nMvHtVJhih3GKOkbQvo/MlKPXlVGeXSa0kdknuLeednGwKdExjlCMHOYdLgCQnslnOUZ7fxNHhfVBymuFxxuuICxW1h3xx6XE6xSQhPu+dZmJq8zJrb1GstVO0mNUDgNNVhDYVn6/Lofr8f89KOYePFepyRyuDjPRWlO7KOonWNk+O9POBFqeP9NJkCc7bMdl4igAACCMQp0KX+kP/u3RnnZaRVCCCAAAIIIDCEQJf6Q/7Skz/fIiGAAAIIIIAAAmmBLvWHfN/lloZe/v9RvTwwZjXF8oobaqjn5HCOy/RYtESaZ1oaZTpLhfu6+L6YZ3M6YpQnm0DZk8MxEzHyfbwkvUpPTiw4/8sKtlex2fe536vwUn6+B3llFYVSBgJtF2CwUtuvYPvr/+OSTdhW+RxFydMxXqq4QrFuUaYxb59d5x/lqNwxNy+a0/s9uZ9iGcUHFJ56M5s89eamYeN3Mzv/pNeeaWkJhQfcvSF7sF4vrdgnbP+ZHrPr094T9vWbVSynaDYhgAACCLRQoEv9IQ/E9VTWJAQQQAABBBBAIC3Qpf6Ql/dYisuPAAIIIIAAAghkBLrUH/KAGN+DaWL6tSp1lMKfYX1V8XrFsyOu6EOh/BUKzrOltm9esK+qzZ5Ryve3/EX+qYrfK26sqvAKyhnG6Cqd3/eP11QcoPDSiv4CQTp55ioPJhpVOkUFe8KNhRR+f22jeKzgZJ5la9TvuYJTsxmBegVYBq5eb872QgGP0q0qXLr/0DQ1uZ2eTYDUbAHP5PW1UEV3RD+vWEnhtWyXVXxUcULYf54es/+B8DV+T9jvTqxHaG+gcEdnYcUuinMUnmrSU3kepMgmzyLm5A6oZ2nysY5VntvMvwgggAACkQlU1RdyOU5N7g89o/p5tkkSAggggAACCCCQFqA/xPsBAQQQQAABBLouQH+oGe8ADyg5JFRlZz160M5WCt8f8kxLHmTybcU7Qp4qHnzPyMmf6X1Z4ftHHtDlwUu+R+WBLrcqRp38BX4PClpEcaFiX4XvS/ne1jKKzRVeltCDmOZR1JmGNTo4VPalerSnZ6qyse+9+ZpOU7jdo0peoWWvUPjGevR9wDcp/L6yr6+1V2T5vsKDxkgIIIAAAghUKrCrSju+whI9UMbTQbqDQOov4CkWPRL52P5ZJ3nWOY9sdv6i8FSgvTou79J+34wtOt6zL7lTlJc8A5enhM8ee0leZrblCkzTVv98TM7dy0YEEEAAgXEJ+D/dJ1V48jNUln/fe2AxCQEEni/g5Yn98+EpxkkIIIAAAs0R8M2QUyusjsvy7/smD1ivsLkUhcBAAp45wT8fo146Z6BKkRkBBBBA4D8rV/gznaqSvzTu3/f+4ngVyZN9fF2RvUeTfu2BPEnaOJV36R4VmBryXZnJ44E/3pYu3+1JXntwzYbhdd59otPDvmMz5ea97Jf3lTrIA6N6td37soOV+pXruvwklOvZq4rSYSFP8qX+JN+wRi5naig7r20epPW21P4VkxOHx4PDvusy27Mvp4V8387uCK89e5MHLuXVIdmWd40Liiu12RMw+P3k9xAJgUYJ+JctCQEE6hHwaGxPo0hqvoD/aL9P4dHyvqF6k8IzJv1L4Q7XOxWbhNd6yE0e/by2wh2Sfyo8naM7O5cqPCrfN438PC/drY3uEP5U4feMp6O8U/GXvMxsQwABBBBAoEUCD6iu/ptGQgABBBBAAAEEuirgzwb8BSYSAggggAACCCDQVYFH1HB/YbupyTOD76fwoCqvrnGjwl9O9yCTaxQeyHSyoqpkj40UhyquV/ie0MOKixSe7chf/vtr2K6HkSbfh1pL4VVGzlf4ftXTCtfnCsXRii0UrnOdqQqjqarw1goP9vf9Pt/3u1nhQV5us9s36nSMTuAvGfha+3wPKnxP8l6FvT2TlgdNkRBAAAEEEKhMYHaVlF3/dNjCmVlpWEGOj1lgmhrnDt7kmBtJ2xBAAIEWCviDhSq/MMHMSi18E1Dl2gSYWak2ak6EAAIIDCTgGxGe0bmqxMxKVUlSTowCzKwU41WlTQggEIOAByr5vllV6UQV5PsBVc2sVFW9KKddAuupusnsRlPaVfWetWVmpZ487BynQJX/MR5nOzg3Ak0WmF+Vc8dr1iZXkrohgAACCCCAAAIjFPAHUB6o5Cmb/e00EgIIIIAAAggg0EUB94eWVPhmGgkBBBBAAAEEEOiigGe0eYnCMxWREGiSwItTlfGMRyQEEBixAIOVRgxM8X0FPK3hTgp/6/fMVO7d+h5ZnMFrnjYlLaaKXKXwjTkSAggggAACCCCQJxB7f2g+Nfp2BQO3864+2xBAAAEEEEDAArH3h2ZTGx9V+PMhbszxnkcAAQQQQACBPIHY+0Nus5cSW1rBQJC8dwDbxi2wZaiAZ0K9b9yV4fwIIIAAAqMXuEen8JR6jynSUz4m0+xN5HH0tS53hmWUbZRr7rIMXLnrQK5uCkxTs1kGrpvXnlYj0EaBmPtDi+qC+D/4o0osAzcqWcqNQYBl4GK4irQBge4IxNwfmleX0QOVRpVYBm5UspQbgwDLwMVwFWkDAt0RiLk/5IHbTyjmGNHlZBm4EcFGVOziasvMPdqzvPZ5EJ3vS/+sR7427mIZuDZetY7U+UUdaSfNbK7AP0LVrtGjOypJelpPJhpNaO2KqsTZiqWaUBnqgAACCCCAAAKNFoi1P+Rvyl2uWLjR+lQOAQQQQAABBJogEGt/yAO3b1LM3QRk6oAAAggggAACjRaItT/kgdv3KzxhwYxGXwEqF7PAzmrc1YqDFRsrFlF4Fvj5FbsqfE/Xs8P7S/CHKUgIIFCDAMvA1YDMKXoKbKW9yyluUXi0apLa/N5cXY3wKG6PwiUhgAACCCCAAAL9BGLsD3ng9p8VS/ZrPPsRQAABBBBAAAEJxNgf8sDtixQLcYURQAABBBBAAIESAjH2hzwgxJMVMHC7xBuALCMX8OeVn+1xFg9U2ltxaY887EIAgQoF2jwgpEIGihqjgH/xXz/G81d96vVU4PcVq1VdMOUhgAACCCCAQLQCsfWHkoHbU6K9YjQMAQQQQAABBKoWiK0/tIKATlcwcLvqdwrlIYAAAgggEK9AbP0hrzxyiYKB2/G+Z9vUsp+qss8otlGsqXA/fU7FYwpPqOGZlb6luEpBQgCBmgQYrFQTNKcZWGB7HXGz4lqF/1C0Ib1Clfy6Yp02VJY6IoAAAggggEDjBdrYH2LgduPfVlQQAQQQQACBVgm0sT/0Egn/SsHA7Va91agsAggggAACjRVoY3/IK4+cqViisapUrGsCD6nB3wnRtbbTXgQaK/CixtaMinVd4HcCuFyxRUsgNlc9v6zYsCX1pZoIIIAAAggg0HyBtvWH3A86SsHA7ea/t6ghAggggAACbRFoW39oXcH+TLFqW4CpJwIIIIAAAgg0XqBt/SEP3P6DYnLjZakgAggggMBYBRisNFZ+Tt5DIJlN6YEeeZqya1tV5CDFpk2pEPVAAAEEEEAAgSgE2tQf2kziX1G8PAp5GoEAAggggAACTRFoU3/IA7ePUazdFDzqgQACCCCAAAJRCLSpP5QM3F4lCnkagQACCCAwUgEGK42Ul8KHEEjWBG36N9F2VBv3UWw9RFs5FAEEEEAAAQQQyBNoS3/IA7cPUWyS1wi2IYAAAggggAACQwi0pT+UDNx+2RBt5VAEEEAAAQQQQCBPoC39IX+BjYHbeVeQbQgggAACuQIMVsplYWMDBA4LdfiQHmdvQH3yqrCrNu6u8HrBJAQQQAABBBBAoGqBNvSHkoHbW1XdeMpDAAEEEEAAAQQk0Ib+0DaqJwO3ebsigAACCCCAwKgE2tAf8sojX1UwcHtU7wLKRQABBCIUYLBShBc1kib9XO3wUiKeOvsXigUb1q63qz47Kd7QsHpRHQQQQAABBBCIR6Dp/aFdRM3A7Xjeb7QEAQQQQACBJgo0vT+0g9A+rGDgdhPfPdQJAQQQQACBOASa3h/yyiOfUmwcBzetQAABBBCoS2CWuk7EeRCYgMAXdcyTigMV1ytOVPxd8UCfsn7SZ/+wu9+oArZQvG3YgjgeAQQQQAABBBDoI9DU/tBrVe/XKRi43ecCshsBBBBAAAEEhhZoan/Inw29U7Hd0C2kAAQQQAABBBBAoLdAU/tDr1C191O8qnf12YsAAggggAACCLRH4AlV9dkJxqhbecmoT1Cy/POU7ynFMiXzk214AQ9UG/R9uf/wp6WECQhM0zH++Zg8gWM5BAEEEGiKQJP7Q5c2BOkM1cO/71dqSH2oBgJNEjgt/Hys2qRKURcEEEBgQIEm94f+OmBbRpX9VBXs/tCaozoB5SLQYoHfhJ+PdVrcBqqOAAIINLk/1JTPhzzZgftDG/B2GbvAHqrBDIXvpW049tpQAQucoPDPB9eD90PjBFgGrnGXhAoFAb83n55gjBpxH53gzFGfhPKjEXgmmpbQEAQQQACBugWa3B/aUxj/UzcI50MAAQQQQACBzgk0uT+0m65GU77Q1rk3Bg1GAAEEEECgQwJN7g/toutwZYeuBU0tFphZu76m+IFi9uJs7EEAAQT+K8AycLwbmirQ5Pfm+ULz+rt/UbyyqYDUayQCf1ap65YoeT3l+V7Id3qJ/GRBAAEEEEAgT6DJ/aHLVOEPK3yDbv28yrMNAQQQQAABBBCoQKDJ/aGr1L53K65QMKtRBRebIhBAAAEEEEAgV6DJ/aEbVOM3KK5VMOt17uXrxMYF1cqfK7ZR/EuxsGKmTrScRiKAwFACTf4DN1TDOBiBEQucq/K9Du/FCqaVHDF2g4p/UHX5W4n6JEu/na28fy+RnywIIIAAAgi0UcD9IN+g89+6tdrYAOqMAAIIIIAAAggMKXC5jveMAtcoVh6yLA5HAAEEEEAAAQTaKPBPVXprxc2KZdvYAOo8lMBqOtrLrnqw2u2K7RT+kiMJAQQQ6CvAMnB9icgwJgGvI+4/cGWTR+lur1i77AEV5LtIZbxHwWCUCjAjKmIJtWXX0J5vRdQumoIAAgggUL9AG/pDvkH3JoU/mCIhgAACCCCAAAJVC7ShP3S1Gr2t4qaqG095CCCAAAIIIICABNrQH5quer5ccRdXrHMC/vK+Byr5XumGCs+2RUIAAQQQQKDVAs+q9tcN0IJllNfHjGO0rgdVjeMG3Xk671MKt53UHIHPqSp+L/pbBF6jlzQegWk6rX8+Jo/n9JwVAQQQqESgTf2h5dXi6ZW0erBCzlB2/75nqvHB3MjdDYHTws/Hqt1oLq1EAIFIBdrUH1pS1+DOMVyHU8Pve5aiGwM+p2y8gGd68P8XfKOfhAACCLRVoE39oYWE/MAYoE/UOf37npVQ6sefT6c8WjFvOLUnl/B71uHBS6TxC5ygKvjng+sx/mtBDTICzKzEWyIWgTtCQ3yjrO70vzrhaxQ31n1iztc4gTlUo/eGWh2lx6cbV0MqhAACCCAQs8A4+0P+1tQrFUkdYnambQgggAACCCDQXIFx9oe87MXqivuby0PNEEAAAQQQQKADAuPsD90n36UUjym4B92BN5ua+JBib8XDobkzdaPZtBIBBKoQ4A9FFYqU0QSBlUMlZh1TZXyDbhOFP5gidVfg7Wr6IooZiu92l4GWI4AAAgiMSWDc/aHb1G5/o98fTJEQQAABBBBAAIFxCIy7P3SvGu0ZsP+t4EbNON4BnBMBBBBAAAEExt0felSXwLPseMDSnFwOBBBAAAEEigRmKdrBdgRqFphN53Okkz/UmadPPXzMGorDQ76r+uQf5e5bVfjaCn8w5WkOSd0T+HBo8s/0+K/uNZ8WI4AAAggMKRBDf8h//5ZT+IOpuYf04HAEEEAAAQQQ6J5ADP2hR3TZ5lc8rvCyGP5CEwkBBBBAAAEEECgrEEN/yEtOza7wrDvLKsaxNFxZb/IhgAACCIxJgMFKY4LntC8QOFBbPpXZ6iXdkmkDX3BAwQYvvTXOdI9OPkXhD6b6DbQaZz05d/UCW6tIT/fu9K3qi6dEBBBAAIEOCMTSH3L/bUHFkwr3h3yjjoQAAggggAACCJQRiKU/5H6QbzS6X7S04sEyjScPAggggAACCCAggVj6Q76YHrjt+2aedOAuri4CCCCAAAJpAZaB4/3QFIFTVZEfKe6eYIU8OtsduO9N8PgqD3NdPLNS8sFUlWVTVnMF9gtV+4seL2tuNakZAggggECDBWLqDz0hZy/P6xkn/cEUCQEEEEAAAQQQKCMQU3/I7fUSKNcrFivTePIggAACCCCAAAISiK0/tKjadKnCMyyREEAAAQQQ+D8BZlbizdAUgYtVkd0VXvrNM9T8UXGnYq8+FfRUkh6V/Q9Fk6bV9gwCvkHnJVAWVww6Q1SfZrO7YQKrqGNYwoIAACAASURBVD6vDnViVqWGXRyqgwACCLRIILb+kOk9s5IHLK2qcJ+NhAACCCCAAAII9BKIsT+0iBp8m2JDxS29Gs8+BBBAAAEEEEBAAjH2hzzTpAdwb6u4jquMAAIIIICABRisxPugaQLPqkJ/UpyieEl4bFodB6nP3Mp8n2Jlxb8GOZC8rRL4sGrrgXa3K37VqppTWQQQQACBJgrE1h/yjJP+G/kyxa1NBKdOCCCAAAIIINA4gdj6Q0tJ+AbFNgpu0DXu7UaFEEAAAQQQaKRAbP2hFaT8v4o3KjwBAQkBBBBAoOMCTRusNJeuh2ekebrj14XmT5q0jxBWiwRiIbXjDsX6Cn+TjhSXwIJqjmcFczpa4eX/SAgggAACCFQhEFN/aEmB3KjYSuFv0pEQQAABBBBAAIEyAjH1h5ZXg7lBV+aqkwcBBBBAAAEE0gIx9Yd83+9vincp/splRgABBBDotsCLamq+vz30TYWXSspL22njPxVeMusxxW8UrF2aJ9Wdba9TU718Wtm0nDIepnh72QNqzreEzvcXhZeGI8Ul4KUKPdDyCcUxcTWN1iCAAAIIjFkgtv7QFHmeqph9zK6cHgEEEEAAAQTaIxBbf8g36I5X+HMEEgIIIIAAAgggUEYgtv7QOmr0UYr5yjSePAgggAACCAwr8BEVkExXmC3Ly0F4JhLvT8e1es1/3LNa3Xnt98Ig02IvEt4/1zSYaAfV7cgK63eeynpKsUyFZVLUYAKene5mhd+vPxrsUHKPWGCayvfPx+QRn4fiEUAAgVEKxNgf8tIn36sQ7QyV5d/3K1VYJkUhEIvAaeHnY9VYGkQ7EECgkwIx9oc205X8SYVX04PB3R9as8IyKQqBWAT8pWj/fPjGOAkBBBBoq0CM/aENdTF+UeEFOVFl+ff9BhWWSVETE0ju1/p96+tMGr/ACaqCfz64HuO/FtQgI1DXzEo7hvPm/eH5hvb5hr+nQX614k0KL5m1omLvcBwPCPQTeDBkWLpfxjHun03nZiaBMV6AEZz6DSozGSz2rRGUT5EIIIAAAggMItCG/pBnmZxzkEaRFwEEEEAAAQQQGECgDf0hfw46xwBtIisCCCCAAAIIIDCIQFv6Q0xYMchVJS8CCCAQoYD/c1xHWj2c5MzMyTbWa4/i88xKOyuSWXGe1nOPgvXUhl/LHMNLBPIEtgwbvRRXU9PMqhgfRjX16kysXvuFwy7U48UTK4KjEEAAAQQQqEygLf0hBm9XdskpCAEEEEAAAQQyAm3pDzF4m7cuAggggAACCIxKoA39IU+mQX9oVO8AykUAAQRaIlDXYKUFgsdNGZf3hddeqz29fNefw3av407qhsDKaqYjnTyqevs+zfdsRWso9g35PGiEhEAdAi/XSRxOzKpUhzjnQAABBOIXoD8U/zWmhQgggAACCCDQW4D+UG8f9iKAAAIIIIBA/AL0h+K/xrQQAQQQQEACdQ1WekDn8hqVHljyWJBfTI9eQsnpyPCYPDykJ54hZ/7Mdl7GK/BWNe1TmeYtode/G6DJXm/zcwPkrzurZxBLpt+s+9ycr3qBZFalu1T0L6svnhIRQAABBDoo0JX+kP9vQEIAAQQQQAABBPIEutAf8udX9+U1nm0IIIAAAggggIAEutAf8go793K1EUAAAQS6LeBp9upIt4STrJU6mWfC8RIQlyqyyyd5UJOjyUt61eHWpXMcoca+S+Hl/wYd0POIjvFsXJ7a8twGo82qujEAr8EXaMCqvVn5Z1IsruB31YB4ZEcAAQQQyBXoSn8omXU1F4GNCCCAAAIIINBpgS70h/zl0YU6fZVpPAIIIIAAAgj0EuhCf2hmASzcC4F9rRX4l2rue2eOC1rbCiqOAAK1CNQ1s9Lv1Zp1FYcp9lZ42a6PhBYemtPSZFDTHTn72BSnwD1q1g9CeNat6Qpf/7X7NNffRpvRJw+7EUAAAQQQQACBNgjQH2rDVaKOCCCAAAIIIDBKAfpDo9SlbAQQQAABBBBogwD9oTZcJeqIAAIIIDC0QF2DlbzMm2dS2lhxZarWngXHM+lk07Zhw/nZHbzuhMDdauX3FK9ReNakWJIHViXLIMbSJtqBAAIIIIAAAqMRiLU/5Gm+Hx0NGaUigAACCCCAQGQCMfeHYvq8K7K3Hc1BAAEEEECgUQIx94cebpQ0lUEAAQQQqF2grmXgblfLdlTcmGrhH/T89YpnMq32tHC7hW3HZ/bxsjsCH1VTN4isuR4cOGdkbaI5CCCAAAIIIDA6gRj7Q57me+7RkVEyAggggAACCEQmEGt/aJ7IrhPNQQABBBBAAIHRCcTaH5p3dGSUjAACCCDQBoG6ZlayxZmKFRRLKPztoYcKgDxYaeuwz4OcSN0UeELNdpAQQAABBBBAAIGuCtAf6uqVp90IIIAAAgggkAjQH+K9gAACCCCAAAJdF6A/1PV3AO1HAAEEIhWoc7CSCZ9V9BuA5JmWbo3Um2YNLuDBa6sollbMUfLwU0rmqzvbDJ3wjrpPyvkQQAABBBBAoPUCMfWH/AEbff3WvyVpAAIIIIAAArULxNQfelJ6N9UuyAkRQAABBBBAoO0CMfWHntLFSK/G0/ZrQ/0RQAABBCYgUPdgpQlUkUM6LLCT2n64YvKABu6wNTF5sJVnFiMhgAACCCCAAAJlBWLrD82mhnsQOgkBBBBAAAEEECgrEFt/aFY1fLmyjScfAggggAACCCAggdj6Q74/PYUriwACCCDQbYGqByutOALO60ZQJkU2X2BDVfEkxcypqj6deZ1uxYN6cY7isuY3jRoigAACCCCAAAKlBOgPlWIiEwIIIIAAAghELEB/KOKLS9MQQAABBBBAoJQA/aFSTGRCAAEEEGibwIsqrvC1Kq/qqLiKFNcSgY+qnh6odI1ic4VnJUoG1/1Kz/0ttAUUWyjOUjjvtxSfUpAQQAABBBBAAIEYBOgPxXAVaQMCCCCAAAIIDCNAf2gYPY5FAAEEEEAAgRgE6A/FcBVpAwIIIIDACwSqHqz0ghMMseEJHXvVEMdzaLsFNgrVf68ez1Y8nmrOs3ru9Ww9m9I0xTaKqxUnK1ZRNDXNUMVub2rlqBcCCCCAAAIINE4gxv6Q+/i3Nk6aCiGAAAIIIIBAUwVi7A89KeybmgpOvRBAAAEEEECgcQIx9od8j+/GxklTIQQQQACBWgWqHqz0CtU+L16q7W9SPKZ4RPFdxdsVmyrWU3gKQ6+3+iXFPQoPQnmlYnUFqZsCi6nZzyj+J9N8D1RKLw3n3e7UHKKYW/HJTP4mvfTsUEs2qULUBQEEEEAAAQQaLRBjf2g2iS/daHUqhwACCCCAAAJNEoixP+TZwpdrEjJ1QQABBBBAAIFGC8TYH/JKKlMarU7lEEAAAQRGLpAsq1XViS4oKGhZbT9DcYtiS8VtBfl+q+2HKc5R/F6xbo+8BUWwORIBz6TkwT3+tlk6/Vsv5s9pY/Le8/uLhAACCCCAAAIIxCBAfyiGq0gbEEAAAQQQQGAYAfpDw+hxLAIIIIAAAgjEIEB/KIarSBsQQAABBF4gUPXMSi84QdhwkB4XUHxCUTRQKTn2Xj05ULGo4oBkI4+dE/DANs+gtEKm5V5GbbUcjYe17WmFR5iTEGiygGeQ8wxz+zS5ktQNAQQQQKARAvSHGnEZqAQCCCCAAAIIjFGA/tAY8Tk1AggggAACCDRCgP5QIy4DlUAAAQQQqFqgrsFKrw4VP7tkA/4S8m1XMj/Z4hM4PzRph0zTLtfrxRVbZ7Z7zV4PbpoRHwUtqljg2yrPywk61p9A2XeGYw/uc+xnQj4vU7h9Ku/b9NxLFu7W53h2I4AAAgggQH+I9wACCCCAAAIIdF2A/lDX3wG0HwEEEEAAAQToD3XjPbCUmvlJhe+R36TwjFr+4vu1itkKCObU9v0U5yn+pfBqNb6H5dWLdlXMpCAhgAACjRWoa7CSB5c4eQmvMumxkGnJMpnJE6XAL0Kr3pNp3cnh9U/1uKdibcUbFD8M2y/M5G/SS8/89ESTKtTBurxKbX5/De32QKRDwnk+rMdTUud0J9Hpd6ltPEUAAQQQQCBPIMb+0DNqqD9sISGAAAIIIIAAAmUE6A+VUSIPAggggAACCMQsQH8o5qv7XNs+qIcbFF9QeHKGZRUeoOQvvq+oyLufv5y2X6H4muKVioUVTi9WvEZxguJUhQc0tSHtokruNcKKekWnqYqVR3gOikYAgYYK3KN6eRaTDUrW72Uhv0eBkrop4NG+n1e8NNN8z570V0UyM072casGc3kU8/EV1s8jpT1rzzIVlhlzUfOrcTcr7ld40NioZlbaRGX7JqzL/2oB6BwF29lcncA0FeWfj8nVFUlJCCCAQO0CMfaHdpTiSRVKnqGy/Pt+pQrLpCgEYhE4Lfx8rBpLg2gHAgh0UiDG/tA2upK+cVRVclnuD61ZVYGUg0BEAr8JPx/rRNQmmoIAAt0TiLE/tKkuoz/TqSqdqILcHyp7H7qq81ZRzmdVSHKv019831nhSUB8P9T3ktzHyxus5Bm3fJzvpe+hWEDh94oHOh0a9nn/lxRtSDepkpeMsKLvDCbplVBGeLpGFe2Ba/752LBRtaIyCNQo4BlE/AvxLEW/EZweKfrnkL/K/7jX2FxONWKBJVT+n8J7JPkDfq9e7zHi8w5bPIOVhhUc7vjjwntmqh5HNVjJN0rdMfT78leKvA6kNpNqEJimczBYqQZoToEAAmMTaGt/iMFKY3vLcOIOCjBYqYMXnSYj0DGBtvaHGKzUsTcqzR2rAIOVxsrPyRFAoAaBtvaHGKz03Jtjaz14FnJHdqWZXm+f1bUzuT+6Q0HG74Q8Xhau6SlpzygHK/0yeDBYqenvBurXKYFZamrt4TqPf/g3V1yq8IjOPyrSvyAX1Gsv0fRJxXoKp2+GRx4QSAvcoRf+YMejgycrHlJcqfDABBICeQI7aePuCs+s9HXFp/IyDbltIR3vAZaeavMixdsU7mCSEEAAAQQQGIUA/aFRqFImAggggAACCLRJgP5Qm64WdUUAAQQQQACBUQjQHxqFan1lelYlz4bk++HfHeC0y4W8HrDkCUDykr/A5AFQXhbOMzTNyMvUkG1vHXE9FlP5TV6ZZ8TNp3gEmitQ16wfnsrPv3CdVlP8QOE/oA+HRy/LdJ/CoxqTgUoe0ORfpCQEigQ88OQcxd8UbRio9LjqeXdRY9g+MoFFVHIygtzTPD49gjN5RriTFZ5Z6UaFR7I/VnCe07XdHchjC/Z7s6f4/LLi7woPxvPvSg/IO0yxvIKEAAIIIIBAItC2/pBnN2zDN7p4hyGAAAIIIIBAewTa1h96UrS3tYeXmiKAAAIIIIBACwTa1h/yfZpbWuA6yir6fvjLFb6/+bkBT5Tca/RAp7kLjvW9Mad/KyYyUGnY+1Reaem9irMUt4c6TA+vP6FHD6DaXPFXxYEKp5cqfP8siQfC9vSD2+yl8jyGwH1qt+8axRGKFdMZ9dz37jwQbLrCy+Q5JatBJefYN2xPHrzsngeO+Z7cgwrb+efL9wA9qGoeBQkBBFoq8AbV+ypF+hdN9rl/oYx6BGVL+ah2ywVYBm48F/DE8DvnG+H086d+B60/gSr5Bqt/bx2cOvZHYZsHXa7ap8x+g5Veq+M9OCn7uzF5/aj2vanPOdg9adI0IbAMHO8EBBBAoHkCLAPXvGtCjeIVYBm4eK8tLUMAgXYLsAxcu68ftW+XAMvAtet6UVsEEOiOAMvATZp0gC637/t4wo9BkwcC3RWOzxvoNKv2XRz2+/7VoGnY+1QeNOQv4xfd5/KEJjMrPqW4TuFJTZzXA4P8OgkPZEqn2fXi54qich/RvvSyeF7VyWVdnzrGA6fS59hDr5O0fypf0Tlel8rflqcnqKK+X7ZhWypMPREYtcAaOsEeCo+U9C9RP75Lsc6oT0z5CIxRgMFK9eN7KTZ3KK5WuPPm5NHTSSejisFKU0N5njlr8/+coXfqNVhpbR3qzpjrd5nCy2cuqvASc1sqpoV9/tbBJgpSsYCtGKxU7MMeBBBAYFwCDFYalzzn7aIAg5W6eNVpMwIItEGAwUptuErUMRYBBivFciVpBwIIxCbAYKVJk36ri+p7QZ75x8n3ED3rjyf98D0t/w3zNs8klJd218bkXpe/rJ/MHOQZkfx5gPd59qol8g7usW3Y+1Rzqexk4hJ/Mf8QhWeR8gAmL8X2/xQfypzfq4q4vpdktmdfHhnyudy9FB6M5EFPng0pabMHLE3JHOjZkBIr33fLS8tro++9Od93FCsrPOjLM0DZxGMZ/qDw+dqWGKzUtitGfRFAAIERCDBYaQSoPYpcSvs805GnV39ZKl+Vg5V2U7lJB+eDPeqS3tVrsNKZoTzPMDdvTnnuGJ0b8vxTj0Wd1JxDO7dpmlrMYKXOXXYajAACLRBgsFILLhJVjEaAwUrRXEoaggACkQkwWCmyC0pzGi3AYKVGXx4qhwACHRZgsNKkSf/Q9ff9Jc/m86vwPLnflH70oCbPKJSXPOjH90Gc3/fDfqjwYB2/PkuxnGLQNOx9qoPD+V2vV5Y8eZnBSh7w9Ewoe5eccj2oyMvCue3HZvaXGazkVZ98bLLEXs4pWruJwUqtvXTxV/xF8TeRFiKAQEcFvqd2e1T1FxUXjcBgI5WZ7vB4Wsxh0mQdvEUo4PN69MjwbPLAK4/edvKo7ldkM/AaAQQQQAABBBBAAAEEEEAAAQQQQAABBBBAAAEEEECg0QJLh9p9QI/bKT6t8OxDHpjkmYG+oPDgGS9r5ud5ybMy7Rl2+H7YOxRzK7x8mmcQuinvoB7bJmvfsPepPOjHycu1/SU8r+LBK6n4C/yXK36ZU6BXLUnu2b1ezwcdA+FBXk6eSGCZ8JwHBBAYscCgP6gjrg7FIxC1gP9Q3h51C5vTuL1VlW0V7pB9dkTVeo3KnUXh0elOfv2+8HwiD+kR5p5Ksiidpx0PhJ1uIwkBBBBAAIE2CTyhynoKahICCCCAAAIIINBVAX8RaXpXG0+7EUAAAQQQQAABCXjWnes7LuHZfpw8MMaDlaYqbOLPzqYrDlIcrnDygKaFw/PkwfenPMDpmLDBX9q/MDz3LERXKl6dZC75OOx9qhfrPKuFc51S8pxls3l2Uqezexzg2aqcPHBrkR758nZ5Rql7FJ6hyY7vURTNaJV3PNsQQGACAv5FVkf64xAnGfQX6RCn4lAERirgP3BLjvQMFG4BryvrKSMfV3gUuT8EHEVy+W9RuMN1gcKdP5/3dMW1EzhhMlL7QR3ba5pJj6R3+RsolprAeTgEAQQQQACBcQrMppPz7aRxXgHOjQACCCCAAALjFvAS75PHXQnOjwACCCCAAAIIjFHA96dXGOP5x31qtz+ZUOR4Pfd9pbz0JW3cT+FBM1467+SQyTMM/UzxRoVX6fC9MC/15bSZ4msK37M6VeGZl37wnz3907D3qRZPneKa/qcbKEcyE5WXvnP0S4spQ697bdnjPbOSV1A5SbGs4jsKz2hlu6MVNyhICCBQsUBdg5WY/aPiC0dxCCCQK+DO3Q8VnuZyf0Uyijo385Abv6Ljk47h2/T8UsVcih8rNlb4mwGDJNfZ6bESBz0a8ixUIi9ZEEAAAQQQQAABBBBAAAEEEEAAAQQQQAABBBBAAAEEmiHg+0ceZOQlx3rNFOTBNg4PvJmSqvrueu6BSv6y/uYKrzKSJJe3oeLbir0URym8rcxgm2HvU6Vnf/Lgn6qS7/0tEApzuZ5MYBTpEhW6uuL9in0UHiD1McVHFR4c5se7FCQEEKhIoK7BSh480Cv5l59HKa6r8LeL/At6quKqXgexDwEEEMgIrKHXHijk5FmOHL3SxWGnOzae+WqQlO4MXa0DPTjqSMXLFZ6e89ODFKa8/wr5k6k/ex3uDqyTf1eSEEAAAQQQQAABBBBAAAEEEEAAAQQQQAABBBBAAAEE2iPgJcd8r6ffUmO+d+TBSul7WO8KzTxOj+mBSknrPYjpgwpPJrKcwjMvTU129ngc9j6VVw5Jkr/cX1V6RgUlg7sO0fNkebyqyk+X48FQhyq+qthB4VmctlB40oItFb4HeIuChAACFQjUNVhpj5J1nV/5Pq74pMI/+F8veRzZEEAAAQsk02aOQ8Oj0z1F5PaKgxW/VySDocrU59aQyYOVllDcUXCQ27hS2HdTQR42I4AAAggggAACCCCAAAIIIIAAAggggAACCCCAAAIINFPgClVreYUn8uiVFg07701lSu4RXdLjQA9YOl/hwUpll9wb9j5VetahlXXev/Wo36C7btcBq4QY9NiJ5H9aB/06xHZ6/LnC9+58/++9EymQYxBA4IUC47yx/8LaTJrkEZeekeQbCt/w9zR2JARiEZihhviPKWl0Ap7haM0+sVHq9G8Oeb12bxXp3SrEnTEPBPVycIOMHD9T+d15dPJo7aLk9YbnCzvPLcrEdgQQQAABBBoq8ITqxbePGnpxqBYCCCCAAAII1CLg//tPr+VMnAQBBBBAAAEEEGimgJdBu76ZVautVqeEM+2sx2T5tezJPeAnGayUHvjj+41O6WXXssf6dXJs2SXZhr1P5cFON4eKeIBP2eT3g9NsPQ44PezbUY9epWmQlJTvY3qdo6jMU7XDy+o59RtcVlQG2xFAIEegaYOVkip+PzxhsFLORWNTawU8ReOSra19OyruDtqVfeJ/U01xZ9j5q1py0msHJ9NveoT3VwZgu195fxvyH6BHzzSXTe6AfS5svFGPZ2Qz8BoBBBBAAIGGC/gDgWUaXkeqhwACCCCAAAIIjFLA/7efPMoTUDYCCCCAAAIIINBwAX/hu+xsPw1vyoSr9ysdeZ/CA4q+UFDK1LDdq2ykZ1FKnnt5tzkLjl1d2zcN+/5SkCe7uYr7VL8Ihb5VjxtkT1Dw2kviOU1RFLXHEwQ4+T7rF8PzooeZMjt87zAZsGWXvDRz3sbUtuSeXdmBX32KYzcCCFigqYOVbgiXZy0uEwIIINAyAS//dmSo8/v16DWBy6YPK+MDCnfIzlZ4WbkFFF63eBPFaQrPDPWswmV7nV4SAggggAACCCCAAAIIIIAAAggggAACCCCAAAIIIIBAewQ8UOkTobof0uOPFF4FZCHF+opfKt4S9nvpMS9LlqTD9cT3iVZV/E7hQUHJPX8f7y/V+8vuHiR/jcJllU3D3qfywKvbFB6Q9mfFRxUvUSytWEextyKZVUpP/5MuCI/z6PFohQdw+QuPqymSQUQX6vkRIZ/L9BJtr1IsrlhM4UFIngTFHp9XZFNyjn21YyuFbTwz1bIho1disZntPJDOnh709GLFRxTvUTi5fBICCEQu4PUz/Uv28cjbSfO6JbCrmnt8hU0+T2V56kJmJxgM1YN//PvF4Q7foOnOcKw7h0XJI789W5PP4U6ZO4dJ8lSV3n5salv66cv0wsckdcw+evmcPQqOZfN/BabpqX8+JoOCAAIIINAoAU/VfFKFNfKHCP59v1KFZVIUArEIeKC7fz784SUJAQQQQKA5AtuoKl5Koqrksvz7fs2qCqQcBCIS+E34+fDNURICCCCAQHMEPONPlStHnKjy3B8qO5NPcyQmTTpQlcneB0q/TlbbyNZ5L23wffQkr58/nCnLA5VWzB5Y4vWw96m8VNqNmbqk2+Qv7WfTnwryewBTkmbXk2MK8qXLPyxbuF5vpvByzFnrJO9umX0eHJbN7363Bzm1LZ2gCvvnY8O2VZz6xi/Q1JmVdgr0HhRAQgABBNom8Jgq/DaFBxZ5SkqPBC+bLlJGzyp3kOIyxYMKl+dOpUeNeyT5cQoSAggggAACCCCAAAIIIIAAAggggAACCCCAAAIIIIBAewU8E9ErFB5Q4uXefF/pLoWXidtccbAiL31HG30v6RuKyxUerOQv0nvGpnMUnkHIg3WvUwyahr1P5XtbPvf+Cs+IdK/Cg3/86NmWvHJINr1OGw5VePUlDxLyknRuhz2S5Da+V7G54kcKt833z5zndoUHPLndecvEeTUTz6jkQXIPKVyWB1TZzulkxTsVf1C4LA/u8cCmOxQepOSZl7ZXuG4kBBCIUMADpzxDjKdSe1ThXwDJ+pMRNpcmdVDAMwnkjeadKAUzK01UjuO6IDBNjXRncnIXGksbEUAAgRYJvFp19YcoVSVmVqpKknJiFGBmpRivKm1CAIEYBLZQI5Ll46toDzMrVaFIGbEKMLNSrFeWdiGAQNsFNlIDjq2wEW2eWalCBopCIFeAmZVyWdjYBAGvF1lH8g3jfsnrPqZnevKIRo+gJCEQi8AcasgSsTSGdiCAAAIIIIAAAhMQ8HrzS0/gOA5BAAEEEEAAAQRiEfDSEcvF0hjagQACCCCAAAIITEDA96enTOA4DkEAAQQQiEigrmXgZpZZv0jXxVO87aC4IiJrmoIAAggggAACCCCAAAIIIIAAAggggAACCCCAAAIIIIAAAggggAACCCCAQKcF6ppZ6T0llL3s28OKaxVeH/KZEseQBQEEEEAAAQQQQAABBBBAAAEEEEAAAQQQQAABBBBAAAEEEEAAAQQQQAABBFoiUNdgpSrXHW0JLdVEAAEEEEAAAQQQQAABBBBAAAEEEEAAAQQQQAABBBBAAAEEEEAAAQQQQACBtEBdy8ChjgACkyY9JYTHgEAAAQQQQAABBDos8LTa/miH20/TEUAAAQQQQAAB94cegQEBBBBAAAEEEOiwgPtDXm2HhAACCCDQYYG6ZlbKI55NG+dXzKS4Oy8D2xCITMA/b3NG1iaagwACCCCAAAIIDCIwszLPPcgB5EUAAQQQQAABBCITcH9onsjaRHMQQAABBBBAAIFBBNwfmneQA8iLAAIIIBCfQN0zKy0jwq8rrlM8rvAgpasyrB68tK9if8V8mX28RAABBBBAAAEEEEAAAQQQQAABBBBAAAEEEEAAAQQQQAABBBBAAAEEEEAAgZYK1DmzvFSKJwAAIABJREFU0qtl9HOFZ1PqlZ7Vzu0UWym8RMRRvTKzDwEEEEAAAQQQQAABBBBAAAEEEEAAAQQQQAABBBBAAAEEEEAAAQQQQAABBNohUNfMSiuK41cKD1R6QHG04mM9iDyoyWmHHnmG3eW2L6ZYI8Sw5XE8Av0EZijDbf0ysR8BBBBAAAEEEIhY4Am17ZaI20fTEEAAAQQQQACBfgJPKsON/TKxHwEEEEAAAQQQiFjgKbXt+ojbR9MQQAABBEoI1DWz0gGqy5yK0xWvVzwc6vaVgjpeHLavVbB/mM0r6OADFa9TLBgKulePi6QK9VJ0n1fMpviiwvtJCAwrMIcKWGrYQjgeAQQQQAABBBBosYD7114amoQAAggggAACCHRVYFY1fEpXG0+7EUAAAQQQQAABCfj+tO/XkhBAAAEEOixQ12ClrYPxh/WYDFTqxX532JkeQNQrf9l9Oyvj8Yq5+hzgpejWVXjpOn/z+xt98rMbAQQQQAABBBBAAAEEEEAAAQQQQAABBBBAAAEEEEAAAQQQQAABBBBAAAEE+gjUtQzc4qrH04r/7VOf7G5PA1hVWkUFJQOVbtfzzyje3KPwE8O+1/TIwy4EEEAAAQQQQAABBBBAAAEEEEAAAQQQQAABBBBAAAEEEEAAAQQQQAABBBAoKVDXzEr3qT4esDSf4sESdVs95Lm5RN6yWfZTRs+odJrCMyzNCAf+vKCAZCm6NQr2sxmBQQX8nrtj0IPIjwACCCCAAAIIRCTwuNpyW0TtoSkIIIAAAggggMCgAk/qAM/kTkIAAQQQQAABBLoq4Mkqbupq42k3AggggMBzAnXNrHRBAN+9JPy+Id+pJfOXyfaqkOljekwGKvU67q6ws+ql6Hqdk31xC8yh5i0RdxNpHQIIIIAAAggg0FNgdu1dqmcOdiKAAAIIIIAAAnELzKrmLRN3E2kdAggggAACCCDQU8CTaSzXMwc7EUAAAQSiF6hrsNLhknxWcahif4X/U56XPDDoe4rtFQ8pjsjLNMFtS4fjrip5fGLj5etICCCAAAIIIIAAAggggAACCCCAAAIIIIAAAggggAACCCCAAAIIIIAAAgggMKRAXYOVzlY9D1L4m9RfUXhZOG9zmlvxY8VfFF4S4l0Kz3z0dsV0RVXp/lCQl6Irk5Kl6G4tk5k8CCCAAAIIIIAAAggggAACCCCAAAIIIIAAAggggAACCCCAAAIIIIAAAggg0FugrsFKrsUXFe8L1ZlHj5uG514aazfFRorZwrY36fG34XlVD1eGgt5YssAPhnweREVCoAqBx1VIsrxgFeVRBgIIIIAAAggg0DaBJ1Th29tWaeqLAAIIIIAAAghUKPCkyuLLkRWCUhQCCCCAAAIItE7gKdX45tbVmgojgAACCFQqUOdgpS1U88+nap/8Ibpa2/wHKb3c2o/0+lWVtnTSpKNCeV/V4y49yvaAqcMUO4U8XpaOhEAVAp5Z7MVVFEQZCCCAAAIIIIBASwXc116ypXWn2ggggAACCCCAQBUCs6qQpasoiDIQQAABBBBAAIGWCsyiei/b0rpTbQQQQACBigTqGqzk/4CfqFhIcaZiK4WXf1tOsVp4nEuPr1Gcr5hf8QtFlf9x/7XKO0Exbyj7Mj0ernDyIJJ9FR7QdKPio89tnnSkHplZKWDwgAACCCCAAAIIIIAAAggggAACCCCAAAIIIIAAAggggAACCCCAAAIIIIDAMAIeuVpH+rBO4oFKJyu8DNszOSf1khB/VJyh+JNic4WXYjsgJ+9ENj2rg3ZXPKDYS7FOCJflZem+7ichOe+3FB9LbeMpAsMKzFABdw5bCMcjgAACCCCAAAItFvCyuCwD1+ILSNURQAABBBBAYGgBfwZ6y9ClUAACCCCAAAIIINBeAS+LO7291afmCCCAAAJVCNQ1s9IOobKf0mPeQKV0W/wH6nNhw45VNDJVhm+O7K3YQOHBSVcqPHjJ6WHFPxVHKF6u8AArf3hAQqAqgUdV0OpVFUY5CCCAAAIIIIBACwUeUZ3XbGG9qTICCCCAAAIIIFCVgD+D9JcoSQgggAACCCCAQFcF3B9ar6uNp90IIIAAAs8J1DWzktcd9SClf5SET/KNar3SS1UPR5I8aKvfIKqSVScbAoUCHhjnJQdJCCCAAAIIIIBAVwXcH5qtq42n3QgggAACCCCAgATcH5oVCQQQQAABBBBAoMMC96vt9Ic6/Aag6QgggIAF6ppZybMl+VxlB0fNGS7PYzVdJgYq1QTd8dN45i6+OdfxNwHNRwABBBBAoOMC7g+t23EDmo8AAggggAAC3Ra4Xs33zNszd5uB1iOAAAIIIIBAhwVuU9uXVszdYQOajgACCHReoK7BStcE6U1Kim8R8vlmRlXp1yroqAEKW0V5L1F4uTgSAlUIeNmTmxUvqaIwykAAAQQQQAABBFoo8JTq/HcFU3238OJRZQQQQAABBBCoTOAilfSyykqjIAQQQAABBBBAoH0C9Ifad82oMQIIIFCpQF2DlTxQyOlrikX6tGBl7f9cyPPDPnkH2b2TMm89wAEe1ftSxRsHOIasCPQT+K0ybNQvE/sRQAABBBBAAIGIBX6nttEfivgC0zQEEEAAAQQQ6CtwqnLQH+rLRAYEEEAAAQQQiFjA/aENI24fTUMAAQQQ6CNQ12Clb6oetyrWUni2pK8otg+vPTjJS0F4UNB3FJcrllBcqvixYlzp2XDixcZVAc4bpcBJatV7o2wZjUIAAQQQQAABBMoJnKhs9IfKWZELAQQQQAABBOIUOEHN2jvOptEqBBBAAAEEEECglID7Q+8vlZNMCCCAAAJRCtQ1WOlh6b1W4dmKFlLsr/A3qj0wyYOX/qr4peI9ijkUf1N4JqQZinGlPcOJ7xtXBThvlAJ+b09XlF0SMUoEGoUAAggggAACnRa4Wq33UnCDzHraaTAajwACCCCAAALRCUxXi85V+MucJAQQQAABBBBAoIsCd6rRpyje0MXG02YEEEAAgUmTZqkR4QqdyzMrfUKxhyJvxqIrtf04hWdielIxTNpGBzvSaWG9OKxPobNp/xqKLUK+P/fJz24EBhX4jA74gsIfSpEQQAABBBBAAIEuCnxKjT5CQV+7i1efNiOAAAIIIICABaYqjlP4Jh0JAQQQQAABBBDoooA/HzpZ4VVJSAgggAACCNQmsILOtLnCMy69XLFUxWf+mMrzUm7DxC06ftmK60VxCFjgg4rjhqQ4T8c/pVhmyHI4vL/AAspypOIHBd4Hartnh8ubMavXvv5nJsdEBabpQP98TJ5oARyHAAIIIDByAc9kevyQZzlDx/v3/UpDlsPhCMQocFr4+Vg1xsbRJgQQQCASgberHV4id5h0qg52f2jNYQrhWAQiFfhN+PlYJ9L20SwEEEAgBoFd1IjfDtkQ96fcH9pgyHI4vL/AMPfLXqfifa280hKpPgEvueifjw3rOyVnQgABC0xRfEBxpsKDlrys3CV94gLt9xJ1HmCwiIKEwKgEdlDBHjU+0cRgpYnKDX6cfx8kAx+Pyxy+UWrf9AH2DV4LjhhEYJoyM1hpEDHyIoAAAuMR8FJwXxri1AxWGgKPQ6MXYLBS9JeYBiKAQCQCm6od3xiiLQxWGgKPQ6MXYLBS9JeYBiKAQCQCntTi2CHawmClIfAGPHSi98tm1nn+rUjutU0e8Lxkn7gAg5UmbseRIxaocxm4ETclt/gbtdXLS/gPnJ/7l+D6uTnZiED9Ah4U56URf6XYVeGBFaRmCsyTqta8mSpOdF8zW0qtEEAAAQQQqFfAy8D5W85e/uQNisfrPT1nQwABBBBAAAEExi5wjmqwnsKDTN0femTsNaICCCCAAAIIIIBAvQIX6nTuD52leL3i/npPz9kGEJjoPTGPSZgjdZ7svbYBqkBWBBBAYDiBWXX4QgrPXNQvhjvTf49+n57+vqrCKAeBCgU8w9L5ir0UgwwgZGalCi9Cn6JW0/7rFbcrNsvkdedqmuJhxX4D7Mtk5WXFAr4mzKxUMSrFIYAAAiMU2FZl+0bd+xXpDy76nZKZlfoJsb/LAsys1OWrT9sRQKCNAluq0qcrPqyYe4AGMLPSAFhk7ZwAMyt17pLTYAQQaLnAxqr/HxX7K+YboC3MrDQA1pBZJ3q/zKf9quJRhWf6mWnIenB4eQFmVipvRc6IBTw46WuKGxTJFG9lHiMmoWkIPE/gAL16THG0wjfs5urjw2ClPkDs7rTANLWewUqdfgvQeAQQaKnAx1VvDwA+RvFqRfrbWnlNYrBSngrbEHhOgMFKvBMQQACBdgp8VNV+QOHPh16rmL9PMxis1AeI3Z0WYLBSpy8/jUcAgRYL+Ivh9yrcH/IX/hfo0xYGK/UBYnenBRis1OnL3+zGv6im6vmPyAUK/3GZUtM5s6fxWpgvzm5MvfZsT29RHKr4fwpPN0hCoE6BL+lkcyo8q4A/jPKyKBcrpin+oFhZQUIAAQQQQAABBGIWcF/c00B7EJIHb/9J8VfFuQr3h7yELgkBBBBAAAEEEIhZwN8492epnmVpK4VnF7hc4S+tuT+0voKEAAIIIIAAAgjELPB1NW5hhftBXu3Cj1cpvEqJ+0OegYmEAAIIINBygUGWnBqmqf6G9EqhAN94+LniJsWTwxQ64LGeSvkUxZGK7FJNs2ubb4Rsmipzqp4frPhCahtPERi1wEt0Ag9K8vKI9yk809IMhWeIeWbUJ6d8BBBAAAEEEECgAQKrqg6rKBZVPKi4Q/Fvhf/vUOf/HxpAQRUQQAABBBBAoKMC/hx1RYU/H3pEcZfCS2Y8rvBnRCQEEEAAAQQQQCB2AU9+4T7RYgrfJ7tb4f5Qct8s9vbTPgQQQCB6gboGK+0YJH+gx3eNSfXNOu9sBec+RNuTgUqeAcrroHrQyOcVHlx1YcFxbEagKoGXq6B3K9ZR/EjxY8X1VRVOOQgggAACCCCAQAsEXqo67qXw43GKTyuubUG9qSICCCCAAAIIIFCVwNoqaG/FhorvK/zZ5D+rKpxyEEAAAQQQQACBFgisoTq+7/+zdyfwt031/8cNuWaSebh8yZQhFDJGEopCFJXQqKJU0q9f069JVBLRYMpQhG5FJUn4Er9UKkXG6Jrn+ZLhXv7v96+1/x3HGfY5Z+999lr7tR6Pj/M9e6+99lrPdc65y9nrrK3wddtjFQcrromg3lQRAQQQQGBAgaomK60U6nX4gPUrMnu2JOBP2wpdRM/3D9s+pcdsJaXj9bcnVvkfRCYrFdkTlNUu8E1t8O1OjlF4CUsSAggggAACCCDQNAHf7sQrB/hLqH2a1njaiwACCCCAAAIISOAQxdIK/9jT30eSEEAAAQQQQACBpgl8UQ1eQeEf9e/btMbTXgQQQKBpAnNU1OBnw3mmV3S+TqdZLmy8om3n3nq+gMK/UvKXAln6Svhj05Zt/IlA0QIXqkC/Jt+hYKJS0bqUhwACCCCAAAIxCFygSl6v2EtxSQwVpo4IIIAAAggggEDBAuepvNsUHg9NFlw2xSGAAAIIIIAAAjEInKtKPqDYU/GbGCpMHRFAAAEE4hD4q6rpCUu+v+i4ku9n6jq0T9C6Nmxv/8WSV52apXh8XBXmvMkL/EgtXHuEVj4cXrt+XRMY8Bro/BpgwukIHzIcigACCFQg8AOdw7fDHTbdrwP5NxADXgO9XwPbDfsG4zgEEEAAgUoEvLLkq0Y40906ln8LMeA10Ps18OYR3mMcigACCCBQvsBROsXrRzjNrTqWfwsx4DXQ+zXgO0qREKiVQFW3gZumVr9UsYPiyDEJ3K7z+nZ0SyjuCnXYVo+rKWYoTmmr10w9f0YxV9t2niJQhMCpKsT32b1yhML8GnXy69T/AJMQQOA/Ap6YOrvCk05JCCCAAAL1FDhJ1fq2YpRbLjMeqmffUqt6CDAeqkc/UAsEEECgl4AnKv1QcWGvTH32PR328/1QHyh2N1IgGw9l/9/QSAQajQACCNRcwN8N/Vxxzgj1ZDw0Ah6HJi/A90PJdzEN7CcwvzLcoHhQsUW/zCXt/5nK9YSO/UP5U/R4edjmGbvtaamw7772HTxHYESBD+n4L49Yhg/3bVL8P9pTCyiLIhBITWAyvD8mUmsY7UEAAQQSEXiv2nFYAW05X2V4PLRKAWVRBAKpCXgJfb8/Vk+tYbQHAQQQSERgL7XjWwW05WyV4c/7UVbvLqAaFIFALQXOCu+PdWtZOyqFAAIIILCbCI4vgMGLZng8tEEBZVEEAqkJnB7eHxul1jDaE79AVSsr/UtUb1f8QjGpuDQ83qLHfrdZ860hikj+pZKXEPyaYjOFL2iso/D5v9LhBM7jdF2HfWxCYFiBuXXgGxRbD1sAxyGAAAIIIIAAApELeOW73RWvjrwdVB8BBBBAAAEEEBhFwN+Vvm6UAjgWAQQQQAABBBCIXGBv1d8TlkgIIIAAAg0UqGqykicEeZJGljbVH448qajJSv6VkSdL+VZ0u4YTe6WlfRW+l2l7emPY4F9fkBAoSmBvFfTXogqjHAQQQAABBBBAIEIBryJwtYLb2EbYeVQZAQQQQAABBAoR8MTt6YqnCimNQhBAAAEEEEAAgfgEdlaVfXebR+KrOjVGAAEEEChCoKrJSj7PrCIqPEIZvm/7Tgr/amkTxQzFGYrLOpQ5p7Y9oPDSg0VNlupwGjY1UMArCHy1ge2myQgggAACCCCAQCbg8dDRcCCAAAIIIIAAAg0WeI3afmqD20/TEUAAAQQQQACBbURwGgwIIIAAAs0VqHKyUh2UPWHqxBC96uN8+/XKwL7SBTxhbDHF3V3ONJe2e4Ws9RSeeOZVs/7cJW+dNr9WlWFJyzr1CHVBAAEEEECgvgKpjoe2E/l768tOzRBAAAEEEECgRgKpjod8ce5jNXKmKggggAACCCBQX4FUx0OevP35+rJTMwQQQAABBBBoqoAHKU8qvtEBwLcUvEjhW4dk4ZWzPtkhb502ra3KFPmruUtU3kzF1Do1krogUBOByfD+mKhJfagGAgggMIxAiuOh1QQxbRiMLsecr+0eD63SZT+bEWiywLnh/bF6kxFoOwIIRC+Q4nhoBfXKWQX2zNnh897fO5EQQOC5An6v+f8X1gUGAQQQiFggxfHQUuoPj2GKSv6uyZ/3GxRVIOUgkJDA6eH9sVFCbaIpiQjMkUg7aEZ6ArurSVO6NOsz2v7KsM+38btaMbviIMUruhxTh80vUiUWrkNFqAMCCCCAAAIIRCGQ4nhoEcm/MAp9KokAAggggAACdRBIdTy0aB1wqQMCCCCAAAIIRCGQ4njI3w0tEYU+lUQAAQQQKE1g3JOVllXLvDqMo6j0IRX0e0X7KjvHaduwUVTdKCe/wGYh60/bDvEFrv3Dtk/pcWPFmorvhW3vb8tfp6cLqDLX1KlCkdXlTaqvV094UPGE4kbFUYqJktqxaSj/7+GcT+nxLsWvFHsoPEGuzOTbdB6p8Ophbi8JAQQQQKB5AqmOhzzRnIQAAggggAACCOQRSHE8tKAafmWexpMHAQQQQAABBBCQQIrjIf+w/28N7l3fQeZAxZ8VjylmKP6q+LRivhJddlXZXnXwDoWveT2k+F/FAQOcd3HlvVjha1e+XtYv/STkbb1bTvvfvvZWZtpbhfs6m8+7UZknomwEEIhLYOXwweAPh6KSP9CzD7l5Wgpt/+Ab5HlRdaOc/AL+x9l9tFDbIR8J26/VY+tku1XD9hvyn6LynLvojCcVeNYm3QbumNC/nd63nry0eYGuL1ZZnhTV6Vyt236hPHMVeN7WovwLywta6sBkpcGhJ3XITMXE4IdyBAIIIFAbgRTHQztI97QChbkNXIGYFJWcALeBS65LaRACjRRIcTy0tXryzAJ782yV5f//5TZwBaJSVDIC3AYuma6kIQg0WiDF8ZCv6ZxTYK/GdBs4T9T6o6LbNai/a9+SBdq4KE+O8jWt1nM+3fbcCwSs1Oe8vq3qzS3H5ZmsdFHbeTq1u6zJSnPq3Ie1nb+Jk5W4DVyfFza7xyfglTtSS15p5W0Kf+i2XuD3hQxSPAL+B8TJk89a0z7hyRF6fKZlx03huVfrIqUl8B41x+F0guKbirsVL1UcrFhP4YHoWop7FaOmTVTAVopZihMVpyq8ItaTitUUByp2Vmyv+KziM4oik9vxM8WKinsULIVapC5lIYAAAnEJMB6Kq7+oLQIIIIAAAggUL8B4qHhTSkQAAQQQQACBuAQYD8XVX/1q+21lWF/hlY18jcnXt/y3r0sdqlhD8cPwXA+FpM+pFF/T8kShLymOVtyueJHiTYqvKDxRydfDuk3mcb4TFV75aZBrV9ntj31t7TeKTskTp4pOvlOPfzC5jeI+hetR9h1Tim4D5SGAQMkCZaysVHKVKb4iAc/g9T+aS7Wcb9uw7VE9tq+45Gz+x6yMf9BaqjDSn15JwJNrikpNWFnJEyo9YPJr4eQOcH4d3BL2H9Jh/7CbPAHJk4Y6JQ9mPOPfdfIAp3WFr075B9m2kzL79e2yL1Z4NS7/zcpKgyj+O++kHlhZaXA3jkAAgXoJpDgeeo2Iv14gs3+Q4M/7VQosk6IQSEWAlZVS6UnagUCzBVIcD22hLvWP8IpKrKxUlCTlpCjAykop9iptQqB5AimOhzwh5jsFdqUn/Pj7oQ0KLLOMojwRyQsx+LrPOzucwJOY3A7v367D/mE3+Yf+LrPbd3JvDfudZ/W2k/ia2Bda9h+uvw8Kz/OsrHRnyOvJWFWll+hE14fz+hqjV4Ry2xzdJmNVVbdxnIeVlcahzjlzCRR5kT3XCcmEQE4BL3PotFt4nKJH/+Pn5FupPRL+zh48qckTWx5u216np15mcZk6VSiCuvgLvMzMg6H25NeBZ5o7vUtR1GfaF1XWVaHc9gcPZjy73MkzsYvqU79+PXt9AYVne/tibp0n37n9JAQQQACBcgVSHQ+xEma5rxtKRwABBBBAICWBFMdDc6mDVkipk2gLAggggAACCJQqkOp4aKJUtXoW/hZVy5N/blGc0KGKl2ub77zh9N4O+4fZ5JWQFgsH+kdNnVLr9om2DF545OMKT7I6QPFhxbydCumyzas3Od3fZX8Zmz+mQv3Dxr8pPDnJd+chIYBADQWKurBfw6ZRpcgFjg31/5oef6T4g+LliscVntDRnjYLG65r38HzqAU2DrX3bdj+0aUl/oWUkwdbG7blOU7PH1Oc2LZ91KdeUSlL7ctGetKUJ835NetlJvMmz5b3QPXzCs9if1LhLzBJCCCAAALNFWA81Ny+p+UIIIAAAggg8G8BxkO8EhBAAAEEEECg6QKMh9J5BWTXvLwypn8Y3yll17y21s7Wa0QL6/nvFb7+9L5OB3bZ5uuqM8K+BbvkySYzeXf7pKIbtO2Dip0Vh4Xj81678vm8GIVTe7lhc9eHYdvrAj+iOFrha8e3KvLWt2tl2IEAAuUIjHuykj8c/aGbffCW00pKjVHA/1D/QuF/QHZVrKPwP9z7KvwPS3t6Y9jAa6ldJu7nXprR6S89mnGz9mWTh9ZrybeE/vbEIc8a30sxtUcZg+7aNBzwkB5vbzvYM8t9ezovN7rDgAX/Wfk/p8gGqe0ToQYsjuwIIIAAApELMB6KvAOpPgIIIIAAAgiMLMB4aGRCCkAAAQQQQACByAUYD0XegS3V97VOp17XvLy6kpMn+nhVoyxtqz/8g31ffzqwZXuePy8MmTzpyHf5aE8fCBt8ve1P7Tv13BPmshWfvDvvtSvfnSRLg05WGqW9viuLJ3Q9Gk6et74t1eVPBBCoQqDTB1IV583OcZf+2KngE3ZbfWWU07T+YzBKORybX8DLCfq18XbFJgpPbDtDcVmHIubUtgcUxyt+0GF/XTa5TbPqUplI6rFiqKcHSL2Sl8z0zG8v65ilf+kPr1bkzzm7e4WlItLaKuRDoaDv6tH92ppab1HY+ncR56YMBBBAAIFmCTAealZ/01oEEEAAAQQQeL4A46Hnm7AFAQQQQAABBJolkOJ4yD/Ybr+2knqvevJRtoJRr2terft8zct3HnEa5drTf+v4rRRbKM5RvF/h6+lzK76k8DWvpxReAKDIfskmK/l6ncPJ13TzXCsdpb3hVDwggEDdBcY9WakMnxeXUShljkXA/1idGKJXBZxvv14ZarLPK5n5H2FSfgEv8+jUb8b1vSFf61KVnjHtFZV2U/hWgp7QNmjyDHX3mwdsKyi8UtJHFfMrTlb8j6I9efWvTyquVfy8fSfPEUAAAQQQGFCA8dCAYGRHAAEEEEAAgeQEGA8l16U0CAEEEEAAAQQGFEhtPOSVbsZ9958Bu2Dk7Nn1LhfU65qXF294UuHrUq3XvM7Vc08sWkNxiAsZIP1deV+rOFOxtcIToHzdzLdJm6r4p+IdiosURaZsspLnI1ypWF7hSVt+PfsuOj7fUYpOqzmN0l4VSUIAgRgEypisNK8ans2OHIfBZ8ZxUs5ZuMChKtGr5XhZwemFl06BsQh40OL0RJ8KZ/sXaMt3qp47hk1X68Bl2w6+QM+/qvBAqVPyoGqXTjvYhgACCCCAwIACjIcGBCM7AggggAACCCQnwHgouS6lQQgggAACCCAwoADjoQHBapo9u97l6uW55uXJSq3XvLwa1SjXwH+r41+p+INiPsVbXBGlhxWeyHRdeF7kw9MqzBOT5lKs1VKw5yf4ziqOPRVfUHy+Zb//HLW9bcXxFAEE6ihQ9GSl09XINyvOU2zT0uBRbs228oBwnlVKil/ggNAEz7SdHn9z/q8F/gfZM6JJ+QXyzqz3LHynIpen7FZLL5XpmebHKw5TeLBFQgABBBBAoAyBFMdDvkWrVz8kIYAAAggggAACeQRSHA/5uwtuG5+n98mDAAIIIIAAAhZIcTzk62VNGw/lvd7lPi/jmpev339T4YlKtyn+rNhe4RWfLld8TuFrXp4kVFS6UAWtr/AKUTcqfJcU325roxomAAAgAElEQVRuKcUWCt+lZHXF5xQ3K05UkBBAoEECRU9W2i7Y+WK+Z3x6mTonbs0WIHjILfCgci6iqGLySe5KjZjRt4BrX/lnxCKTP/wxtdCDmHn6tNSfN05FD26XC+VO0aPrsbbCt5XbS+FlNl+l8GDOA2sSAggggAACRQukOB7y/3+0/pKsaDPKQwABBBBAAIG0BFIcD/lClW87T0IAAQQQQAABBPIIpDge8vWypo2HfL0rS1Vf8/qgTuyJSp6I5EU/DlJ4dSdfv/ffvu7lFbzWVLxTUWS6okNhvrPO9xVnKX6v8ISl/1Gc2CEvmxBAIGGBoicr+QK+b390jiKbqGS+UZalK5vft63bNJzkN2WfjPJzC3gZwm0VGyl8z1JSMwXuV7NXUCzap/nZfXuLnqyUndYzve8I4du//ULxY4Vfo29VeFBFQgABBBBAoGgBxkNFi1IeAggggAACCMQmwHgoth6jvggggAACCCBQtADjoaJFx1Oer3dlqdc1Ly96UOQP9FdVeV8PJ95fj0e21MOrHe2u+JXie4p3KHyt/NSWPGX+6Wt6Xw3nntCjY3qZJ6RsBBBAoG4CK6tCnknqINVHYANVxRNE7lIsW59qjVQTT+Q7aaQSnnvwJXrqW6n4lmSpptPUML83T+nTwHtCvv365Cty99U56zbKOXcN5+h3/+JRzpHqsZNqmN8fE6k2kHYhgEAjBFIcD+2gnvO/70Wl81WQP+9XKapAykEgIQFPsvf7w79QJCGAAAKxCqQ4HtpanXFmgR1ytsry571XgyYhgMBzBbxig98f6wKDAAIIRCyQ4nhoc/WHF74oKk1TQf68t1Wdk695+prXe3pUco2Qx/nW6pEv764vhPKu1WN2e7lOx/o6nM852Wln27ajQl5Pcho1+TZx2XX6svrPCx5k5/AiGU1Lp6vBfn80se1N6+vo2jvI/TGjaxwVjlrgj6q9lx30bUK8stKWUbeGyg8r4HvmOq3Xo4DltW/xsD/L3yN7YbvuDiU1banSwgApCAEEEECgrwDjob5EZEAAAQQQQACBxAUYDyXewTQPAQQQQAABBPoKMB7qSxRNhjzXvDx5x+lfimsKaFn2Az+fu9fCHReHc/nWcFWmbBUpn/PRKk/MuRBAYPwCRd8GbvwtogapCGS35jtWDfKyhBcqrldcqXioTyPf3Wf/uHbP0okfH9fJIz2vfw3+FcVLFB4geUnK9vSGsMEDt073vm3PX8RzT/TMfqHue+uSEEAAAQQQKEOA8VAZqpSJAAIIIIAAAjEJpDoeeiymTqCuCCCAAAIIIDBWAcZDY+Uv9OS+5vVaxfYKr3LUafJQds3Lt//zdcVRU3bnjl63nvM5skUBZox6wgGPz17fPu9NAx5LdgQQiFyAyUqRd2DC1fctztqT76vq6JfqOllpTlV8vn6VZ/9zBP6qZ5crPJP8s4q92ny88taBYdtP9FjEZLClVc6dbedpf+oJdEuFjT9v38lzBBBAAAEEChJgPFQQJMUggAACCCCAQLQCqY6H5o+2R6g4AggggAACCFQtwHioavHyzneqij5Y4TuG7K04oe1UL9PzncK2H7TtG/apr7H5XK9UeGGATqs1eWyaXX+7dNgTdTiu3/W2lXTMx8JxvpXfUx3KYBMCCCQswGSlhDs38qadH3n9qX5xAp9WUb538Z4K31P1CMU9irUVhyg8qPPMcN93tz150pEnFV2m2Lh9Z5fnP9N2fzb+UPG/Cs/k9i8ePVhbU7GH4u0KpwsUngnfmnzc7grPePct4oqYQNV2Cp4igAACCDREgPFQQzqaZiKAAAIIIIBAVwHGQ11p2IEAAggggAACDRFgPJROR9+rphyu+G/FdxVezSibpLOV/v66wgsfXKs4WdGaVgvbvc3XxlxGnuRJT14MYAnF2Qr/GP88ha+reYGFTRRfVayseFJxqKKo9AsVdLfCP/r3pKnbFb5zyYRiB8W+igUUvub3GUVrGra9bcXwFAEE6izAZKU6906z67Z1s5tP61sEPBnIE5a+pHhniFagp/XkHQrfJrA1eUnLbPWj37bt6/XUy26uG6JXPk+gequifZnOtcJBvv8vE5V6CbIPAQQQQKCfAOOhfkLsRwABBBBAAIHUBRgPpd7DtA8BBBBAAAEE+gkwHuonFNd+Txx6qcK3gvtKiNYWeHLPLor2VYaya0/OO8g1r4eV37eW8w/1VwyPz+jRt13zD+6z9Kj+eJvCE6WKSr7VnW975+iW/qEdbu9tbRmGbW+387AdAQRqKMBkpdlmu0X9sl4N+4YqpSfgGcl3pNesSlr0ZZ3F9+f1jO8NFYsoPAP9IoVnfF+haE/rtGzwLeLyptcpo5e79P8ATCg8s90DNg/oPEj0Epg/Vvxa0Z7m1gbP9nYa5Jzt5fAcAQQQQACBVAU8Hmr/8iHVttIuBBBAAAEEEECgk4B/dOXvI0kIIIAAAggggEBTBTwemt7QxvsOIp489G6Ff4jvW7PNq7hZ4ZWIvGqSVxpqT9k1r0e0Y9DVtn6vY3yefRSeJOW/fd3LE5Y8WciLBhylKPo7O59rb8WrFT6nFxnwBKb7Fb6u91PFDxT/UrSnUdrbXhbPEUAAAQQQaLyAZwafVKDCJSrLg5qpBZaZUlEHqjFe9eifFTZqg3BOz0r3DHXS+AQmdWq/PybGVwXOjAACCCDQQcBLPJ/WYfuwm/zljD/vVxm2AI5DIGEBf9no98fqCbeRpiGAAAIxCvjHUWcWWHHfzsOf92sXWCZFIZCKwFnh/eFV1EkIIIAAAvUR2FxV8d0rikrTVJDHQ75Gk2rymM/XvE5ItYFt7Wpae8vs1tNVuN8fG5V5EspGYBgB3xeShAACCKQosH5o1IkVNi47p1d8qnKSVIVN5FQIIIAAAggggAACCCCAAAIIIIAAAggggAACCCCAAAIVCrw8nOvECs85zlM1rb3jtObcCIxNoG63gZtPEr41xKwRRDbRsTsq/CvSC1rK2WOEMr0EHalagV+NcLrtRjiWQ9MR8GeBP0uqnGXuczodlw4jLUEAAQQQGKMA46Ex4nNqBBBAAAEEEKiFAOOhWnQDlUAAAQQQQACBMQowHhojfk1O/WLVY0nFDYqLa1KnMqvRtPaWaUnZCNRaoKrJSstK4b8U31Jc10HE96w8TLGqwvcp9dJ/H1QMc/92L+26mOJDihcqPPnJ6fvhcZgHJisNozbaMduOdjhHN1zA731/1nhpw2E+R4ble0oHemnKHw1bAMchgAACCCDQIsB4iJcDAggggAACCDRdgPFQ018BtB8BBBBAAAEEGA/xGlhOBOcrTlL4VnCpp6a1N/X+pH0IdBWoarLSbqqBJx+trtimrTYb6rnv057VZS79/QbFGop1FI+35e/39O/KsIXieoUnDmRplNWa+p2T/cUL+B/cXml+7VxesZ7Cr5lHFZ9TXN3roDHv8/1AXU9S+QIP6RRbl3+a553hXc/bwgYEEEAAAQSGF0h1PPTI8CQciQACCCCAAAINE0hxPOTvKP29BQkBBBBAAAEEEMgjwHgoj1LaeS5S8xxNSU1rb1P6lXYiMDaBSZ3ZMz3f3aEGvwv7PMnEs4PfrLgjbPtoh/z9NnnSk5eHm9IvI/uTEFhYrThI8Yzi54rZa9yqXVS3foPKQap/iTJ7AtTUQQ4iLwINEZgM74+JhrSXZiKAQLMFYhoP7aCuOq3A7vKvyjweWqXAMikKgVQEfGt0vz/8oyESAgggkLpATOMh/7jKP9wsKnmFZ3/er11UgZSDQEICvguD3x/rJtQmmoIAAgh0E4hpPLS5GuG77BSVpqkgf95vUFSBlINAQgK+C43fHxsl1CaakojAHBW1Y81wngvazrdZeGP41m87Kfxl6hkKr8LktHN4HOTBb7YbFa2rKg1yPHnjEnhY1f2U4giFL37tFVf1qS0CCCCAAAIIIDCyAOOhkQkpAAEEEEAAAQQiF2A8FHkHUn0EEEAAAQQQGFmA8dDIhBSAAAIIIFClQFWTlV4YGnVzW+PeH56fokffti1L54U/XtKWn6cIdBP4XtjBZKVuQmxHAAEEEEAAgdQFGA+l3sO0DwEEEEAAAQT6CTAe6ifEfgQQQAABBBBIXYDxUOo9TPsQQACBRASqmqyU3Ye99dZsS8jQt8Vy+nab5yN67pWRvGQhCYE8AjeFTC/Nk3lMebyC2P1jOjenRQABBBBAAIH0BWIYD3kVVMZD6b8WaSECCCCAAALjEohlPHTvuIA4LwIIIIAAAggkLxDLeOju5HuCBiKAAAII9BSoarLSraEWrRNJPqxtcyv+pPhjWy09qcnBrdx6dh87WwQWC38vUGOVuVS3RWtcP6qGAAIIIIAAAnELxDAeeoGIGQ/F/Tqj9ggggAACCNRZIJbx0OJ1RqRuCCCAAAIIIBC1QCzjoSWjVqbyCCCAAAIjC1Q1WemXoaaH6nFNxW6Kj4ZtX+3QimxS050d9rEJgU4CO4aNd3XayTYEEEAAAQQQQKABAoyHGtDJNBEBBBBAAAEEegowHurJw04EEEAAAQQQaIAA46EGdDJNRAABBFIQ8C+bq0i+zZtXUtpMcVXLCX+rv6d1qMC2YdvvOuxjEwKZgCfbLat4k+KLYePFDeJZW22dU3FLg9pMUxEYVMCfEdMHPYj8CCCAQEQCTR8Prau+8njo+oj6jKoiULXAhE54bdUn5XwIIIBAhQJNHw+tL2uPh/5WoTmnQiA2gVVV4StiqzT1RQABBAYQaPp46BWy8njoDwOYkRWBpgmsoQZf1rRG0956C1Q1WekOMbxBcZxixUByjh73VDzTRjS7nu8Rtp3Sto+nzRGYmaOpfq20rg72pJ53WqkrR1FRZsmM/B56NsoWUGkEyhPwZ4M/I2aVdwpKRgABBEoXYDzUn5jxUH8jcjRXgPFQc/ueliOQkgDjof69+XTIwvdD/a3I0TyBbDyU57OkeTq0GAEEYhHI8xnW9OtljIdieTVTz3EI8P3QONQ5Zy0F/I/lMoqFetTOb5jlQrROROlxCLsSFPDkm0HiRuV/Tc0ddlD9DimwjpeoLA9SpxZYJkUhkIrAZHh/TKTSINqBAAKNFBhkLOS8MYyHPF47rMDePF9leTy0SoFlUhQCqQicG94fq6fSINqBAAKNFEhxPPRK9eSRBfbm2eHz3itwkxBA4LkCZ4X3h1dkJSGAAAKxCqQ4HtpInXF0gR3iu/j4+6ENCiyTohBIReD08P7w+46EQK0EqlpZKWu0/0H1Kku9kn8FdFuvDOxrhMB7crTSr6dHFTco/qpoX6UrRxGVZplbZ1u60jNyMgQQQAABBBCIWSDV8ZB/vEBCAAEEEEAAAQTyCKQ4HpqihvPDszy9Tx4EEEAAAQQQsECK46G51K7l6V4EEEAAgWYLVD1ZKdP2ikmLKZYIG65qdjfQ+g4Cx3XYxiYEEEAAAQQQQKBJAoyHmtTbtBUBBBBAAAEEOgkwHuqkwjYEEEAAAQQQaJIA46Em9TZtRQABBBokUPVkpRfL9pOKnRWLBOf79eiJS1nyreIOUvhXRgcrvL/I5Dr49hO+1dw8OQv+WM58ZEMAAQQQQAABBBBAAAEEEEAAAQQQQAABBBBAAAEEEEAAAQQQQAABBBBAAIEuAlVOVtpJdThFMV+XumSbfWuv9RTbKW5VHNEn/yC7D1Xmjyi8stMgiclKg2iVkzeF1bieFs195fBQKgIIIIAAAgg0QIDxUAM6mSYigAACCCCAQE+BFMZDM9XCu3u2kp0IIIAAAggggEB3AcZD3W3YgwACCCAQkcCgk3aGbdpqOjCbqHSH/v6CYvcehU0L+17bI8+gu96qAw5QuM0zFL9XnB8K8epNlyquUPwrbLtdj86/VXjOw3gEvBLW8QpP8vEXOVcqJtuq4tW4vqzwZLRF2/bV6anvwdu6ilid6kZdEEAAAQQQQKC+AoyH6ts31AwBBBBAAAEEqhFIaTzkH48uWQ0bZ0EAAQQQQACBhAQYDyXUmTQFAQQQQGC22apaWcmrGXlFpXMVXmHpiYB/WpdO+GPYvlaX/cNsfnc46Jd6fLPisfDcKzlNKnYNz+fV438rPqPw3xeG7TxUL1CH1biqbzVnRAABBBBAAAEE/iPAeIhXAwIIIIAAAgg0XYDxUNNfAbQfAQQQQAABBBgP8RpAAAEEEEhOoKqVlV4d5A7UYzZRqRdmthRykavQrBtO6NWSsolKnerglZU+qzhD8SXFtp0ysa10gTqsxlV6IzkBAggggAACCCDQQ4DxUA8cdiGAAAIIIIBAIwQYDzWim2kkAggggAACCPQQYDzUA4ddCCCAAALxClS1stJygejqnFTZJKpZOfPnybaQMvme8Ne3ZfY5fHuu9vQVbfAKTPsrvCIUqVqBOqzGVXSLn1GB2W0Giy6b8hBAAAEEEEAgPYEUx0Mee+f58UJ6vUmLEEAAAQQQQGAYgVTHQ3w/NMyrgWMQQAABBBBopkCK4yGulzXztUyrEUAAgecIVLWy0oPhrJ4wlCetGTLdlidzzjwzlG/OEK2HePviHcrwxCr/Y/myDvvYVL5AHVbjKrqVfr/51oIkBBBAAAEEEEAgj0CK4yGPx+fJ03jyIIAAAggggAACEkh1PMT3Q7y8EUAAAQQQQCCvQIrjIa6X5e198iGAAAIJC1Q1WemqYLhrTsv9Qr5Lc+bPk+0GZZpd8dK2zNP1fC1Fp9WVnP9FeQonT+ECdViNq/BGUSACCCCAAAIIIDCAAOOhAbDIigACCCCAAAJJCjAeSrJbaRQCCCCAAAIIDCDAeGgALLIigAACCMQjUNVkpe8Ekq/r8U09eKZo36GKHUOe43vkHXTXZDhgt7YD/6DnCyre37bd9fRkpfvbtvO0GoE6rMZVTUs5CwIIIIAAAggg0FmA8VBnF7YigAACCCCAQHMEGA81p69pKQIIIIAAAgh0FmA81NmFrQgggAACkQtUNVnpTDmdrvCkoDMUf1EcHuzm1uOHFZ7Q9E/FAWH7t/VY5MpKPwjl7hAes4dTwh/f0KPz7K84UnFc2P6btvw8rUagDqtxFd3Sp1TgPUUXSnkIIIAAAgggkKxAquOhu5PtMRqGAAIIIIAAAkULpDgemimkO4qGojwEEEAAAQQQSFaA8VCyXUvDEEAAAQSqEvCkpO8qnlE82yO8/wiFV1kqOr1GBboe7elkbehUp0e0fZX2zDyvRGDn0Cfug9bVuNxP97XUIFuNK+u/TSup3XAn2UWHnTTcoR2PukRb/QXX1I572YhAswUmw/tjotkMtB4BBCIXSHE85B8OnFZgv5yvsjweYsxeICpFJSNwbnh/rJ5Mi2gIAgg0USDF8dDW6kj/sLOodLYK8nho7aIKpBwEEhI4K7w/1k2oTTQFAQSaJ5DieGhzdeM5BXbltPB5v0GBZVIUAqkIeEEZ///CRqk0iHakI/CCCpvypM71PsWxircpPHHI91l9oeJRhX9R5FWMPJnjj4oy0nldCn2ntl+reLdiBYXrc7HiU4obuhzD5nIFstW4fNs+r8Z1heKicMpsNa7V9PwNimXC9qJX4yq3hZSOAAIIIIAAAgj0FmA81NuHvQgggAACCCCQvgDjofT7mBYigAACCCCAQG8BxkO9fdiLAAIIIIDA0AJV3Ypu6Apy4NgE6rAaV5GNZ2WlIjUpC4HeApPa7ZniE72zsRcBBBCovUBq4yFWVqr9S44KJiTAykoJdSZNQaDhAqmNh1hZqeEvaJpfqQArK1XKzckQQKBEgdTGQ6ysVOKLhaIRaBNgZSVeErUVqMNEId/2jYRAJ4FsNS4v2/gNhe/L+1DI6NWvrlN8S/EKxf6Kp8K+uj74tV73OtbVjnohgAACCCDQVIEUx0NPN7UzaTcCCCCAAAIIDCWQ4njIbSIhgAACCCCAAAJ5BVIcD3G9LG/vkw8BBBBIVKDK28AlSkizKhD4k87hyJIn2cU4yc31nlKBF6dAAAEEEEAAgfQEUhoPzZVe99AiBBBAAAEEEKhAIKXxkFdHICGAAAIIIIAAAoMKpDQe4nrZoL1PfgQQQCAxgaomK200gttlAx573ID582R/d55M5KlMIMaJSsbxKgIPVKbEiRBAAAEEEEAgZYFYx0O+RSfjoZRfmbQNAQQQQACB6gRiHQ/NEtF91TFxJgQQQAABBBBIWCDW8ZC/H7o34X6haQgggAACOQSqmqz0uxx16ZZl9m47umx/V5fto2xmstIoesMde6YOu1Px/pyHr6Z8pyh+q/hIzmOqzuZVBF5U9Uk5HwIIIIAAAghEK5DieMj//8F4KNqXJBVHAAEEEECgcoEUx0NzSnGxyiU5IQIIIIAAAgjEKpDieMjfDy0ea4dQbwQQQACBYgSqmqw0TG0f0kHXDXHg+UMcwyH1E9hRVbpxgGrdrrwvVyypqOtkJf9y7vEB2kRWBBBAAAEEEGi2AOOhZvc/rUcAAQQQQACB2WZLdTz0GJ2LAAIIIIAAAgjkFGA8lBOKbAgggAACcQlUNVlpxT4s82v/8opXKbyKkev1RsWFfY7rtHvrThvZlrzAs6GFS9S4pf7l3AI1rh9VQwABBBBAAIG4BWIZD3nsT0IAAQQQQAABBMoQiGU8xPdDZfQ+ZSKAAAIIIICABRgP8TpAAAEEEIhCoKrJStNzaPxdec5RfF1xseIXirUU/8xxLFkQ8CQ3pwdqTDGv6nZ1jetH1RBAAAEEEEAgboEYxkNzi3iY1VPj7hlqjwACCCCAAAJVCcQwHpoiDMZDVb0iOA8CCCCAAALNE4hhPDS7uuWG5nUNLUYAAQQQaBWoarLSIOp3K/OnFD9SHKj4wCAHkzdagW1Uc0drWlRPDu3TIn/B40ltXpXL6bw++ce12yt+vV+x6bgqwHkRQAABBBBAoPYCqY+HNlcPfEKxQe17ggoigAACCCCAwLgEUh8PbSjYQxQvHRcw50UAAQQQQACB2gukPh5aRz1wnGLV2vcEFUQAAQQQaKSAb+XlZQpvbGTrm9loT0xzn48St+p4306wbml3VejMEip1icqcqZhaQtkUiUDsApPh/TERe0OoPwIINEog5fHQzupJr6JadDpfBXo8tErRBVMeAgkInBveH6sn0BaagAACzRFIeTz0OnXjBSV05dnh837tEsqmSARiFzgrvD/Wjb0h1B8BBBolkPJ46NXqyUtL6M1p4fOeH8iVgEuR0QucHt4fG0XfEhqQnEAdV1Yy8hNBetnkxGlQN4GvaYcHE/7iZheFV0p6UnFVtwPCdl+culfxO8Uxivv65K969346of9neKeqT8z5EEAAAQQQQCA6gVTHQ+9RT3hVpddG1yNUGAEEEEAAAQSqFkh1PLSXILdXbFU1KOdDAAEEEEAAgegEUh0P7aaeeKuCO5BE95KkwggggECzBDyzzyvsPNysZtPaIDC3Hu9Q/CNykc+r/l7au6zEykplyVJuCgKTaoQnM06k0BjagAACjRRIZTz0SfXeYSX2ICsrlYhL0dELsLJS9F1IAxBovEAq46ED1JPfKrE3WVmpRFyKjl6AlZWi70IagEDjBVIZD/mH/ceX2JusrFQiLkVHL8DKStF3YboNmKOGTZtfdTo41OuaGtaPKpUv4BWVvqi4vvxTlXYGfwn1iOITpZ2BghFAAAEEEEAgZYEUxkPZJKWPptxRtA0BBBBAAAEEShNIYTzk7zgXUuxbmhIFI4AAAggggEDKAimMhz6nDlpO8a6UO4q2IYAAAggMLlDVbeA+naNqrstUhW8DtlTI/8Mcx5ElTYHvqFmOGJNnqP5ScVKMlafOCCCAAAIIIFAbgZjHQydL8beKY2ujSUUQQAABBBBAIEaBmMdDxwn8r4ojY4SnzggggAACCCBQG4GYx0NHSXG64nO10aQiCCCAAAK1EahqspJXyRk0nacDylwiedD6kH+8Akvq9C9TeCKbV9+aofCt4v6kuH+8VXvO2S/Qs68rvAQ3CQEEEEAAAQQQKFIglvHQOWr0MYqfFtl4ykIAAQQQQAABBCQQy3joTNX1tBB0HAIIIIAAAgggUKRALOMh/7Df3xGdWGTjKQsBBBBAAIFBBW7TAf3iVuW5WuH7SO+lmHPQk5A/SYEt1aqLFM92iWe0/VzFBjVo/d9Uhw0rrMclOtdMhVckIyGAwHMFJvXU748JYBBAAIEEBLZUG2IZD/1Rdd28QvPzdS5/3q9S4Tk5FQKxCPj/k/z+WD2WClNPBBBAoIfAltoXy3jI39ds3aMtRe/yD+b8eb920QVTHgIJCPhag98f6ybQFpqAAAIIbCmCWMZD/r5m+wq7bJrO5c/7OlwrrLDZnAqBXAKeOOj3x0a5cpMJAQRKF1heZ/iw4tsK/wPm21S0pwW0wUEan8CHdGpPRuo2Ual1uz9k3zmmqs6t83qVp5UqPj+TlSoG53RRCUyqtkxWiqrLqCwCCHQRiGU85Or/U1H1pAgmK3V54bAZAQkwWYmXAQIIpCIQ03joOqFXPSmCyUqpvNJpRxkCTFYqQ5UyEUBgHAIxjYd8G9xXVIzEZKWKwTldVAJMVoqqu6hsygKefPRdRfsEmPs6NHq6tnkyzBYd9rGpfAEPZLJ+ukd/H6x4uWIJxRyKhRWeAfolhW8D577yxIT1FFWmZcP5F6rypOFcTFYaAzqnjEZgUjVlslI03UVFEUCgi0As46HFVH/fotePVScmK1UtzvliEmCyUky9RV0RQKCbQCzjoQXVAH8/5e+Jqk5MVqpanPPFJMBkpZh6i7oigEA3gVjGQ1PUAP+w/8XdGlLidiYrlYhL0dELMFkp+i6kASkI+LZy/rI2W43nCf19TXjeabLSoWHfd1JofIRt8MDCfeVbqy3ap/7Laf/1If9pffIWuXsdFeZfzI0rMVlpXPKcNwaBSVWSyUox9BR1RACBXgIxjIe8kpJXVBpXYrLSuOQ5bwwCTFaKoZeoIwII9BOIYTzklbbvVHjl7XEkJlCmcLoAACAASURBVCuNQ51zxiLAZKVYeop6IoBAL4EYxkPLqAEPKMbxw37bMVmp1yuIfU0XYLJS018BtL8WAr5FmCe/PKb4oGKeUCtv6zRZyfeW9z4vV0iqXuDu4L9tzlPvEPL7y6Eqkl8fl1Zxoh7nYLJSDxx2NV5gUgJMVmr8ywAABKIXqPt4aHMJ/3HMykxWGnMHcPpaCzBZqdbdQ+UQQCCnQN3HQxuqHf6h3TgTk5XGqc+56y7AZKW69xD1QwCBPAJ1Hw/5h/1eUGCciclK49Tn3HUXYLJS3XuowfV7QUVtv62k83hFnbzpHSGj7+t6fI6Dbgh5JnLkJUvxAi8MRf4hZ9HZxKFFcuYfJdvrdPB7FZuOUgjHIoAAAggggAACfQTqPB7aSnU/ULFBnzawGwEEEEAAAQQQGEWgzuOhTdSwLyleOkoDORYBBBBAAAEEEOgjUOfx0MtU9yMVq/ZpA7sRQAABBBB4nkBVk5XGcb/29sb6FhVOnl2bJ3kFJqf58mQmT+EC96pEv258+748afaQ6Z48mUfM8wUdv/6IZXA4AggggAACCCDQT6DO46GvqvKMh/r1IPsRQAABBBBAYFSBOo+HfGHu5aM2kOMRQAABBBBAAIE+AnUeDx2juvP9UJ8OZDcCCCCAQGeBqiYredbvxoofKvz3jYqLFNMVMxRTFEsrvFKN/1F7WPFFhSegeLJKNhFFfw6dsklHPl+etFjI1OkWcXmOJ89oAn59vFXhX+ufk6Mov76cfpMj76hZ9lUBv1Nk5xy1PI5HAAEEEEAAAQQ6CdR5PPQuVfjPCv+CjoQAAggggAACCJQlUOfx0NvU6L8r1iyr8ZSLAAIIIIAAAghIoM7joTepfv9QrExPIYAAAgggUFcBTxT6q+JRxa59Krml9j+g8O2/5u6Td5Dd/vLgWcW6bQd5W6cJSR8O+S8Z5CTkLUzAX/R4davLFQv2KfVF2u/Xl/Ov1idvUbvXVkEegI0zeVKfX78EBrwGur8GuF3jOD+lODcCCIwqUPfxkJf4vkUxx6gNHeH4+3Us/w5iwGug92tguxHeYxyKAAIIjFug7uOhFQR0t2KcK7P7/PxbiAGvgd6vgTeP+8OM8yOAAAIjCNR9PLSU2ubrVYuM0MZRD71VBfBvIQa8Bnq/Bt456huN4xEoWqCqlZUOVMV9//aPKPrdhm1SeT6p+I7iQ4qvKYpIv1Qhayi+rHiDYmaPQlfUPtfB6Ywe+dhVnoAnl+2o+LHiasXRiksVtymeUPhLoAnFKxX+Zb9X7NpN4S9ollF0u2jm44tIV6qQzRQPKSbCYxHlDlJG9hp+Rgf5H2ASAgj8R8CfAV6VbxYoCCCAQMQCdR8PXS9b/xDA46FVFB6HVZ0YD1UtzvliEsjGQ/7/BRICCCAQq0Ddx0M3C3YlxXSFV4v3RO6q09PhhHw/VLU854tBIBsP9boWEEM7qCMCCDRboO7jobvUPV5UYLpiK8UNY+guxkNjQOeU0QhwvSyarqKiZQl4soknUyyX8wRTQ36vllNUWlYFPRjKvUKPOyn8j6frla2s5Nm/vsXXvWG7v2DwJBhS9QJe1tITi7IvWvrNhnW+PHmLbokn/LmevkBXdfKqX/4fbb9fSAgg8FyBST31+2MCGAQQQCBigVjGQyb2bZ7HcQuU83Vef96PYywW8UuLqjdE4Nzw/li9Ie2lmQggkKZATOMhf/85jlvknh0+770KOAkBBJ4rcFZ4f/hHFiQEEEAgVoGYxkN/EfImY4D2Qhn+fmiDMZybUyJQd4HTw/tjo7pXlPohUJaAb8/lySZz5TzBvCH/Iznz5822pTJmdXF9ssktXnnDvwhvnRDj5xvnLZh8hQv0m5w07P7CKxoK9ACs6tcLk5XK6k3KTUFgUo1gslIKPUkbEGi2wLDjnX7HlaX6exW8RVmFdymXyUpdYNiMgASYrMTLAAEEUhDoN64Zdn9ZNher4G3LKrxLuUxW6gLDZgQkwGQlXgYIIJCCwLDjnX7HlWXzaxXsO9xUmZisVKU254pNgMlKsfVYg+pb1W3gstvweAWYm3L4Lh/y+BY+RaZJFeZfGR2ueK0ia7+XP1s4nMh1/ZViP8X0sI2H6gU2r/6UI51xPR19nuKbip+PVBIHI4AAAggggAAC/xaIbTz0ClXbF8sWV/S79TN9jAACCCCAAAII5BGIbTz0SjXqx4rFFKfkaSB5EEAAAQQQQACBPgKxjYe2UXtOVXg89L0+bWM3AggggECDBaqarPQ3GW+q+KjCk4D6pSyP78NadPJkKc/o9S3gXqXwrekWVXglpTsUFyruVpDGK+BVg2JLr1GFf6jwBToGYLH1HvVFAAEEEECgfgIxjoe2F+OJCn8h9d36kVIjBBBAAAEEEIhMIMbx0C4yPlrh8dARkXlTXQQQQAABBBCon0CM46G3itE/7v8vxVfqR0qNEEAAAQTqIOAVhapIx4WT7KvHExQrdjnp0tr+bUU2WenELvmK2PyACvEvnfylwWcVhylOUzBRqQjd5pbxFjXd90D/eHMJaDkCCCCAAAIINFxgb7V/ZcWnG+5A8xFAAAEEEECguQL7qOlLKL7UXAJajgACCCCAAAINF/iQ2j9F8bWGO9B8BBBAAIEuAlVNVjpJ5/9ZqMPeevTqRtcqfLssr0RzpuKvitsU71c4/UZxbPibBwRiEvAAbB7FV2OqNHVFAAEEEEAAAQQKFPiYypqpYDWBAlEpCgEEEEAAAQSiEviUanufgtUmo+o2KosAAggggAACBQp8UWX5mrAXsiAhgAACCCDwHIGqbgP3rM76ZsWXFZ7I4fOuFqK9S57RhmMUByhmte/keXICvh3fKxR/UtzT0jrfnm/Y5Elv405fUAU+oPAA7B3jrgznRwABBBBAAIFaC6Q6HjpE6u9SnKJ4W617gMohgAACCCCAwLgFUh0PHS7YPRTTFLuOG5nzI4AAAggggECtBVIdD31H6p7A/QvFDrXuASqHAAIIIFCpQFWTldyoJxWegOTl/t6oWF+xrGJ+xeOKuxSXK36iGGWyyQ90fNHJXyqQyhH4rYpdQ+E+n1BkE9RuHeF0s49wbJGH+paGb1J4BbHXF1kwZSGAAAIIIIBAUgIpj4eOV0/5C6lzFdsm1Ws0BgEEEEAAAQSKFEh5POTvKj0eukixRZFolIUAAggggAACSQmkPB76kXrqXsVlio2S6jUagwACCCAwtECVk5WySnpSkidxlJXK+NU2k5XK6q3ZZlsgFO1Ja74tYWqraXkA5i+kfqfYuDxGSkYAAQQQQACBiAVSHw+dpb7xeOjPipdF3E9UHQEEEEAAAQTKE0h9PPQr0fkC3d8Va5bHSMkIIIAAAgggELFA6uOhSfXNuxX/UKwccT9RdQQQQACBggTGMVmpoKp3Lca/2u6UntLG+xW7KeYNGW7U482KGYopiiUV/sLAfz+sOExxjYJUnsCrVLTjUsXTLafZvLxTVl7yhTrjexUMwCqn54QIIIAAAghEIdCE8ZDHersrblEsH0WvUEkEEEAAAQQQqFKgCeOhPwn0dYq7FUsrnqkSmHMhgAACCCCAQO0FmjAeukq9sJnC12AXVcysfa9QQQQQQAABBAoSOFXlPKvwJCTfgq5TWkgbP6PwFwbHdMrANgSGFNhRxx005LGdDrtEGz2Qm9ppJ9sQaLjAZHh/TDTcgeYjgAACdRPYRhX6eoGVOl9leTy0SoFlUhQCqQj4hzx+f6yeSoNoBwIIIJCIwKZqx5EFtuVsleXP+7ULLJOiEEhFwKu8+v2xbioNoh0IIIBAIgLrqB1FXoOdpvL8eb9BIj40A4EiBU4P7w9uwVikKmUVIlD0ykp7FFKr5xbi+7oXkfZUIW9RfEPx0R4FPqJ9X1R4ucWPK3wBxG9iUrUC9veKVyklv9+WS6lBtAUBBBBAAAEEShVIcTzkFUy7/WigVEwKRwABBBBAAIEoBVIcD3nFd354FuXLkUojgAACCCAwFoEUx0NeOILx0FheTpwUAQQQqI9A0ZOVvl9C04qarLRPqFvembonKb8nK+2rYLJSCR3bp8hHtf9BxZsVv+mTl90IIIAAAggggECKAoyHUuxV2oQAAggggAACgwgwHhpEi7wIIIAAAgggkKIA46EUe5U2IYAAAgjMVvRkpVk1Nl0j1O2mnHWcHvKtmTM/2YoV8GtpEcVjxRZLaQgggAACCCCAQDQCjIei6SoqigACCCCAAAIlCTAeKgmWYhFAAAEEEEAgGgHGQ9F0FRVFAAEEEBhEYI5BMufI68lPRUeO0+bKMk/ItXCu3LPNluWbL2d+shUrkE0qW7rYYsdamgeUj4+1BpwcAQQQQAABBGISYDwUU29RVwQQQAABBBAoQyDV8RA/zivj1UKZCCCAAAIIpCnAeCjNfqVVCCCAQOMFip6sVGfQf4bKvSVnJXcN+abnzE+2YgVODsXtVWyxYy1tTp2dyW9j7QJOjgACCCCAQFQCjIei6i4qiwACCCCAAAIlCKQ6Hpq/BCuKRAABBBBAAIE0BRgPpdmvtAoBBBBovECTJiv9OPT2IXrcWzF7j97fRfsODvt/2iMfu8oTOFRFX6R4g+IT5Z2m0pJn6my+tzAJAQQQQAABBBDII5DqeOiRPI0nDwIIIIAAAgggIIEUx0NeefshehcBBBBAAAEEEMgpwHgoJxTZEEAAAQTiEvAt28aR1tVJV1UsoXhacXQFlfiazrGHYkJxguKzil8rblDMUPg2cSsqtlasqXC6VeHjSNULPKFTbq84QuGJY9sqjlX8TdHvC53bqq9urjP6/bZgrpxkQgABBBBAAAEEZpst1fHQQnQuAggggAACCCCQUyDF8ZBX3n5hzvaTDQEEEEAAAQQQYDzEawABBBBAIEmBqicr7S7FgxQrtWjer79bJyt5xaPzFP6f9rcqrm/JO8qf/gX3qxXTFOspPDFpnx4FXqV9XmHpwR552FWegF8Dnsy2VDjFlnp05Em9Vs3Kczx5EEAAAQQQQACBOggwHqpDL1AHBBBAAAEEEBinAOOhcepzbgQQQAABBBCogwDjoTr0AnVAAAEEEChcoMrJSp6k9MkcLXhWeW5XeGLRnopP5zgmb5ablHFDhSchvUmxvmJpxRSFV3i6S/FnhSc0naF4SkEaj4BXuCIhgAACCCCAAAJNFmA81OTep+0IIIAAAgggYAHGQ7wOEEAAAQQQQKDpAoyHmv4KoP0IIIBAogJVTVbyxKNsotJP9PdRiqsVnhzUKZ2ljZ6otFWnnSNum6njTw+RFWUHbyfVR2Dz+lSlsJp4QhwrdRXGSUEIIIAAAggkL8B4KPkupoEIIIAAAggg0EcgxfHQLLX5vj7tZjcCCCCAAAIIIJAJpDge8jVZxkO8xhFAAIGGC1Q1WWm/4HyoHg/MYX5lyLNqjrxFZGGiUhGKxZZxSbHF1aK0uVSLRWpREyqBAAIIIIAAAjEIMB6KoZeoIwIIIIAAAgiUKZDieGhOgS1WJhplI4AAAggggEBSAimOh3x9mvFQUi9TGoMAAggMLjDH4IcMdcQG4ajDcx6drT6zcM78ZEMAAQQQQAABBBBAAAEEEEAAAQQQQAABBBBAAAEEEEAAAQQQQAABBBBAAIGaC1Q1WSmbHXtHTo/5Q75Hc+YnW3oCG6tJH1AsmrNpvm3ghxUr5Mw/jmzP6KRe6puEAAIIIIAAAgjkEWA8lEeJPAgggAACCCCQsgDjoZR7l7YhgAACCCCAQB6BFMdDz6rhvmZGQgABBBBosEBVk5WySUpTc1r7H16nW3PmJ1t6Au9Tk76l+EbOpm0S8u6bM/84svn95qW+SQgggAACCCCAQB4BxkN5lMiDAAIIIIAAAikLMB5KuXdpGwIIIIAAAgjkEUhxPDS7Gl7VNeo8xuRBAAEEEBiDQFX/EPwutO1DOdo4r/L8d8h3do78ZElT4GWhWb/M2byfhXw75MxPNgQQQAABBBBAoO4CjIfq3kPUDwEEEEAAAQTKFmA8VLYw5SOAAAIIIIBA3QUYD9W9h6gfAggggMBQAlVNVjpMtfOSfgcovFrOi7rUdi1t/7XipYonFMd1ycfm9AWWC028NmdTrw/5JnLmJxsCCCCAAAIIIFB3AcZDde8h6ocAAggggAACZQswHipbmPIRQAABBBBAoO4CjIfq3kPUDwEEEEBgKIGqJiv9SbX7WKjhB/R4r+KK8HwBPZ6puEZxpWKzsP2Derwp/M1D8wSmhCbPyNn0p0I+Lx1JQgABBBBAAAEEUhBgPJRCL9IGBBBAAAEEEBhFgPHQKHociwACCCCAAAIpCDAeSqEXaQMCCCCAwPMEqpqs5BN7daW3KO5R+LzrhNrMrccdFauH5/fr8Y0KVlUKIA19uC20+yU5279ayHdHzvzjyDZLJ807+Woc9eOcCCCAAAIIIFAvgRTHQzNF/Gi9mKkNAggggAACCNRYIMXx0DPyfqTG5lQNAQQQQAABBOolkOJ4yNfLGA/V63VGbRBAAIHKBaqcrOTGnaZYQeHJSUcpvKLSbxU/VxyteJPCyxn+VEFqtsAFofm+deCcfSi8mtJHQ55L++Qd5263wyuJkRBAAAEEEEAAgTwCKY6HXqCGL5in8eRBAAEEEEAAAQQkkOJ4yN/HLkTvIoAAAggggAACOQVSHA/5ehnjoZwvALIhgAACqQpUPVnJjk8ofqbwbd52VrxS8QbF+xTTwn49kBoucIza75nVWyjOUqzSxWMlbf+JYruw/9gu+diMAAIIIIAAAgjEJsB4KLYeo74IIIAAAgggULQA46GiRSkPAQQQQAABBGITYDwUW49RXwQQQACBXAL+ZTMJgToK/EWV+qziIMX2Ia7To+MxxXyKVRWtt4n7hp57pS4SAggggAACCCCQggDjoRR6kTYggAACCCCAwCgCjIdG0eNYBBBAAAEEEEhBgPFQCr1IGxBAAAEEnifAZKXnkbChRgJfVl3uVByh8O1CVgvRXsUnteHTiq+376jZc9fzjprVieoggAACCCCAQL0FUhwP3VZvcmqHAAIIIIAAAjUTSG089LR8b6mZMdVBAAEEEEAAgXoLpDgeml5vcmqHAAIIIFC2QFWTlT4xQkMOGeFYDo1f4AQ14XTF6xVbKpZSLKp4WHG34lLFmYoHFXVPc6uCy9S9ktQPAQQQQAABBGonkNp4aLnaCVMhBBBAAAEEEKi7QErjobmEvXzdwakfAggggAACCNROILXx0ETthKkQAggggEClAlVNVjp4hFYxWWkEvEQOfVzt8IQlBwkBBBBAAAEEEGiiAOOhJvY6bUYAAQQQQACBVgHGQ7weEEAAAQQQQKDpAoyHmv4KoP0IIIBAQgJVTVa6uY/Z/Nrv1XJmD/ke0+N5iuv6HMduBBBAAAEEEEAAAQQQQAABBBBAAAEEEEAAAQQQQAABBBBAAAEEEEAAAQQQiESgqslKEzk85lOeLRX/pdhc8XsFqyrlgEs0y5xq12IK3+qtU/KS2bsq1lPMUPxC8edOGdmGAAIIIIAAAghEKsB4KNKOo9oIIIAAAgggUJgA46HCKCkIAQQQQAABBCIVYDwUacdRbQQQQACB+AT8j+6vFM8qtoiv+tS4IIHXqJwnFd/oUN7c2naRwq+RLJ7R35/skLdOm3ZSZb5VYIUuUVkzFVMLLJOiEEhFYDK8PyZSaRDtQACBRgqkOB7aTj15bIG9eb7K8nholQLLpCgEUhE4N7w/Vk+lQbQDAQQaKZDieGgr9eTJBfbm2eHzfu0Cy6QoBFIROCu8P9ZNpUG0AwEEGimQ4nhoE/Xk6QX25rTweb9BgWVSFAKpCPi95u9PN0qlQbQjHYGqVlYaRGyWMn9Zsa1iP4UnpZCaJ7C7mjylS7M/o+2vDPsu0+NCijUUByl8wcqrctUxeSLeAgVWzF9CucxbCiyTohBITWBZNWh6ao2iPQgg0BiBFMdD/v+PBQvsQV908Hjo+gLLpCgEUhOYUIOuTa1RtAcBBBojkOJ4aA71nr/LKiqtr4I8HvpbUQVSDgIJCqyqNl2RYLtoEgIINEMgxfGQxy5FjodeofJc5h+a8ZKglQgMJeBr6b6uTkKgNgJ1nKxknOx/rjetjRQVqVpgs3DCn7adeBE93z9s+5QePbHN6XjFOxXvV9R1slKoamEPngXr5FWlvMIUCQEE/iPg/zFx8vuDhAACCMQqwHiof88xHupvRI7mCvhi+OwKxkPNfQ3QcgRSEGA81L8Xnw5Z+H6ovxU5mieQjYey/29ongAtRgCBFAQYD/XvRcZD/Y3I0VyBbDzkBWNICCCQQ2Bx5fHki6dy5CVLmgKPhddA+8zqj4Tt/mWwP1yz5F/H+DVzQ8u2uv25iyp0UoGV4jZwBWJSVHICk2qRv4iaSK5lNAgBBJokkOJ4aAd14GkFdiK3gSsQk6KSE+A2cMl1KQ1CoJECKY6HtlZPnllgb3IbuAIxKSo5AW4Dl1yX0iAEGimQ4nhoc/XkOQX2JreBKxCTopIT4DZwyXVpOg1qnexRp1b5XqVOD9epUtSlUoFsVZQZbWfdJzw/Qo+tvxC+KTz3LZ/qmjyz+766Vo56IYAAAggggEDtBBgP1a5LqBACCCCAAAIIVCyQ4njIP6y5u2JHTocAAggggAAC8QowHoq376g5AggggEAPgTpOVvJ91g8Pdb68R93ZlbbA7aF5S7Q0c1v9vZrCE5hOaWu+v+jx5KW52rbX6anrtlidKkRdEEAAAQQQQKDWAoyHat09VA4BBBBAAAEEKhBIcTz0ArktWYEdp0AAAQQQQACBNAQYD6XRj7QCAQQQQKBNwP9zXEX6TY6TuC5TFSsqZg/5v53jOLKkKfB3NWslxW4Kr6I0RXFQaKpvpfZIW7OX0nO/hu5v285TBBBAAAEEEEAgVgHGQ7H2HPVGAAEEEEAAgaIEGA8VJUk5CCCAAAIIIBCrAOOhWHuOeiOAAAII9BSoarLSq3vW4vk7vULO5xQ/f/4utjRE4Fi18/WKryk2U6yiWEfxuOIrHQycx+m6DvvYhAACCCCAAAIIxCjAeCjGXqPOCCCAAAIIIFCkAOOhIjUpCwEEEEAAAQRiFGA8FGOvUWcEEEAAgb4CVU1War9lV6eKPauNjypuUJyluKlTJrY1RuBstfQXih0Uu4ZW+zWyr+LWDgpvDNv82iEhgAACCCCAAAIpCDAeSqEXaQMCCCCAAAIIjCLAeGgUPY5FAAEEEEAAgRQEGA+l0Iu0AQEEEEDgeQJVTVba43lnZgMCvQW8utZOircrNlHMUJyhuKzDYXNq2wOK4xU/6LC/LpueVEXurEtlqAcCCCCAAAII1F4g1fHQHbWXp4IIIIAAAgggUBeBFMdDTwm30w/x6mJOPRBAAAEEEECgXgIpjoeeFvEt9WKmNggggAACVQtUNVmp6nZxvjQEZqkZJ4bo1SLn269Xhprsm1v1WLomdaEaCCCAAAIIIBCHQIrjoWXioKeWCCCAAAIIIFATgdTGQ1PkOrUmtlQDAQQQQAABBOIQSG08NJfYl4+DnloigAACCJQlMEdZBVMuAggggAACCCCAAAIIIIAAAggggAACCCCAAAIIIIAAAggggAACCCCAAAIIINAqUNXKSj7PZopNFUsqllB42yOKfyj+pJhU+DZZJATaBTy7+o2KVRV+7Tyu2LMt0wLhuW8XR0IAAQQQQAABBFITYDyUWo/SHgQQQAABBBAYVIDx0KBi5EcAAQQQQACB1AQYD6XWo7QHAQQQaLBA2ZOVFpLt5xV7KRbp4+yJS8cqDlHc1yXvvNq+geLiLvvZnJaAJyAdqnivYvaWpt3foZlXadsKii0VF3XYX4dNvgfvg3WoCHVAAAEEEEAAgWgEGA9F01VUFAEEEEAAAQRKEkhtPOTbuHT77rMkQopFAAEEEEAAgcgFUhsPzVR/MB6K/EVJ9RFAAIFRBcq8DdwWqtw1ig8rWicq3avnXk3J4b+z5IlNByg86cTHtieXcZ5iq/YdPE9SYE616seKfRSeqORVt67t0dJpYd/uPfKMe5fvwdtv0t6468j5EUAAAQQQQKA+AoyH6tMX1AQBBBBAAAEExiOQ4njIbVpsPJycFQEEEEAAAQQiFEhxPOTFNBgPRfhipMoIIIBAkQJlTVZaS5X8mWIZxTOKHyq2V3iihm/jtUoI//0ixQ6KMxTPKnybuHMUGyqy5HK8mpJvI0dqhoBX49pG4Vu+fUjxQsVLejT9V2HfJj3ysAsBBBBAAAEEEIhJgPFQTL1FXRFAAAEEEECgDAHGQ2WoUiYCCCCAAAIIxCTAeCim3qKuCCCAAAK5Bcq4DdwUnf1MhVdKukOxo+LyHjXybbHODvF1PZ6lWEpxssKTnlZS/FrhW3w5PRoeeUhb4B2heZ6odHyOpt4Q8kzkyEsWBBBAAAEEEEAgBgHGQzH0EnVEAAEEEEAAgTIFGA+VqUvZCCCAAAIIIBCDAOOhGHqJOiKAAAIIDCxQxspKb1UtXqx4WrGtotdEpfYK/0EbvJqOj11N8SXFJYpsotLX9Pc32g/ieZICq4dWZbd369fIx0KG+fplZD8CCCCAAAIIIBCJAOOhSDqKaiKAAAIIIIBAaQKMh0qjpWAEEEAAAQQQiESA8VAkHUU1EUAAAQQGEyhjstLOoQqn6PGqwarzf7mvVPhYp/9SLK54QrGH4uMK31aOlL5ANuloRs6mZve2vS9n/nFk82t31jhOzDkRQAABBBBAIEoBxkNRdhuVRgABBBBAAIECBRgPFYhJUQgggAACCCAQpUCK46Fn1RNc743y5UilEUAAgeIEypistF6o3i9HqKZvC5cl30rulYpsAtMIxXJoRALTQ13Xzlnn7UK+G3PmH0c2v9/mHMeJOScCCCCAAAIIRCkwPdSa8VCU3UelEUAAAQQQQKAAgemhDMZDBWBSBAIIIIAAAghEKTA91Dql8dDsalMZ16ij7GAqjQACCDRVoIx/u+xpUQAAIABJREFUCJYMmLeMgHpzy7Hr6+8/jlAWh8YpkE12+7Kq/4I+TVhR+z8Z8pzRJy+7EUAAAQQQQACBWAQYD8XSU9QTAQQQQAABBMoSYDxUlizlIoAAAggggEAsAoyHYukp6okAAgggMJBAGZOVsgqMsnzfzFDIU3q8c6AWkTkVgcPVkIcUr1VcrthJ8aK2xi2l5/sq/qDw7QJvVZzclqdOT30LuMfqVCHqggACCCCAAAK1FkhxPORxft7b/Na6c6gcAggggAACCFQikOJ4yN+ZPlqJHidBAAEEEEAAgRQEUhwP+XoZ46EUXp20AQEEEBhBoN+KNcMU/YAO8iSSZRXDroi0XDixyyI1U+B2NXtnhW8JuI7ipwrfw9ZpEYUnMi0cnvvhYcVuYXvL5lr96VvAzV+rGlEZBBBAAAEEEKizQIrjIf//xwJ1RqduCCCAAAIIIFArgRTHQ/7x6IK1UqYyCCCAAAIIIFBngRTHQ75exniozq866oYAAghUIFDGykpXhXpvM0L9XxOO/fsIZXBo/AKTaoLvwftzhX+F73vYOvl1m01U8uxrT2haV/G7f+/mvwgggAACCCCAQDICk2oJ46FkupOGIIAAAggggMAQApM6hvHQEHAcggACCCCAAALJCEyqJYyHkulOGoIAAgggYIEyVlY6R+VurdhLcYjilgGpvarSO8Ix2X1YByyC7AkJ3KS2vEHhW8C9SuHXx6IKr6x0h+JCxd0KEgIIIIAAAgggkKoA46FUe5Z2IYAAAggggEBeAcZDeaXIhwACCCCAAAKpCjAeSrVnaRcCCCDQUIEyJiudKMvPKrzyjScbbavwEoV50jLhGN8awrf1OjHPQeRphIBvCfjjyFv6lOp/V+RtoPoIIIAAAgggMD6BVMZDd46PkDMjgAACCCCAQOQCKYyHnlYf5P2uNPLuovoIIIAAAgggUIJAKuOhW0uwoUgEEEAAgYgEyrgNnP+RfKfiGcWaiqsVnrw00cPF+5znGoWXMXT6kMJlkRBIRWCKGrJUKo2hHQgggAACCCCAwBACHg8tPcRxHIIAAggggAACCKQiMJcasmwqjaEdCCCAAAIIIIDAEAIeD00d4jgOQQABBBBISKCMlZXM8xPF/orDFQspPh/Cvxq6TuFVk5y8+tJqitb/Qfckp48rTv53Fv6LAAIIIIAAAggggAACCCCAAAIIIIAAAggggAACCCCAAAIIIIAAAggggAACKQiUNVnJNkcpLlF8W7FxwPKkpF6/HPq99n8sHBcO4SFxgR+U0L49SiiziCKfUCGPFFEQZSCAAAIIIIBAUgJNGw9lP1xIqhNpDAIIIIAAAgiMJNCk8dCTknpwJC0ORgABBBBAAIEUBZo2HuLuOim+imkTAgggMIBAmZOVXI0rFJsovHrS9oqNFEsqFlc8q7hHcbfifxVnK25UkJol8LYSmlvXyUqeqLRyCe2lSAQQQAABBBCIW6Bp46FV4u4uao8AAggggAACJQg0aTzkidv+rpSEAAIIIIAAAgi0CjRtPLQ63Y8AAggg0GyBsicrZbq+9ZuDhEC7wLntG8Lzp/R4v2I3xbxhmyez3ayYoZii8MS3NcPf/qLnMMU1irom/2ru3rpWjnohgAACCCCAwNgEmjQe8q/m7hqbNCdGAAEEEEAAgboKNGk89JA64fa6dgT1QgABBBBAAIGxCTRpPOTrZbeOTZoTI4AAAggggAACfQRO1X6vwOVJSN1uH7iQ9n1G8YzimD7l1WG3J2DNXVBFfJvFmYqpBZVHMQikJDAZ3h8TKTWKtiCAQCMFUhwP+eLcwgX15vkqx+MhVmsqCJRikhLwF91+f/Br1aS6lcYg0EiBFMdDN6knlyioN71avT/v1y6oPIpBICWBs8L7Y92UGkVbEECgkQIpjoeuVk8uX1BvTguf9xsUVB7FIJCSwOnh/eE7YJEQQAABBHII7Kk82USlHNln+0rI75WY6pxOUOU2LqiCTFYqCJJikhSYVKv8Ze1Ekq2jUQgg0BSBVMdDR6sDtyyoE5msVBAkxSQpwGSlJLuVRiHQOIFUx0NHqie3Lag3maxUECTFJCnAZKUku5VGIdA4gVTHQ19XT76+oN5kslJBkBSTpACTlZLs1jQaNUcazaAVCQrsE9qUd7Wkk0L+fWtucaHq9/aa15HqIYAAAggggEA9BFIdD3mCkb9oIyGAAAIIIIAAAv0EUh0P/UYNZzzUr/fZjwACCCCAAAIWSHU89Gu1bW+6GAEEEECguQJMVmpu39e95WuECnpZ7Dxpesi0Zp7MY8xzss69smL2MdaBUyOAAAIIIIBAHAKpjofOEP9Sinni6AZqiQACCCCAAAJjFEh1POTVXhZQvHCMtpwaAQQQQAABBOIQSHU85NWAfYcVf0dEQgABBBBooACTlRrY6ZE0Obt4tXDO+mb55suZf5zZfqiTf3OcFeDcCCCAAAIIIBCFQMrjoe+rB3z7ExICCCCAAAIIINBLIOXx0IlqON8P9ep99iGAAAIIIICABVIeD31P7WM8xOscAQQQaKgAk5Ua2vERNPufoY5vyVnXXUO+6TnzjzPbCTq5J1XtMM5KcG4EEEAAAQQQqL1AyuMhT96epdil9r1ABRFAAAEEEEBgnAIpj4d+KtgHFXm/+xpnP3BuBBBAAAEEEBifQMrjoV+K9WbFO8bHy5kRQAABBMYlwGSlcclz3n4CPw4ZDtHj3opet03zRa6DQ35/0RNDepcquY1i+xgqSx0RQAABBBBAYCwCqY+H3ifVDRXZpPOxIHNSBBBAAAEEEKi1QOrjof2lv7ri7bXuBSqHAAIIIIAAAuMUSH08dKBwl1b4eyISAggggAACCCAwdoGFVAPPFvf9ah03Kb6rOECxj8Jf5hyuuCrsd55bFIsoYkqnq7KfHLLCl+i4mYqpQx7PYQikLDAZ3h8TKTeStiGAQPICTRkPnaqe/NyQvXm+jvN4aJUhj+cwBFIWODe8P3wRnIQAAgjEKtCU8ZBvkXvQkJ10to7zeGjtIY/nMARSFjgrvD/WTbmRtA0BBJIXaMp46ET15NeG7M1pOs7joQ2GPJ7DEEhZwNei/f7YKOVG0jYEEECgaIGVVOCfFdmEpV6PVyrfqkVXoKLyPFnJK0INels4JitV1EGcJkqBSdXag6+JKGtPpRFAAIH/CDRlPPQxNflMxc4Ddj6TlQYEI3ujBJis1KjuprEIJC3QlPGQf5jn8dCgq04yWSnplz+NG1GAyUojAnI4AgjURqAp46H3S9yf3bsPKM9kpQHByN4oASYrNaq7aSwCCBQp8AIVtpvCA43piicVnrT0lMIrKflLnD0UUxQxJw80v6pwm76keIVijj4NYrJSHyB2N1pgUq1nslKjXwI0HoGkBJoyHlpBveZbAN+u8HhoE8WcfXqSyUp9gNjdaAEmKzW6+2k8AskJNGU8tIx67mDFXQqvtLSpYq4+vclkpT5A7G60AJOVGt39NB6B5ASaMh5aUj3n74XuC4+b67HfNUAmKyX3cqdBBQowWalATIoqVmD2YoujNAQqEfCAzJMQUkwvUqM8OWsdhW/X8KDiNsWdimMUHpxlyZOVvGRfqhYtTeVPBAYW8MVt/xu3smL6wEdzAAIIIFB/gZTHQwuL/02K9RS+nckjipsVdyiOV/jiXZY8WWkLxSyFJ7STEEDgPwLZeGgtbboWGAQQQCBBgZTHQwuovzweernCt696XHGTwj9yO0nhyd1Z8mSlbRWMh1pQ+BOBIJCNh9bX8ytQQQABBBIUSHk8NI/6y9fLPB7y5/i/FB4P+Tsi30LXj1nyZKWdFIyHWlD4E4EgkI2HNtPzy1BBoE4C/keMhEBsAilPznlAnfGdlg5ZU397lQFPYnqmraOc9+7YOo/6IlCxgP/nhIQAAgikKJDyeOhhddhxLZ22hv7OxkPtn+uMh1J8ddOmogVS/rwo2oryEEAgLoGUP99mqCtOCOFe8Q/avCr3Igq+H4rrdUpt6yHwdD2qQS0QQACBwgVSHg89IS1P0nY4eTy0osLXy9q/H/IP/7le9m8n/otANwHftYiEAAIIIIAAAggggAACCCCAAAIIIIAAAggggAACCCCAAAIIIIAAAggggAACCCCAAAIIIIAAAggggAACCCCAAAIIIIAAAggggAACCCCAAAIIIIAAAggggAACCCCAAAIIIIAAAggggAACCCCAAAIIIIAAAggggAACCCCAAAIIIIAAAggggAACCCCAAAIIIIAAAggggAACCCCAAAIIIIAAAggggAACCCCAAAIIIIAAAggggAACCCCAAAIIIIAAAggggAACCCCAAAIIIIAAAggggAACCCCAAAIIIIAAAggggAACCCCAAAIIIIAAAggggAACCCCAAAIIIIAAAggggAACCCCAAAIIIIAAAggggAACCCCAAAIIIIAAAggggAACCCCAAAIIIIAAAggggAACCCCAAAIIIIAAAggggAACCCCAAAIIIIAAAgg8IQLHGlAggAACCCCAAAINFWA81NCOp9kIIIAAAggg8P8FGA/xYkAAAQQQQACBpgswHmr6K4D2I4AAApEKvCDSelNtBOYOBHNAgQACCCCAAAIINFSA8VBDO55mI4AAAggggMD/F2A8xIsBAQQQQAABBJouwHio6a8A2o8AAghEKsBkpUg7LrFqrz9Ce9bUsfO0HX/5COVxKAIIIIAAAgggMA4BxkPjUOecCCCAAAIIIFAnAcZDdeoN6oIAAggggAAC4xBgPDQOdc6JAAIIIDAWgdnHclZOisBzBZ4tGITXdcGgFIcAAggggAACpQswHiqdmBMggAACCCCAQM0FGA/VvIOoHgIIIIAAAgiULsB4qHRiToAAAgggUBcBbqFVl56gHhZ4OgQaCCCAAAIIIIBAUwUYDzW152k3AggggAACCGQCjId4LSCAAAIIIIBA0wUYDzX9FUD7EUAAAQQQQKASgSN1lmcUDyj+R7GQYgHFwooXdgnPLnds3GG/NpEQQAABBBBAAIGoBBgPRdVdVBYBBBBAAAEEShBgPFQCKkUigAACCCCAQFQCjIei6i4qiwACCCCAAAIpCLxajbhF4QlI0xVb9WlUNllprT752I0AAggggAACCMQiwHgolp6inggggAACCCBQlgDjobJkKRcBBBBAAAEEYhFgPBRLT1FPBBBAAAEEEEhGwCspnajwRCSvtHSEYt4urWOyUhcYNiOAAAIIIIBA1AKMh6LuPiqPAAIIIIAAAgUIMB4qAJEiEEAAAQQQQCBqAcZDUXcflUcAAQQQQACBWAV2VMXvVnhC0rWKDTs0hMlKHVDYhAACCCCAAALJCDAeSqYraQgCCCCAAAIIDCnAeGhIOA5DAAEEEEAAgWQEGA8l05U0BAEEEEAAAQRiEVhMFZ2m8KSkpxVfUMzVUnkmK8XSk9QTAQQQQAABBIYVYDw0rBzHIYAAAggggEAqAoyHUulJ2oEAAggggAACwwowHhpWjuMQQAABBBBAAIERBN6mYx9UeHLSnxRrhrKYrDQCasWHHqLzzVB8sOLzpni6X6lRfu3/IMXG0SYEEEAAga4CjIe60rADAQQQQAABBBoiwHioIR1NMxFAAAEEEECgqwDjoa40le14gc40qbhXsUllZ033RFzzSrdvaRkCCCCQjMCyakn2D9YT+vsABZOV4uneW0N//T6eKte2pqMM3Pzri08ofqe4R/GU4g7FmYrtattiKoYAAgggkAkwHuK1gAACCCCAAAJNF2A81PRXAO1HAAEEEEAAAcZD430NvFinz65PfmW8VUni7KNc82oF2FtPfP3YfbNRTpn1le90ha+T+XrZ7Qrf8WeznMc72+KKixU+r9tCQgABBBBIWOB9aptX6MkGAn5cK+H2ptK0o0OffTqVBo2xHcMO3PZTnR9ue++0vo/897fG2C5OjQACCCCQX4DxUH4rciKAAAIIIIBAmgKMh9LsV1qFAAIIIIAAAvkFGA/ltyoy5xQVdqXCE2O2LrLghpY17DWvjGtO/XGYovV6V57JSnvqmJltx2VlzNL2/XP0x7rKc3NLGUxWyoFGFgQQQCB2Ac9a/m3Lhz+TleLo0XniqGbtaznMwO1VLe8Xr6r0dsXKimUUHkxPtux/t/4mIYAAAgjUX4DxUP37iBoigAACCCCAQLkCjIfK9aV0BBBAAAEEEKi/AOOh8fTR7Drt3OM5dXJnHeaaV4awiP44V+FJRr4t3zPh736TldZUvidD3kv16GtoSymylZZcnicseXu39CbteEzhvHeHRyYrddNiOwIIIJCYwBxqz0sVnrXKJJjEOpfm9BQYduB2qEp9b5eS59L2vyg8qPIvAkgIIIAAAnEIMB6Ko5+oJQIIIIAAAgiUJ8B4qDxbSkYAAQQQQACBOAQYD8XRT9Sys8Cw17xeouKuV/i6lm/f5uvF2cpI/SYr+dZvznudotM15jPD/sv02J48Ue0LYb/LOFxxUHjOZKV2LZ4jgAACCCCAQFICww7c+iF8RBmygRy/COinxX4EEEAAAQQQQAABBBBAAAEEEEAAAQQQQAABBBBAAIFRBIa95nW8TuprWn9VTFUsFJ57W6/JSvNr/xMh77v02Cl5sYzsepn/bk2r6ImP98pLHw07stvQMVmpDYunCOQR8IxbEgIIIFCmwG9UuP9hP26Ik2wWjv11OHZCj99W3KjwgOAhxSWK9yj6fZ6toDzfVFyj8PKMPvaPig8r5lVkyTOj91L4doMPKJzXKw55trQHPJ3SbdroNn66086wbSLk6TVYWlB5Pq+4SvG4wuf3MpS+dZvTU+Gx6IdbWwpstSj6PJSHAAIIIIAAAggggAACCCCAAAIIIIAAAggggAACCMQqMFMV93WePYZogK8h+dhPhmNfqccfKe5U+PqPbyn2M8VWYX+vh02181TFLQpfL7tL4dui7dp2kK9rfUrh61y+3vWgwte/PFmn23W1ul/z8g/wj1b4GqKvb/kOInnSesqU/WD/F10O+Ju2Tw/7XteW5wY9/6BiZ4UnKTnlPXfIzgMCCCCAAAIIVClQxGSlm1VhD9pmKLIZze2PXrqxW/L9Y//VcqxnPbcef4WeL6fwICVb4tH7fY/b7D63fu5JUhOK9lTEwM3luvz2dmXPPeg8Iez/QXsFRny+XyjXE6RICCCAAAIIIIAAAggggAACCCCAAAIIIIAAAggggAACzxcoYrLSSSr2AEXr9afWa0Pevu/zT/1/W/yD+68pWvO3X/M6Tfs9iWZC4R/wZ3nb852tfZ3uthHbNa/FWtrYa2Wl7FqYbx3XK3kCmc16XXfMjj8q5GVlpV6i7EOgi0C3GZNdsrMZAQQQGIvAVJ31pwrPEPfEo2UUHnxsqcjuG/tm/f16RXvywMQTfXzvWZfhZRunhOfb6vFqxToKDzoOUeyo8EDsDSGP826j8ISplRQepBT92fkClTktlO8Z8F7taUmF67ym4gjFWxS7KcpIrw2FXlBG4ZSJAAIIIIAAAggggAACCCCAAAIIIIAAAggggAACCCDwfwK+lvVVxS8VWyh8vWtZxe6KOxSekHSoYnFFe/Ikp48pPJnmSwpfP5tT8SLFuxW+q4ivJR2s8KSl1RVeSWl9hScw+Q4f71U8qfDKQV9WFJ3Gfc2rW3tWDDt8va9X8rVIJ9/2jYQAAggggAACEQsUsbKSB133KDxga08La8P9Cuf5XvtOPfdkJu+7SNFpkpEHe/eFPM7nGesbKtqTV3bKZp97QlNrGnWWuSdaZWXv3X7i8NwTlrI8Ra6stK7KzWbvt7erS1XYjAACCCCAAAIIIIAAAggggAACCCCAAAIIIIAAAgg0TqCIlZV8rcfXzjpds9pc27NrQXu26XpCku+Q4f1f7CK/VcvxzudbzHmCUnv6bMjnH9Av0bYztmteeVdWOi60+eftGG3PPxHyZZOWemVnZaVeOuxDoI9Apw/BPoewGwEEEBiLwDE6qycVtaeHteGcsHG1tp0v0fNXhG2epe5JOe3pXm34bsvGX+vvP7Rn0vOLFdeF7Z1WcOpwSO5Nnqzk9E+Fl//slLysZ9HJKzedqPAsfU/mOqvoE1AeAggggAACCCCAAAIIIIAAAggggAACCCCAAAIIIIDAcwR8p49O16y8ClJ2m7L2a15eMWlexdOKw7p4XqDtl7bs8w/hH+2Q19fcnHwbON9dpMg0rmte/dqQTdryBK1eKdu/QK9M7EMAgdEFmKw0uiElIIBANQKTPU6TLdnYPjt8k5ZjPMDrls5v2fH7bpm0/R9h3xo98gyzy8tvOnmilGe6d0qeyX5jpx1DbvMEpe8pfAu8BxXtM/SHLJbDEEAAAQQQQAABBBBAAAEEEEAAAQQQQAABBBBAAAEEugjM0vZe16z6XfO6Usf7uk63lOea1106eEYoIIVrXt0sWrfnnRfh62dOnSaT5TkPeRBAIKeA7xlJQgABBKoWmKITLt/lpJ4x/q8O+3ott+hZ5E7tAw3fq9fJg7ZHwt+dHqa3bPTSl45eybeeKzItHQq7oU+hHqC+uE+evLt9v+O3KJ5S7KLo5Zu3TPIhgAACCCCAAAIIIIAAAggggAACCCCAAAIIIIAAAk0SGPSa1z3CebIHUL9rXtlkpm5FTG/Z4ZWW+qUUrnn1a6P3PxYy+a4jvZJXm3LqdV2x1/HsQwCBnAJMVsoJRTYEEChUwLO0/9KlxNdou+/V2558H95B03zhgH5LOraW7eUwPYGnVypygOLPYQ9knbJZ7N3O3W9/t+Pat39aGz6q8KzwvRQXtmfgOQIIIIAAAggggAACCCCAAAIIIIAAAggggAACCCCAQF+BQa95DXO9y5UY5prXAzqu2x09soZ1WkCgb6O7ZBjHNa8uVXne5vvDlkWft+e5GxYLT4u8FtjnlOxGoJkCTFZqZr/TagSaIpANPObv0+BsgOdsH1Ec3yf/MLu71WGmCvMs+bkU/WZzZ5Oahjl/dsz++uOLCg9O36s4bZTCOBYBBBBAAAEEEEAAAQQQQAABBBBAAAEEEEAAAQQQQKB0gWGueW2oWt1YQs3qcs1rkKZldzdZoc9B2Z1h/tEnH7sRQGBEASYrjQjI4QggMJTAFToqu+frUAXkPOi2kG8hPS6uuLfLcSu2bG/9u0v2523OZqX3+kztdts7F+Z7A/uWdf3OveTzzjzYhncp+zfCIfvqsYxJWYPViNwIIIAAAggggAACCCCAAAIIIIAAAggggAACCCCAQLwCVV/zenEfqvZrXoNOVorlmlcfhuft/nPYsowel1D4dnyd0vphY5a/Ux62IYBAAQJzFFAGRSCAAAJ1FThPFZsVKufby3VLrfte2y1Tj+3Z7dk84ahb2rLbDm3PBjyv7pHHE668lOiwaXcdeIzCk8Q+rPjOsAVxHAIIIIAAAggggAACCCCAAAIIIIAAAggggAACCCCAQKUCvwpn87Wi5XqcuQnXvHo0v+uuy7XHt8Vzen2XXGtpezbZ63+75GEzAggUJMBkpYIgKQYBBGop4FnR54Sa/bce5+1QS8+g3qdl+8v099s75Gvd1L4q1PVh5+v02GnpS6+I9O4eZU4L+zwI2rlLvg9q+9xd9vXbvKMyfF/hz/wDFUf0O4D9CCCAAAIIIIAAAggggAACCCCAAAIIIIAAAggggAACtRH4pWriO4j4GtXnu9TKP8jfqGWfr3+t3iWvN/8/9u4DXpqrrB84MSEJJUhvBhIgIL1I6AHeQEB6C0UgFEGliyAKQuhViiKCIEQIvUiQJjVI6NJ7DyQUqQFCJxDg//z4z8BkmJ279+7uvXv3fs/n87y7O+XMOd/ZMu+e557tj3dl2bKPeY10Z3TVr2rtc5ot/r5u9x7Y+hHNsi/X7TsG1ltEgAABAgQIbCOBo6utmTLyiA20+aBm3+w/liX+sGa7TwwcIxnQP2zWv7duc6F2rqa+zDaU6S9T//sr8tNouX9yxZMqkrh01opsf7mKv634cMVlK7rlDvUg+yX+pyK/AbxPRaaRPLTisxU/aNZnm+6FYj081Z4VaXvWpa1pRxKcklx1kYrHVmSGqBMrss0LKqYtyaD/WbPfa+p21xrRb9u0x7EdAQIECBAgQIAAAQIECBAgQIAAAQIECBAgQGCVBTJ+lHGawzbQycObfY9dY99jmu2eOrDdLZp1aUP+SP0KFRmLumDF/Sra8bAn1/0XNtueULf3rrhQxVkqzluxq+LxFZ+p6JdlHvPqtzWPM47XjtGtNcaV8b7vNNu/s253VWQ8LuOBL+nUs9akBrXpb0rOUY7dznrVLndLgAABAgQILIHA0dWGfFAfsYG2HNTsm/33Hdn/Yc12Q8lK2e1qFbkYay9W+rcfrXX7NfUnazrZ1f1tuo8PbLZtb3avO28a2ecnte7giu812wxdLOUi8SsjdeQn3B7SrF9PslIukMb60l93fG2vECBAgAABAgQIECBAgAABAgQIECBAgAABAgQInFJgq5OV0pq/rmjb0R/jyeOXVuSXOk5f8dqKoW3aZT9Khb2yzGNe/bbm8XqSlbJ9/si/TeoasnnK0EEmLJOsNAHGYgLTCPgZuGmUbEOAwHYXeHt14BIVj65IQlMuvpI49L6K+1QkeehLFSlJCEqSVDLOj6/4ecVPKzID04srblaR2ZW6JbMeXb8idaXOXORkv+MqnlWRY7+1IjMsTSqZVvOSFY9rtstsSGljppm8dcVfVXyqQiFAgAABAgQIECBAgAABAgQIECBAgAABAgQIENiZAkmmyR/VP6ciY1cZT/pGxRsrMvPSrSpOqshY2A0rblORP7jPNhnPyhjWxyqSaHPNin5Z9TGvN1eHL1vxHxX5ubeM52U8LstvWpFkMIUAAQIECBAgQIAAAQIECBAgQIAAAQIECBAgQIAAAQIECBAgQIAAAQIECBAgQIAAAQIECBAgQIAAAQIECBAgQIAAAQIECBAgQIAAAQIECBDKckUrAAAgAElEQVQgQIAAAQIECBAgQIAAAQIECBAgQIAAAQIECBAgQIAAAQIECBAgQIAAAQIECBAgQIAAAQIECBAgQIAAAQIECBAgQIAAAQIECBAgQIAAAQIECBAgQIAAAQIECBAgQIAAAQIECBAgQIAAAQIECBAgQIAAAQIECBAgQIAAAQIECBAgQIAAAQIECBAgQIAAAQIECBAgQIAAAQIECBAgQIAAAQIECBAgQIAAAQIECBAgQIAAAQIECBAgQIAAAQIECBAgQIAAAQIECBAgQIAAAQIECBAgQIAAAQIECBAgQIAAAQIECBAgQIAAAQIECBAgQIAAAQIECBAgQIAAAQIECBAgQIAAAQIECBAgQIAAAQIECBAgQIAAAQIECBAgQIAAAQIECBAgQIAAAQIECBAgQIAAAQIECBAgQIAAAQIECBAgQIAAAQIECBAgQIAAAQIECBAgQIAAAQIECBAgQIAAAQIECBAgQIAAAQIECBAgQIAAAQIECBAgQIAAge0nsNv2a7IWEyBAYEMC+9Re963I+943K56+oVrsRIAAAQIECBAgQIAAAQIECBAgQIAAAQIECBAgQIAAAQIECBAgQIAAgTUEHlbrf93ErdbY1ur/L7BH3RxT8e2KK0MhQIAAAQIECBAgQIAAAQIECBAgQIAAAQIE5iJwwarl+RVfq/hlRTt+cam6f/uKH1T821yOdKpTndzUf9gG67tJ7XdixUs3uP+y7HZ043DEsjRoB7XjoMY+z/N9l7zfnidLfoK2UfMOb573x26jNm9qU/9gU4/mYAQITBK4c/Nm9YW63XvSRpZvWGC/2vPvmr0fWbfb/YJ6wxDr3DFuV684a8WN17nvVm3+lDpwLnbfVJHX0hebx3++VQ1yXAIECBAgQIAAAQIECBAgQIAAAQIECOwQAWMd053oi9RmH6hI8tC5Ktrx2q/X/Y9W/FlFfi3iDhXLUA6tRvxhxS0rTrMMDZqiDd2xgik2t8kEgbPV8l9UZNzFH7VPQLJ4KQU8d+d/Wl7cvBc8d/5Vq5EAga0S2L8O/OPmxX29rWrEih/3vxvfVcuWv0X1668WeO72rLo/XvGzikMWeJx5Vb17VfSNilw0t/+Ju0Hz+Ed1m+QrhQABAgQIECBAgAABAgQIECBAgAABAgTmL7B/VWmsYzrXl9dm+R77OxXXrsh38UlOar/Dvmfd/1XFSyrmUU6uSnK8JEdtpGS/1HH0Rnbegn2GxgrSjLQ/Dqs2VrRI4jwXY5Y/DJ+lHNTUk7r2naWiTdjX82QTkDfhEPN67s7S1MOb5/2xs1Syxr6ZrCOfI5tRzl0Hyax/eR3ffDMO6BgECCxe4KjmRf2qxR9qRx7hNo3vM+t21WaT+1L1KX99sciyW1W+1yIPMMe6/7TqygfkTyryH7u2vKZZnv8AKgQIECBAgAABAgQIECBAgAABAgQIECAwfwFjHdOZ5jv371fku+yHjuwyz1/hOLk53mEjx1tr1Tzbs9axZl0/aaxAEsr6Zd/TPHcetf5dT7GHZKUZAe2+boF5PXfXfeDODotOVjpf8/p84iyNXOe+f9sc88t1u11m2ltnF21OYOcIXKJ5Qeei9Go7p9t6OgeBizXPnUUnK82hqZtWxfMak/7P/B3cLM9fosRNIUCAAAECBAgQIECAAAECBAgQIECAAIH5CRjrmN4yP6eWMaHEjaffbaYt55GsNFMDNnnnSWMFkpXWdyLO33mu5qcLZymSlWbRs+96Beb53F3vsbvbLzpZ6R51sHyWbGay0unreD9sjnu3WXCy76rNMjKrh/0JbLZApqBL+UzF2zf74I63rQUyY5TyO4Fk7960efjCHswx9fjYivzFyt176zwkQIAAAQIECBAgQIAAAQIECBAgQIAAgdkEjHVM75eB3rZkhiVlvgJjYwXzPdLq13bbposfrttPr3539XCFBHbCcze/inPoFpyzH9Ux20kj2s/+LWiGQxIgMKvAHlXBdyuS8Xi/CZW1Wd6ZGSbJhUm0yEw6J1bkt58/UvGAimmmWUsiR35q7usVJ1V8teJNFbeqyO/3DpW/qIVpX7Lux8qRzXZvGNio7cOVm3V/Urevq8hvMa8n23O99SQx5SYVb6z4v4r8NNjnKp5WcUDFUGkzu9/WrEym+HMrvlIRs29U/GfF5YZ27i37o3r8+IpPVuRcfbMi9d6+YlKi6DR93FX7f6ii/cuL/m2eG0PlMrXwORX5XeGfVpxQ8b6K+1bkLzkmlZz7HOOwgQ2y7ued5beo+6kz1tnnBr19TleP79Vsk/Of/4jlOfzAijP2tl3vwz+rHXLMvKby+9798g/N+m/X7ST//j4eEyBAgAABAgQIECBAgAABAgQIECBAgMC4gLGO6cY6rlCMR1Z8r6L/vX4eH9thfnKzTcaDJpVz14qHVmS8IN+3ZxzisxUZB+r/sXP7Pf8ta12+p39wxceafTLw/NGKR1ScoWKoHF4L+23sb7eR7//bejNGkHLOimdVZEwmxxvr///f4/f/HRsraMdg/q12yxjSHSoykUDOyc8qMn6S408aQ6pVvy0bGXPLzjkXOVbGKc5UkXGkzzfLMgb12oprVrTl7HXnCRU5txnbyRjQMRXTJClctrZ7QcUXmn2/XLf5ucarV0xTkqCU8zBpDDN1ZOwpnpmUIc+ljNHkuZWxtStWtOWgutM+79On/SueXnFcRcbfcg7eUZFxyZybSSXPkfwMVcY345UxqszykufKAyqSwDFU2nN/5Wbl2Fhlu+0RQxU1yzZiu1nnPjPdPa4iP4MW119U5D0i/cqY8FiJ/Z0q3lWRMbyc04zjZYwtPwWZ94icx4wx98vhzbr29ZxfFMqYasalc54yTvrqimv0d+w9ThvWO77br3LsuXuO2vjhFXnOfKsibcvtWyvuU3Huin7JOPztKtKf4yvyGs7rMa/Lf60Y2qcWn6o1OTYPeiWvzVjmvIyV45vt8vxuy13rztea5e3rqnv7ys620969YW2Y94e8JtO/nLeM+T6p4jy9Sq5Uj9vjXbK3zkMCBLaJQD4I2xdyPsyHSvuBmDed13S277/x5EIyb65DJReIefPv79N9nA/1XBT1yzyTlXLhlilNc9HRPfZf9w864XFrMU09uRh5Se843WPmwzVvuv1yULNPPmRzMZjthtzyc2JJHJtUdtWKSf/hSH1J1sp56Zdp+vjQ2ikfam39+cDI4zbyH5N+yT5p81BfsiwX4Ll4GSonN/sdNrCyXZfnzj8223WP0f2A2rfWf3xgm3b7XIxfaOAY0y5qn+P/PmGHJJi1x/LBOQHJYgIECBAgQIAAAQIECBAgQIAAAQIECKxTwFjH///uea2xjiQD5Xv84yra76rzh9btd/tv6bivlax03do2yQeTvvN/We8ctt/lZ7D9cyP7JeFkaKzo8GaftHWobPT7/7bef6lKL1jRJim1/XrF0MHWWDY2VnB07Zu6kyCUQflJfkl+ufyE48wy5pYq23ORpJkvTWjDL2v5bSoylpEkiknt/PtUOKHcp5aPjQvl+ThW2td12pI/zh8qD6yFbX+G2tgdRzuotm23OaTux3honyxrZ23pHzN/eJ+kvO5+STTpPk7C06n7O9bj9txPM8bYbnvEQD1ZtFHbzTj31+p5xCbJSl2jjOcNlT1qYV5zk87Lx2pdW/9YslIS1ZJQNun5l+X3GGpALdvo+G63urHn7q7acOy5l77n/ahfkrw19rxLItZ+/Z3q8eHNfscOrJslWSnjzKkzY8RpV8aM87iNJAJOW/KeliSsSec9yy/aqyzJlj9o9lnrs2/adtiOAIFNFsiHdF7gSYiZNLNR+4HYZr4m0/PCFftUHFDxmIpcKKSeJBwNlTZpJx9Gj664SMUZKi5QkQuZNiHnjQM7zzNZKRfXuYjIhVUycHdV5ENt/4ppSmsxTT3J4o5JPnD+qiIX1zFOQk762bqfr+53y0HNunxQfr/igxXXqzhbxZkrrlPxiWabuCcruF9SZ3uxlA+LS1fk2GesiGe77mn9Hevxevr4xNo+/VjrLwvu1myXbfNhc8WKtOVcFbeuOK5ZnwzZs1T0y8nN+sP6K+pxuy7Pq9SfZKT08SoVSQZLpnFKLnA+WpFtPluR/0glAzsXHdeuyIdn1n2kYugishaPlpyb9oJ06Jxk57Shtb/LaG1WEiBAgAABAgQIECBAgAABAgQIECBAgMC0AsY61jfWcc6CzffhiV0TkMeSlTJo/JNm/3y/f+eKLEvcqOIpFflj7G5pv8tPglN+dSHjJueuyHf0f1zxjIq2TU/q7tjcP7xZn+/y+2WW7//bel9VlWZ8Id/zP7UiYzH5rj9/hLyestZYwdFVWfoZh5hkbCP9j0NmDrl3RWub8aGhMsuYW+prz0XOQ5KzMk6TyQgSt6xI0kPamPVfqMiYWma6ScLQWSsyZpU/QM82SVQYGtdJPe35zFjSeSuSXLBvRTu2lPW3qJhU8jzINv8zYYM/b9Znm2Mq8tzLuOVlKw6reEFFt20H1eO2TfHPmNENKjJ+l2SJK1S8rbNNxpiGSsa5UnfGlk7fbJDXVLdfdxzYsT3304wxttseMVDPLLabce7zXP5UxRMqDqzImFvOfd4f3lCRc5DxzfNX9EsS2Npz9Jy6f7GKjCfnNXJ4RZ5vGTvNNl+t6Jdsk3XfrcgxXluR13GeB3m/uVXF/1Vkm8xKlLHXftno+G63nknP3d1qo/a1k6S2jJdmHDPvYfH4i4qMtae//XLfWpDXwm0q2slD9qn7eR204+xH9neqx63JsQPr8jyORZ5vY+X4ZrsHDGz0gWZdnv8bLc9t6khb8pzPOUsOQcZ6k1Q2NJ6dY725Ivu8OA8UAgS2n8Dzqsl5Eb91pOl5g8o2iftM2O5hnW129bbJG0q7f2ZnGipJHGm3yZtst+SNOevyATpWjmy2ywddv3T7kAurXPBtpExbTzJmf1WRdg9daCVJpv0wzJtutxzU7Jd980GbD5p+ycXgt5vtjumvrMevbNblQisfcP1yr2Z92ti3mLaPqbO98MoH0aSS9rcXDpM+LPatbXJhmD4/c6CinPusO2xkXda/uiIXQUPlb2phtkmy0H4DG+SvA9pzNnScgV1OsSjP7dT/5YpcbEwq7YXukZM2sJwAAQIECBAgQIAAAQIECBAgQIAAAQIE1iVgrGNdXL/5qbN8n53YNWHXsWSldhwh34cPDfYPVdl+z59jXnlog1rW/qH3cQPrD69l2ffYgXWzfP/f1pu6T6o4eKD+9Sxaa6ygtcvx8kf1QyXL2/OzX2+DWcfcUl17LpLMkbGRfrlZLWiPn3GTJPH0S85hu02SZ7olY2Bfb9ZPSjI4qlk/dD5T1x9UtONoSYbrl9PWgh9UpA1JSMkf7K9VDmq2zz7fqEiSUr8kMaYdf3tOf+UUj4+pbVJ/Esr6pXvu1xqrbLc9olfJrLaLPvf9PvcfJ7krkzzEqD9mnPORBKKsSxLNUMmYa/u8G0tWyjYxzPOoX67aqeP2vZWzjO+2VY09d5Mw1bY/iVjzKg9r6s3zul8Ob9YNvdaWIVmp+7q8f7/xazx+eNO349fYzmoCBJZUoE2cGPvAbT8Qk5XZzlLT704+QNpM72ScdsuR9SBvvPngHUvieEuzXTJGu2XeyUq7evWv52Frkf6M1dNmzGaWnkmlfQNNdm/3w7L7ppwPkEnlsbWi/UBrM2izbc5FO53iTSbsnIuZZB9n/1zEd8u0fcw+0yQr3bG2a9u5/ykPdYpHD262y8Vl2tctJzfrDustz8N2XRzzFwuTygdrRdqR/2BNKu3rIcle6y3JgE79j1tjx+c22711je2sJkCAAAECBAgQIECAAAECBAgQIECAAIHpBIx1TOfUbjVLslJ+MSFJLvk+POM305b2u/y3j+yQpJR2PKH/CwgZL8m6Ywf2n+X7/7be1P2wgbrXu2itsYJ2DCZJGZnNZ6hkRpHW4Vq9DY5s1m10zC3Vtecis5IMldi353jsfLVJPf2kqxs2bUwdk8ZtkhTW9vHSA424ZrM+Y1lnHFifGXLa/S84sH5o0UGdfR4xtEGz7PnNdu8a2WbSqowRpV3vHNigPfdZv2tgfXdRu+0Rve1mtV30uV+jW79Z/b8VMXhUb+N2PDjr9hup6BPN/mslKx0yUkf2zXEe3dtmlvHdtqqx526S4drn7dBkFyNNHl11nU69e/S2bN/jjh2o4QXNfnm+jZXjm+0WMbPS05u6v1S30yQddtv5582+ea8ZSkwb69Nv1214x6lqtxEBAmMC7UVCZrVZq+RiLxdPQyU/EZdko5RMr9gtmaItJTMe5Q14UnlNs+Iaddu/CJ20z3qXf652OGa9Ow1sv1Y9mfoxJf9BmlQ+2axIclFmShoqYxdCL+/skEzftsQvH0SxnnQRmYu7LzY7XOh3u57i3lp9nLDb7y1uz3+mfDz+99b+bkF7/vepRVca2W7SqngkYWmoxLc1muacTDIZqjvLzlvR9vNFkzZqlrevtaFpUdfY1WoCBAgQIECAAAECBAgQIECAAAECBAgQGBAw1jGAsqBFmdmnHdvNjDbrLZPGLVLPlzuVZaxgmjLP7/+Hfvlhmja026xnrCBjbvkliKEy5jDPMbd3Dx28luUP4pOIlJLEkknl/5oV/XPVjpElqWTSuE07RpYqhsZkbtvU/bq6PXGgAbuaZZ+t288PrF9r0TTPw36/1qoz6zPxQ0r/j/K7+84y/jYP27RlUee+289J9ycZtTN4fbp2TOLKpDI2ztfuk+SVJA5OKm39/XPc+o4dY63x3bHnbiZseH3TqCTFPabi7JMauY7lrWl2GXvuraPKTdt0V3OkuOS8rae0Y675TBpKapyqrn5211Q72YgAgbkItBfwky4WugcZylDtrv9K8yAZ+d1ynubBWhcL+XBOSdbkOSrWOl6z+bpuPr6urSdvvFY9+za7/nXdJtYq+SDKb/72y5hB6519uubtsXer5e2bdL/e7uNJH4Jr9XGszu669Z7/7PtH01be2e5jI/t063vFyHbtqkkmk3a9Ta2Idy68x9qR/dtz0r72JtVpOQECBAgQIECAAAECBAgQIECAAAECBAhMJ2CsYzqneWzVjkfkp5y+sYEKu4k4/d2TJNOWNiGqv03/8by+/89391/rV77Ox+sZK9iow3rHXMbG3MbGoDIDT8rQ2FXL0m7TP1ftONUla8OxSQzaevpjMnvVips1K1/YbtS7bZ+H7djihM0mLp7Gv9+vtrID6s6dKq5ekft/WJE2T1tmGX+b1bZt46LOfVt/khoPq7hcRWZJSlLQWjkh0z63j28PMnKb521+1nFSad9r+ud41vHdaZ67+em5jFVetSKzkt234qiK/HLR2CQWeZ7leZdZlC5SkUkR8nOI273M8lrujoPnOmCafIff81rrifl7O1hAgMDcBNrp1KbJVMxsPGOlzbLuTluZ+tsP6EmzMrV1djPI84Yy9kE51o6xdUPZ12PbT1o3Vk8+2NrszWSyjn0YTqq/XT5mfkJn5655O2NPfkc4M16tVX4yYYOxPk7YZXBx27a1zn/akYvWJP1sJJFnrL3dWYxiEpux8v2xlQPr2izpSRfN3V3a15rPvgFIiwgQIECAAAECBAgQIECAAAECBAgQILABAWMdG0Db4C7t9+3dmTzWU9WkMYn11NHddl7f/4+NMUzbtvWMFWzEYd5jbmuN26TfbULStAbZrj0nGR+b5nnSTVLL/jeoSGJGxmr+OwsGylY9D+9ZbfmnivxCTGwyy84HKlrLi9X9Cw+0t7tolufarLZtOxZ17jP29eyK2zUHyvnPH/pnTLMdL91V97uv22bTU52+uTNpxrF2u2meUxt5fc1jfHea524sYnDLivtVXLYiiY6JzHh174o8p7rlKvXglRVnbRZ+oW6T2BSLjHkm4S/JT9ut9M3X2/5ufsOGx103vON6W2t7AgR+TyCJG5nFaOhDob/xWtmZ7VR53Q+JvEnkQzfJO+2HTL/e9nG7fx7/cNJGI8sn/bbvyC4LWZUPhbQ//XlwxZNnOMqYedeza95e5KQN7YfWDE2Yedd86Kasdf6zPolKKRs5/82ugzfdC79r1BYfGdxqYwvzlwEXr0ii1YunqKI9J91s3yl2swkBAgQIECBAgAABAgQIECBAgAABAgQITBAw1jEBZgGL2z/2HRu/WMBhJ1a5yO//Jx50YMV6xwoGqlhz0WaOua3ZmJEN2nPyhtrmJiPbTVrVJn1ltplJf9S/Fc/DJIw8pSJjWS+o+JuK/ljPo2rZgyZ1bA7LZ7WdQxNGq/j7WptEpYyZJRHnqRU/7+3xznocy35pk5RO01/Re7yo3JJ5jO9O89xNd3KslzRx+bq9R0WSla5c8Z6KG1bk9ZOSxL3/qsj44ocqMmPVp3+z5nflkLr75t6yeT5c1Bh8HDLGnTHijXymdMfB+6/Fqfvfn15r6h1tSIDAzALtC3eaZKVM0zdWLtqs7E+T+dVm+dBvznbr++PmQTKov95Z0U4RmQ//sfeL8441bpPXtQZtnzZ6+DHz1jt1d83b+/nwSiLaVpf1nv+0t/2t2Hm1vesz6znpt6m98MjF1TTtbl9rG5qKsH9wjwkQIECAAAECBAgQIECAAAECBAgQIEDgtwkDxjoW/2T4ZnOIjEFkNo+tLov8/n89fVvvWMF66u5uu94xl/6Y20aPu579ZhkjO2Md6HrNwcZ+zaJ9Hq419riedq+17Z1rg4xVZizozyuGkiMWldTRtm0W27X6N4/1f9FU8qK6zQxU/USlrJ5k1Pbt/Gs0ZJHvO7P4Tvvc7XfvfbXgDhWXqEgSUpKx/qWz0Y3r/tmax3/WbNNZ/Zu7k0z72/Uft2PwYwlgSSKa5rO1X/e0j2d5LXfblaTlDZWx5IMNVWgnAgSmFmjfdMeSYtrK/qTuTJodJxelbRbs+3tHf2Pz+Lp1207FOtTAGzULs383U7qdNSjvFX80tGMty/EvPWHdViw+ujlo+pSpIDdarjay4/Wbdfkg+WBnu7fW/Xbau5uP7D+PVe30n3uOVNae/1wwjl00tuc/Fy75YJ5nye9mZyrOlHma5KL01k29ufCaprRJdf83zca2IUCAAAECBAgQIECAAAECBAgQIECAAIE1BYx1rEk0tw3e3ampHaeYW+UbqGhR3/+vpykbGStYT/3dbWcdc9vocdezXztGlp9Dyy9TrKdkDGevirymjxnZsX0eXqS2WSu5ZaSada3av9n6w3U76efxFj1WOYvtujq7wY3b8eb+WHFbXWZNmjSpQLtPnjNjkzFkJqJFlVnGd6d97k5q+2dqxX2alRlPbWca2r9Zllm1Pj9h540+79ox+PNMqDeLr16R97hJZZqx4kn7Znn7Wk4ewXrzhtox1yQ8TXpNjh37N+vWe9A1K7QBAQJTC7RJIXljX+u1mIuDe02o+R9qeZvI9NLeNs+vx5nGLW9095iwfy5o28ScZ/W2+Vzn8S0m7J9pBfecsG4rFqfPKeeueOwaDRh7g0+W9pkG9k/S1t2b5fng7GZv5w35Tc26h9Xt+Qb2n9eibzcV5Ri5wBgqaUs7U9Yki31rm/a59eK63344DtW30WXPa3Y8tG7bxKhJdY2dk+4+V60HeV7nLxP+c1JlneVJ1msvot47xfY2IUCAAAECBAgQIECAAAECBAgQIECAAIG1BYx1rG00ry2+WBV9oKnsIXV75nlVPEM9i/j+fz3NWe9YwXrq7m8765hbv75FPH5tVdr+usTT6/6k8aMcuz8ek5/CSslPZGVscVJ5Za1oZ+15Ut3v1zNpv1mW/6DZ+QITKrlGLd81Yd28Fs9iO682jNXzw2blARM2ynjypOfDUbUuCScZr37QhP0vVcuvOWHdPBbPMr47zXM3fRt7rmZyjpQ4nNTcb593mbnprM2y7s0568HdBpZPs6gdg88472UHdsi45gMGlncXtWPFFxvZLgloGf/9x4r+eH6bV7B/rbv3SB1Dq67cLDTmOqRjGYFtIJAXcWbmSeQNfqgkGSbrf1qRpIxHVrQZnflAfmKzPtvkQ3KoPKHZJvs/uuKCFfkwSsbj31YkOSX7v6Mib3zdkjfuLzTrs909K7Lf6SoyJd4/V+SCJW/WqaP9Dc+6+9vS9uGI7sIN3F9PPU9t2pM25aIpH575wMj0hHnDvkPFayoeU9EtB9WD7JM+ZYapZGhnysskLbVTCCa7Ntvkw+qKFf2SD5X8Xm+2+VbF31QkUznT4SW5ZlfF4yqOq+jPlrWePl6l9s8xEs+tyDSE+ZC5SEX3PCYZrd3u5XX/chU5f2lPEtDyn5usP6EiiVj9kn5m/WH9FfV4bF1387QrM1ClnjwP87zNB2/afK6KtOm+FflAS3unKf9eG6W+V0+zcW2T2clahytMuY/NCBAgQIAAAQIECBAgQIAAAQIECBAgQGBcwFjHuE9/bcYq2u+qd/VXNo+f3GzTJiZ1N7tSPWi/m894RX6B4PwVGbvJuXhwRb6D75ZpvsvfVTu07eoPyh/erDu2V28ezvL9/1i9A4caXLSesYKjm34cMVjT7xa2Djcf2G6WMbdUN825yM/NpQ0ZX5pU8tzINhlv6pf84Xjbh4/W/VtV5PmRcaGMLeaPyp9d8eaKtmR86JcV2S/jKWuVTGTQHuP1df+Qihwjz8VrV2Sc7vadSg7qbL9vZ3n/7sOa7T7RW5ExpPZ4SbrIuF3GwtKfjH3+pOIrzTZDr5tpz31VcaqxbTdimzpTFn3uM14Wo4xvJnln7yZyPpOAlnXtc6v/HlGrfvPTca1x7ud8JrknY3l3qMhMau2YcvuTiLXot+Xwupf9j+0uHLh/TLNdniP9spHx3Wmfu3nefari/hWXqWgTd/ap+zer+FpF2v+qirZ0xxbzPM/zLSYZ27xzRX7JpX3eZd/Ttzs2t2Mmea20r7nj6v4NK/Lem6Spq1VkzP1XFVUhD0QAACAASURBVK35A+p+vzyoFrTn7J51P+O/ie4MWm/qbHPHfgX1+L+b9WnLUyoyZhurzM52y4r/rLhoRbckf+DEihw7ngoBAttQILMl/bgiL+R8yA6V9gMxH7y5aGjfcPq3H6p1eQMbKvmty2RP9/fpPn73yP7XqnX5YJu0f97EkvSU9Xnj7JexD/X+tmOP11NPbNsL1EntzvL+h/FBtSzL8+Z/k4pc3Aztnzfsv6yYVJJI1H7gD+3fLut/aK2njzl29wOme5x+vXeqbZMFPKktmX0pyUND5eRmv8MGVo6t62+ei4V3NnVNakeW36C/48DjXEBkRqtsn4vsaUp74fzD2niWnwec5li2IUCAAAECBAgQIECAAAECBAgQIECAwE4RMNaxvjM9a7JSjnbbinZ8aej79vwRd7dM813+rtqhras/3nR4s+7YXr3tw41+/79WvRMO99vF6x0rmHYMpnW4+UADZh1zm+ZczJqslGbfpWJsbC997Cb13K8eZ9mnB/o8tCjJCpnQYOj51y7rJlsd1Nl236EKm2UPa7b7RG+bjHtlWfd4rWWWvbbiis36br/aaqY999l+rW3Xa9u2YdHn/pJ1oB80BjHJWGebDJPHSWxpk77646NpY5KbMs476Zy2iT5Zv6hkpY2M70773M3zrt+3/tjpsbVNkrS65cjeft3nXSb8yPbtJBb98dnDm31T71B5SK/ufvuSoPRfzTZDyUqZpCMJU/39uq+B5AC069tf2um2JUmMbxmoo1vnpbs71P3Ld7bP627DJW8kCgECWyOQN8C8waQk+3Ks5M35OhX3rMgbTD5skkjzkYpkLCZb/oSKoZI3zbtVHFKRafy+VPHzimyfD9w/r7hq87hufq8kSSpvOi+syIfPLyqSLfn2iiTsJNPzkxXLVGKbi4VdFc+ryIfATyvS72TGJsknF0mPrRgqyYo9piIJPNk//c6+36xIBmk8nlUxqbyrVuSiIElc76nIDEu5IEiizMcrnlFxcMWPKmYpN62dH1/xxYqcl+9V5Lykrd3y7HqQ2bueWvHZiljkOZTZjh5ckezY3F9kyYflror8J+p1Fck0TpvTlnyYv6zi1hU5N2uV69YGZ66I36vX2rhZf6fmNq+BHFchQIAAAQIECBAgQIAAAQIECBAgQIAAgdkFjHXMbrjeGjJekzGIJBwkgSBjD/neO9/Dv6gi4wabWeb5/f962r2RsYL11D+07axjbkN1LmJZ/qD/EhV5LmRcKskUaXv+EDzjVo+uyHhNW9r7ef5MU5IIc5+Kq1U8v+K4irwXJEHqcxVJZGrHQOvuzCXjQRkLTX8yppTne57376u4R0Vmi8rEDpsx/rNe22rWppSP1VEyrvmCioxnZlwyY8Gvr8gYc875hysmlZy761XcteJ/K+KbMby8xzy8IjPu5PEiy0bGd6d97mZ8OP2LT55D6cvuFRlbfWdFkp4ylvrlim7J+GLG2fP8ilEiY62ZaORPKrJ9xus3Uh5RO9244o0VeW3mNZpzl9fONSoeV5FjTSrfqhVXqcjrNvvl+f+NioxTt+XJdSfj+pllLWOx/ZLjXqsijm+oiFPakddcchKSh/D5im5p8xqOr4Xv7a3zkACBbSSQbMM2MzFvJv2SZKKsf2Z/hccLETio8Y75uRdyBJVuhUAultvXWRLNFAIECBAgQIAAAQIECBAgQIAAAQIECBCYn4CxjvlZqokAAQLLKtDOzJSJMZSdKZCfmcuEGBl3/btZCf5g1grsT4DATALJTE2WYkpm4ZlUvFYnySxuOfPF2W52zcnuT8mMTsmyVwgQIECAAAECBAgQIECAAAECBAgQIEBgfgLGOuZnqSYCBAgsq8A5moZlpi5lZwr8RXV7n4rM5PSMnUmg1wRWS+CC1Z1MNZcMxEyz1i3tzEpHrFaXl7Y33ZmV9l3aVmrYegSuXRvntZXX2AHr2dG2BAgQIECAAAECBAgQIECAAAECBAgQIDC1gLGOqalsSIAAgW0p8P5qdcbcjtqWrdfoWQXOXhXkZ/PyHGh/fm/WOu1PgMASCPxl88L+TN3u2WmPZKXNPTmSlTbXe9FHy2spv+WaD81k+ioECBAgQIAAAQIECBAgQIAAAQIECBAgsDgBYx2Ls1UzAQIEFimw1iQOh9bBM96WuMsiG6LupRV4TnP+X7C0LdQwAgTmKiBZaa6ca1YmWWlNIhsQIECAAAECBAgQIECAAAECBAgQIECAAIF1CRjrWBeXjQkQILDpAi+uI7694m4Vl674w4o9Ks5dcb+Kn1UkUekrFaerUAjMLJAnmEKAAAECBAgQIECAAAECBAgQIECAAAECBAgQIECAAAECBAgQILDzBHarLl+1iUm9/1atuFnFjydtYDmB9QhIVlqPlm0JECBAgAABAgQIECBAgAABAgQIECBAgAABAgQIECBAgAABAqsjcP/qyscrrl7xxxVnrzh1xQ8rPlfx+oqnVXy7QiFAgAABAgQIECBAgAABAgQIECBAgAABAgQIECBAgAABAgQIECBAgAABAgQIECBAgAABAgQIECBAgAABAgQIECBAgAABAgQIECBAgAABAgQIECBAgAABAgQIECBAgAABAgQIECBAgAABAgQIECBAgAABAgQIECBAgAABAgQIECBAgAABAgQIECBAgAABAgQIECBAgAABAgQIECBAgAABAgQIECBAgAABAgQIECBAgAABAgQIECBAgAABAgQIECBAgAABAgQIECBAgAABAgQIECBAgAABAgQIECBAgAABAgQIECBAgAABAgQIECBAgAABAgQIECBAgAABAgQIECBAgAABAgQIECBAgAABAgQIECBAgAABAgQIECBAgAABAgQIECBAgAABAgQIECBAgAABAgQIECBAgAABAgQIECBAgAABAgQIECBAgAABAgQIECBAgAABAgQIECBAgAABAgQIECBAgAABAgQIECBAgAABAgQIECBAgAABAgQIECBAgAABAgQIECBAgAABAgQIECBAgAABAgQIECBAgAABAgQIECBAgAABAgQIECBAgAABAgQIECBAgAABAgQIECBAgAABAgQIECBAgAABAgQIECBAgAABAgQIECBAgAABAgQIECBAgAABAgQIECBAgAABAgQIECBAgAABAgQIECBAgAABAgQIECBAgAABAgQIECBAgAABAgQIECBAgAABAgQIECBAgAABAgQIECBAgAABAgQIECBAgAABAgQIECBAgAABAgQIECBAgAABAgQIECBAgAABAgQIECBAgAABAgQIECBAgAABAgQIECBAgAABAgQIECBAgAABAgQIECBAgAABAgQIECBAgAABAgQIECBAgAABAgQIECBAgAABAgQIECBAgAABAgQIECBAgAABAgQIECBAgAABAgQIECBAgAABAgQIECBAgAABAgQIECBAgAABAgQIECBAgAABAgQIECBAgAABAgQIECBAgAABAgQIECBAgAABAgQIECBAgAABAgQIECBAgAABAgQIECBAgAABAgQIECBAgAABAgQIECBAgAABAgQIECBAgAABAgQIECBAgAABAgQIECAwKvDpWvvrTtx1ZOu9e9t295vm/tlH6r7NDHW/c6TerDpqhrrvu0bd0/R70jb7jdR90xna/MGRerPqBTPU/aA16v7JDHVfeKTu68xQ76dG6s2qZ81Q96PWqPs7M9R9mZG6rz5DvceN1JtVT5mh7ietUfdXZ6j7yiN1X36Ger8xUm9W/eMMdf/bGnV/foa6rzlS9yVmqPf7I/Vm1cNmqPs5a9T9sRnqvsFI3QfMUO/PR+rNqvvPUPdL1qj7vTPUfYuRuv9ohnrzebb7SN1/PUPdrxqpN6uOmaHu24/UfeYZ6o3H6Ufq/ssZ6n7TSL1Z9foZ6h671jvNDPXG42wj7T5shrrfMVJvVr1ihrrvs0bdk67jpll+3pG6D52hzR8YqTerXjhD3Q9co+6fzlD3H4/Ufb0Z6v3kSL1ZdcQMdT9yjbq/O0Pdlx6p++AZ6v3iSL1Z9a8z1P3ENer+vxnqvtJI3Vecod6vj9SbVY+foe6nrVH3sTPUfY2Rui85Q70njtSbVQ+foe5nr1H3x2eo+/ojdV9whnpPGqk3qx4wQ90vXqPu981Q981H6t53hnrz2fYHI3Xfe4a6XzlSb1a9bYa6bzdS91lmqDcepxup+69mqPuNI/Vm1RtmqDvtmlROO0O98TjrpIprec7DNNdHQ9u8faTerPqvGerO83ZS2W2GetOP80yquJbndTrU12mWvX+k3qx60Qx1531trPxshrovNFJx3sen6fvQNp8YqTer/mOGuvO5N1a+N0PdlxqpOJ/zQ32dZtkXRurNqqfOUHeui8bK12aoO9dzk0quA6fp+9A2adNYecIMdee6eazkXAy1aZplud6fVPL/hGnqGNomz9mx8ogZ6s7/q8ZKXqtDbZpmWf4/OKnk/5HT1DG0Td7Txso/zFB33ovHSt7Lh9o0zbJ8XzCp5HuGaeqYtE0++yaVv5mh7nxWj5V81k9q01rL833SpJLvodbaf2x9ro0mlbvMUHeu5cZKrgXH2jW2Lt83Tir5nnJs37XW5dp5Usn3q2vtP2l9rvXHSv6vMGnftZbn++hJJd9jr7X/2Pr832pSyffvY/uOrcv/BcdK/i85tv/YuoxXjJWMd4ztP7Yu//eeVDI+M7bv2Lp8VzBW8l3D2P5j6x42VnGty3ckY/uPrct3M5NKxu/G9h1bl++Sxkq+ixrbf2xdxjvHSr5DG9t/bN0VRirO+O7YvmPr8l3jWMl3lWP7j63LePhYyXesY/uPrds1UnHG/8f2HVuX76LHSr7LHtt/bF3yJcZKvoMf239s3XUnVTz2JdSkfSwnQIAAAQIECBAgQIAAAQIECBAgQIAAAQIECBAgQIAAAQIECBAgQIAAAQIECBAgQIAAAQIECBAgQIAAAQIECBAgQIAAAQIECBAgQIAAAQIECBAgQIAAAQIECBAgQIAAAQIECBAgQIAAAQIECBAgQIAAAQIECBAgQIAAAQIECBAgQIAAAQIECBAgQIAAAQIECBAgQIAAAQIECBAgQIAAAQIECBAgQIAAAQIECBAgQIAAAQIECBAgQIAAAQIECBAgQIAAAQIECBAgQIAAAQIECBAgQIAAAQIECBAgQIAAAQIECBAgQIAAAQIECBAgQIAAAQIECBAgQIAAAQIECBAgQIAAAQIECBAgQIAAAQIECBAgQIAAAQIECBAgQIAAAQIECBAgQIAAAQIECBAgQIAAAQIECBAgQIAAAQIECBAgQIAAAQIECBAgQIAAAQIECBAgQIAAAQIECBAgQIAAAQIECBAgQIAAAQIECBAgQIAAAQIECBAgQIAAAQIECBAgQIAAAQIECBAgQIAAAQIECBAgQIAAAQIECBAgQIAAAQIECBAgQIAAAQIECBAgQIAAAQIECBAgQIAAAQIECBAgQIAAAQIECBAgQIAAAQIECBAgQIAAAQIECBAgQIAAAQIECBAgQIAAAQIECBAgQIAAAQIECBAgQIAAAQIECBAgQIAAAQIECBAgQIAAAQIECBAgQIAAAQIECBAgQIAAAQIECBAgQIAAAQIECBAgQIAAAQIECBAgQIAAAQIECBAgQIAAAQIECBAgQIAAAQIECBAgQIAAAQIECBAgQIAAAQIECBAgQIAAAQIECBAgQIAAAQIECBAgQIAAAQIECBAgQIAAAQIECBAgQIAAAQIECBAgQIAAAQIECBAgQIAAAQIECBAgQIAAAQIECBAgQIAAAQIECBAgQIAAAQIECBAgQIAAAQIECBAgQIAAAQIECBAgQIAAAQIECBAgQIAAAQIECBAgQIAAAQIECBAgQIAAAQIECBAgQIAAAQIECBAgQIAAAQIECBAgQIAAAQIECBAgQIAAAQIECBAgQIAAAQIECBAgQIAAAQIECBAgQIAAAQIECBAgQIAAAQIECBAgQIAAAQIECBAgQIAAAQIECBAgQIAAAQIECBAgQIAAAQIECBAgQIAAAQIECBAgQIAAAQIECBAgQIAAAQIECBAgQIAAAQIECBAgQIAAAQIECBAgQIAAAQIECBAgQIAAAQIECBAgQIAAAQIECBAgQIAAAQIECBAgQIAAAQIECBAgQIAAAQIECBAgQIAAAQIECBAgQIAAAQIECBAgQIAAAQIECBAgQIAAAQIECBAgQIAAAQIECBAgQIAAAQIECBAgQIAAAQIECBAgQIAAAQIECBAgQIAAAQIECBAgQIAAAQIECBAgQIAAAQIECBAgQIAAAQIECBAgQIAAAQIECBAgQIAAAQIECBAgQIAAAQIECBAgQIAAAQIECBAgQIAAAQIECBAgQIAAAQIECBAgQIAAAQIECBAgQIAAAQIECBAgQIAAAQIECBAgQIAAAQIECBAgQIAAAQIECBAgQIAAAQIECBAgQIAAAQIECBAgQIAAAQIECBAgQIAAAQIECBAgQIAAAQIECBAgQIAAAQIECBAgQIAAAQIECBAgQIAAAQIECBAgQIAAAQIECBAgQIAAAQIECBAgQIAAAQIECBAgQIAAAQIECBAgQIAAAQIECBAgQIAAAQIECBAgQIAAAQIECBAgQIAAAQIECBAgQIAAAQIECBAgQIAAAQIECBAgQIAAAQIECBAgQIAAAQIECBAgQIAAAQIECBAgQIAAAQIECBAgQIAAAQIECBAgQIAAAQIECBAgQIAAAQIECBAgQIAAAQIECBAgQIAAAQIECBAgQIAAAQIECBAgQIAAAQIECBAgQIAAAQIECBAgQIAAAQIECBAgQIAAAQIECBAgQIAAAQIECBAgQIAAAQIECBAgQIAAAQIECBAgQIAAAQIECBAgQIAAAQIECBAgQIAAAQIECBAgQIAAAQIECBAgQIAAAQIECBAgQIAAAQIECBAgQIAAAQIECBAgQIAAAQIECBAgQIAAAQLbS2C37dVcrSVAYBsJ7FFt/YNt1F5NJbAKAr+oTvx6FTqiDwQIEFgRAddDK3IidWNbCbge2lanS2MJENgBAq6HdsBJ1sWlE3A9tHSnRIMIECBAgAABAgT6ApKV+iIeb6bAMXWwK2zmAVfsWHtWf5IM9LMl7Vfbvl8uafs0i8AqCly6OvWJVeyYPhFYYYE3Vt+utsL9W3TX2uuNk+pAy5is6Xpo0c8A9RP4fYEr1aL3//5iSwgQWGKBV1Xbrr3E7Vv2prkeWvYzpH0ENl/g4DrkOzb/sI5IgMAMAi+tfW80w/52JUCAAIFTCuyqh++FstwC+csWhcBWCZy6Dpz4TsWvtqoR2/i4Z2/a/qO6PXkJ+3GOpk0ZPHR+l/AEadJKCexVvTGT2UqdUp3ZQQK5Hs/10HcrJPiu/8S310M/rl1/vv7dF75H2760zfldOLcD7HAB10M7/Amg+9taoP1+6HvVi2X8fmPZcdvrjZ9UQ/MdzLIV10PLdka0Z5UFXA+t8tnVt1UXcD206mdY/wgQ2CyBM9SBXBNtlrbjENjGAu+qtudLqH23cR+2sunfr4NnBoHLb2UjRo6dJKq0L3/JoxAgsFiBzB6Q99OLL/YwaidAYAECb2levwcsoO6dUGWSvHK9cciSdvbEpn03XtL2aRaBVRLI7AG5HrrcKnVKXwjsEIHXNa9f/5/Z2An/Zu2W66GbbWz3he91QtO+2y38SA5AgMDRRZDroauiIEBg2wm8onn9HrjtWq7BBAgQWC6BlzTvp5l5W1lyAbMwLPkJ0jwCBAgQIECAAAECBAgQIECAAAECBAgQIECAAAECBAgQIECAAAECqyIgWWlVzqR+ECBAgAABAgQIECBAgAABAgQIECBAgAABAgQIECBAgAABAgQIEFhyAclKS36CNI8AAQIECBAgQIAAAQIECBAgQIAAAQIECBAgQIAAAQIECBAgQIDAqghIVlqVM6kfBAgQIECAAAECBAgQIECAAAECBAgQIECAAAECBAgQIECAAAECBJZcQLLSkp8gzSNAgAABAgQIECBAgAABAgQIECBAgAABAgQIECBAgAABAgQIECCwKgKSlVblTOoHAQIECBAgQIAAAQIECBAgQIAAAQIECBAgQIAAAQIECBAgQIAAgSUXkKy05CdI8wgQIECAAAECBAgQIECAAAECBAgQIECAAAECBAgQIECAAAECBAisioBkpVU5k/oxq8BFq4InVXyi4vsVP6s4tuKIiovNWrn9CRAgQIAAAQIECBAgQIAAAQIECBAgQIAAAQIECBAgQIAAAQIETnUqyUqeBTtd4LQF8PSKj1XctyKJSWeo2KviAhV3rvhQxWEVO6FcsTr56yYO2Akd1kcCBAgQIECAAAECBAgQIECAAAECBAgQIECAAAECBAgQIEBg8wQkK22etSMtp8D9q1l3rchr4aUV16vYr+L8FbetOL5iz4rnVFy4QiFAgAABAgQIECBAgAABAgQIECBAgAABAgQIECBAgAABAgQIENigwB4b3M9uBFZF4LHVkUtW5Cfg3tnr1HH1+D0VmXXp9BX3qLhXbxsPCRAgQIAAAQIECBAgQIAAAQIECBAgQIAAAQIECBAgQIAAAQIEphQws9KUUDZbWYGfVc9uWtFPVGo7nISl/2keHLiyCjpGgAABAgQIECBAgAABAgQIECBAgAABAgQIECBAgAABAgQIENgEAclKm4DsENte4CtND06z7XuiAwQIECBAgAABAgQIECBAgAABAgQIECBAgAABAgQIECBAgACBLRSQrLSF+A69bQTO2bT0a9umxRpKgAABAgQIECBAgAABAgQIECBAgAABAgQIECBAgAABAgQIEFhCAclKS3hSNGmpBPas1lyzaVH7c3BL1cANNObg2udVFd+qyM/gHV/xjIrzVvy8QiFAgAABAgQIECBAgAABAgQIECBAgAABAgQIECBAgAABAgQILERAstJCWFW6QgJ3q76cseKnFS9cgX49pPqQpKsbVZytYq+K/SruUvHRigMqFAIECBAgQIAAAQIECBAgQIAAAQIECBAgQIAAAQIECBAgQIDAQgQkKy2EVaUrInCh6scjm748oW6/vs37dZNq/8ObPrytbi9fsXfFWSoOrTih4shmvRsCBAgQIECAAAECBAgQIECAAAECBAgQIECAAAECBAgQIECAwNwF9ph7jSoksBoCZ6puvLJin4r3VjxqBbr16KYPn6nb61ZktqiUkypeUfG+iqxTCBAgQIAAAQIECBAgQIAAAQIECBAgQIAAAQIECBAgQIAAAQILETCz0kJYVbrNBU5T7X91xUUqvlxx04pfbPM+Xbzaf9GmD/9Yt22iUrdbX60HL97m/dR8AgQIECBAgAABAgQIECBAgAABAgQIECBAgAABAgQIECBAYIkFJCst8cnRtC0ROHUd9aiKgyrys2iZgWi7//xbIA/saL6hc79/Nz8PpxAgQIAAAQIECBAgQIAAAQIECBAgQIAAAQIECBAgQIAAAQIEFiIgWWkhrCrdpgK7V7tfVJEEpRMrrl3xqW3al36zz90s+FHdfqO/svP4SyPrrCJAgAABAgQIECBAgAABAgQIECBAgAABAgQIECBAgAABAgQIzCQgWWkmPjuvkMBu1ZdnV9y84gcVf1rx4RXq32mbviRZaaystX5sX+sIECBAgAABAgQIECBAgAABAgQIECBAgAABAgQIECBAgAABAqMCkpVGeazcQQJPq77eviLJOplZ6X0r1vefNP3Ze41+7bnGeqsJECBAgAABAgQIECBAgAABAgQIECBAgAABAgQIECBAgAABAhsWkKy0YTo7rpDA46svd6tIQs/1K969Qn1ru9L+9NsZa8GZRvp3jpF1VhEgQIAAAQIECBAgQIAAAQIECBAgQIAAAQIECBAgQIAAAQIEZhLYY6a97Uxg+ws8pLrwd003/qluk8C3a6RbSfr5zMj6ZV31oU7DrlH3j5rQ0CtNWG4xAQIECBAgQIAAAQIECBAgQIAAAQIECBAgQIAAAQIECBAgQGBmATMrzUyogm0u8MBO+w+v+29dIx6wTfv7kWr3sU3b04dTD/QjMy7daWC5RasvcNPq4ssr/nL1u6qHBAgQIECAAAECBAgQIECAAAECBAgQIECAwBYIPK6O+aOKe23BsYcOeXQt/HXFEUMrN2nZG5o2vGCTjrfdDzPmtVXPr2V4Hm3386r9O1RAstIOPfG6vSMFHtr0+sC6fW3F5SpOW3GWihtVvK1ir2YbNztHYPfq6gsrDq14ZsX+O6frekqAAAECBAgQIECAAAECBAgQIECAAAECBAhsQOBNtU8SfS7T2Xe3up9kpC9NqO+2tfx0FYdNWG8xgVkEPL9m0bMvgS0QkKy0BegOuVQCe1drcvE0bdxxqVq/vsa8qDZ/fLPLtev2fRU/rjih4lUV56o4pOLnzTZudoZAfg40r4O27LMzuq2XBAgQIECAAAECBAgQIECAAAECBAgQIECAwAYFLl77/ari0539z1f3k4z0yQl1vq5Z/poJ6y1eXYG/q65lbHKRxfNrkbrqJrAAAclKC0BVJYElFrh/te06Fa+v+E7FSRXHVzyt4tIVH6j4fIWycwTyHPjnip9UvKziEzun63pKgAABAgQIECBAgAABAgQIECBAgAABAgQIrFPgzLV9/gD+CxU/6+ybBKaUSeMMd6l1p6l4VGcfd1dfIElsmUxh0clKnl+r/1zSwxUTyIwaCgECO0vgjdXdxKTSXkxOWm/56gn8bXUpoRAgQIAAAQIECBAgQIAAAQIECBAgQIAAAQIExgQmJSVNWt6tq5vcNHYM67Ze4PzVhMtXvGTGplxvxv3Xs/t2e37tW527esWLKzJTmUJgRwmYWWlHnW6dJUCAAAECBAgQIECAAAECBAgQIECAAAECBAgQIECAwIYFJiUlTVq+4QPZcUsEzlNHfWbFZytuMGML9qr9D52xjlXe/YzVuRdUfLzi5hW7rXJnRHiJ2gAAIABJREFU9Y1AX0CyUl/EYwIECBAgQIAAAQIECBAgQIAAAQIECBAgQIAAAQIECBAYEpiUlJTlmR3m00M71bKjK35dccTA+pNrWWbFydj16SoeXPGRih9V/LgiyRyPrPjDirGSn5nLz4G9teJrFanz+Obx/et274ppyldro7T18JGN92+2yXZXnLDdPrX84RX5abyfVHy34l0Vt2u2//mE/bqLL1sPktCSn937acWXK46qyIw88yz5ab9/rTi24i8rYv+W3gGSTHPdildVfL4i7cn5+UxFzushFbtXpNy14riKg5vH+YWPWLXxymZ592YWr7HnV3uMy9Sd51R8sSJtP6HifRX3rVjrudXWMek25zI+d6h4e8X3KvL8y7GeVXFARb98sxbk+XDRiv+s+FDFDfsbeUxgVQX8DNyqnln9IkCAAAECBAgQIECAAAECBAgQIECAAAECBAgQIECAwGwCD6rdb9Gp4nzN/UfX7QM7y5NwkUSU93SW3b3uv7vzeOxuZuHJz449v6Kf2JFEqETacaWKJIL0S/Z5RcUleiv2q8eJC1c8sb/TAh/vX3Un2Sc/p9aWJFNduYkk/Xyns27o7n1q4ZMqujPuZOajxM0qksD1kKEd17HsbLVtErlyrtK+tOmfK5K49INOPUkk+6+KG3WWtXf/uO4kbl+RtiUJJ9slQeukipzbEyu6/f16Pe6W/evBrF69Kk/x8KH1KNG1TPLaWSouV3HPihtXJDFuIyXJXS+vyHnplrxe/qLizyquWZHkqLZ8u+4cVJGErpzHXRWvrsg2D654U4VCgAABAgsQSKZoMqX3XUDdO6HK71cnc9GXC7dlLPlQTvvajOllbKM2EVgVgfdXR/J+2v5Fy6r0Sz8I7ASB/Ac8r9/+FzA7oe/z6GP+Gi3XG/mrrWUs+RIm7csXHQoBAosVeEdVn/fTfMGoECCwvQReV831/5mNn7MMBOV6oz8osvEa57tn/lo97bvdfKtVGwECAwKZUSLvp1cdWGcRAQLLLZAEm7x+D1zSZj6j2pXP843EdTp9yvtU6jhioJ/pf9bl2iGJSH9dkSSfzHZzqYrnNOuzTZJ3+uW0teBTzTY/rNskevxJRb5zy/dGSQRJnd0y1p6v1oY51uG9fboP92+2yXb9mZX2qGUfaNZnBp97V5y9Ikk7Sep6crMuyTzZ/wUV/XLLZl3WJ8nqvBVJGNq3eZzliW4iWT2cupyptkzCWbxST5KH7leRma2Gyh2a7TKD0N9UnLMi7TlDxdUr0qckOfVL65A+TCrz8Bo7n3erA7demcEo5ys/wZbZpG5dcVyzPgZJXlpPaY+bRKw8j2OaxK2c6yRu5dy35/mDa1R8UK1/Y0Xb1szQFFtleoGX1KY5D0lqVAgQIDBRQLLSRJqpVkhWmorJRgR2hIBkpR1xmnVyRQUkK812YiUrzeZnbwKrJCBZaZXOpr7sNAHJSrOdcclKs/nZm8AqCWSwNINzkpVW6azqy04RWPZkpe552K8eJJEi32l1S35GK8szE9CkMpZMkvevNkFjUnJGjplt8rNa/XJ4sy71XKW/csLjsfbMmqzUTTS644Tj/0vT5vSpn6yUGX+SOJN1T5uw/1HN+mMnrJ+0eJ9akeSt9o/svlL371Wx1k/kPbM5XpJ91lOmSVaa1SvtmXQ+0992TPXFExq+by1PslG808/1lPa42fcfJuyY5e3ze78J23QXX74evLazz5vrfj8hbopqduQmkpW20WlPtqNCgAABAgQIECBAgAABAgQIECBAgAABAgQIECBAgAABAgTGBNrZn/ozxFy22am/fKyuoXWZ6OBtQytqWZtokp/VOnVvm9s0j5OokDq2uiT5JuW4iudOaMwTJizP4mtVZOaiX1Vklqih8tRm4QXq9tJDGwwsS1LZ8RUPr8gfAd61IvvnJ99+VjFW8osqKZmtqu8/tt8062b1GjvGobUysz+lTEomSnJaZoZKyc+1rZW41Wx6ipv4PWVoRS17WWf5hSZs012cn4G7QUVmB/uvivx83HsqksDU/VnB7j7uE9h2AplSTSFAgMAiBTLNYX7jViFAYHECko8XZ6tmAgQIzENgz6rE9dA8JNVBYLKA66HJNtYQIEBgGQRcDy3DWdCGVRdwPbTqZ1j/CCyHQPvT2/2kpCQrZeaYD8/YzGNG9v9SZ11my0myTco5Ki7S3E8yxzKUNqnrTdWYuAyVJMh8oSLJQv1y7WbBJ+q27Wd/m092FiQB5iP9DQYeP7CWnbkiswjlZ/H+u2JS+/q7J+EmP/+WxKgkzqSu9G8eZVavsTa0M219qjY6fmTD19S6R1TkuZWfEHvryLZDq/Ka+PHQilr25c7y1D9tyevpLyvyM3K3rbh+xSsrhmYXm7ZO2xFYGgHJSktzKnZkQy5evd69ItMLKhsXeO/Gd92UPV+/KUdxEAIEIpC/aMh/XhQCBLaPQP5zn+uhz2+fJi9lSzMV8jKX7l9PLXM7tY3AKghctDqRn8hVCBDYPgL5a+FcD318+zR5KVt61FK26neNOqLuJhQCBBYvcMk6xDsWfxhHIEBghwoMJSsl+eKCFZ+r+OGMLt2kjn5Vv+gs6CZoZgaitqQNy1DO1TRire/8koA1lKyUnyVLyXv6NMlEZ2+2X+vmTrXB/SuuXJHknM9UZDag51VMSrRp6/zfupP9/60iyWlvrPhsxTMqjqzIz8pttMzqNXbc8zQr1zoX3efOH41VOGHdRp67E6r6zeJ8b3yvittUZKan+P57xauyUiGwCgKSlVbhLG7fPvyyaXqmMFTWL9BeiLW/cbr+Gha7R/dCcZoLqcW2Ru0EVltgt6Z73k9X+zzr3WoKtNdDy/p5vuzqroeW/QxpH4HNE2ivh9r31c07siMRIDCrgOuh2QRdD83mZ28CqyTg+6FVOpv6QmB5BA6vphzWac75m/vdGXkyg2KuSZIUkuSXtuQnt/ITVuspmUFmveUsnR3anypbbx3z3D7j7zFJWas9k9a3fTppijpynG4iV3PowZtX19JEZg66X8VNKpJ89JiK/6h4asXxFZPKkbXifyr+vuIOFX9c8c8Vj6j4p4rU8/OK9ZR5eI0d73TNyp+ObVTr8tzLd7T5PM3sU+stG3nu9o+RP+K4aUVmvbpqs/L4un1yRc7PpOdLs6kbAttLQLLS9jpfq9baT1eHrlCxf0WmOlTWJ/D92jy/sXrFivx26bKVfGDmAuAaFeudKnHZ+qI9BJZdILMHXKbC1J/Lfqa0j8DvC2QGgatXXLji2N9fbckaApkG+0wVmRr76DW23YrV+YunP6zIFz/+6mkrzoBj7iSBzB6QL1vzV50KAQLbS+Cj1dz8dEf+cthMses/d9+sXfKX9DeveMX6d1/4HifUETLYdvuK5y/8aA5AYGcL5P9Euyq8l+7s54HeE5i3QGYtSkJKv+Rnx/rltLWgu22+E9mMkvGytqQNm1XaJJj+8U6uBUkeOnVFZsQZK21SU3+bdpaiN9SKfK8075KfcTu0IrM63bfijhV/W3GfiiQz/UvFMRVD5cu18J4V+Rm421XcuyIzaz204moV+Z4uBtOWeXiNHSvXoymnH9uoWd8m/v5wjW3nvTrXy/m5t7tXJOkvJeM+T6p4eYU/zGpQ3KyWQPuXN6vVK70hQIAAAQIECBAgQIAAAQIECBAgQIAAAQIECBAgQIAAgVkEkpSSBI7EjZuKMhNPuyy3mfEl5bq95Uc2yxd9k+TttgwlUW3k+O0vhoxN/HHekYq/0aw738g2WZWk/aHytWbhUKLY0PYbXfaF2vEeFenLQyq+XZHkqExCkD8quEHFpPKDWvG0iotUZAaulIMrbtHcX8/NrF5jx2onzFjrudG1/tJYhXNcl4S+vH7SxsdW7Fvx2opdFZeveGmFRKVCUFZTQLLSap5XvSJAgAABAgQIECBAgAABAgQIECBAgAABAgQIECBAgMC8BC7WVJSZwrvlks2DJLdsRUmiR2b7Sbn+nBrQ/txWO8vNULW7hhY2yz7U3F5zZJv8espFJ6xvZxDPbOwXn7DNPBd/pyp7ZMV+FZnhJ7+Ok/P6Z1McJMk0j67432bby/T2aWdZmjSLVDaf1WusmW9sViZZaSxh6UbNdvkZu836RZs8v+7UHPeIus3z4YYVb2uWuSGw0gKSlVb69OocAQIECBAgQIAAAQIECBAgQIAAAQIECBAgQIAAAQIEZhZok2a6yUoZa87yzMjz9ZmPsPEKXtbsepu6vdzGq/ntnp9r7l2vbod+7i0zIv3FyHHy010psbnphO3uVcv3mrAus+t8t1n39Lo9zYTtsjizW82rnFQVJWkmiWlJmnlvp+Ld1zhIkq9S2kSvdvM8N1LaZLd2efd2Vq+hOttlb6o77XMzsxcNlcxolPOR8uKKfh9yDtPGJHLNs/ykKntURZsk9pl5Vq4uAssuIFlp2c+Q9hEgQIAAAQIECBAgQIAAAQIECBAgQIAAAQIECBAgQGBrBdpkk090mpGZapJI87GtbdqpHlPH/7+K/Gzbmyv+tiKz1CQJ5dIVd61IAtC05RXNhues29dU5Ce59qk4e8WhFW+vOHWzzdBNkqc+2ax4Xt3eoyIJTrHKz6YlaeYRFd9vtunf/KwW/FWz8KC6zaxFt6rIz7WdpeICFZkJ6NkVScaZd8nP4MXrXzsV/0vdf0FFfiYuDilJYLpgRX7KLN7Z779/s+Z3pZ1x6Rq16J4VSf5KdH92bVavUxyw9yAzJbVJRjer+0k6SkJb2hDL/GxdzueZKjLD1IMquiV9fGFFzvszK/Y/5eqZHn2x9n5wxbdmqsXOBLapwNjvbG7TLmk2AQIECBAgQIAAAQIECBAgQIAAAQIECBAgQIAAAQIECMxJIAkbSS75SkU3wSY/FZayVT8B1xz+VN+rO5kJKElG+1c8sYl2fW4nJQZ1t2nvJynnthXXqji4ojvDULb5acX1K3K8M2ZBryRBJokxb6lIwtRTm+hu9qx6kJ+we3h3Yef+UXU/SVZJEorzSyZs98EJy+e9eO+qMCaJlPy8WyZG6U6OksSbfnvSz7tXnLsiyU9tAlS2O7AiZR5eTVWDN0mgunNFZqlK0lGiX75RC25QkaS3bkk+RfreliStKQQIzEHAzEpzQFQFAQIECBAgQIAAAQIECBAgQIAAAQIECBAgQIAAAQIEVlQgM/kkYaM7q1K6eqmmv1s9s1Ka8eGKzKJ0v4okF2WWnF82t5ltKQkz05bsl2Sk+1S8r+KHFUmoOa4iyTeXqHhrxWcrJpXP1YokGT2u2S6zJSWp6h0Vt67IzEmfqhgr/14rc6zHV3y8IglXSRJK395T8eiKNnmo7i60PLRqf0Bz3Bw/5RcVX6jI7FFXqkh7+iWzBl2l4kUV36zIPkkMeldvw3l49Y/dfZxZqPJ8TeJYzlsSzn5QkaSpJFlduLlfN6co+Wm8f67IT7ZlBqj+a6C/vccECBAgsA0E8iGUD9RkFCvrF8gFSaZTzNSTy1h+1LQvGecKAQKLFXh/VZ/30/z+tUKAwPYSyF9X5fV7wPZq9tK09rvVklwPHbI0LTplQ05s2nfjJW2fZhFYJYF82Zv300zlrhAgsL0EXlfN9f+ZjZ+zDPjkeih/ub+M5YSmfbdbxsZpE4EVEzi6+pP306uuWL90h8BOEMjsPHn9trPM7IQ+6yMBAgQWIZAZyPJ+muQ5ZckFzKy05CdI8zZN4KJ1pCdVJBs2SUDJbj624oiK9jd4N60xDkSAAAECBAgQIECAAAECBAgQIECAAAECBAgQIECAAAECBAgQWEUByUqreFb1aT0Cp62N8/ukmZ7yvhVJTDpDxV4VmdIyv1/6oYrDKnZCuWJ1Mn+NlzDDw0444/pIgAABAgQIECBAgAABAgQIECBAgAABAgQIECBAgAABAgQ2UUCy0iZiO9RSCty/WnXXirwWXlpxvYr9Ks5fkd94Pb5iz4rnVOS3ShUCBAgQIECAAAECBAgQIECAAAECBAgQIECAAAECBAgQIECAAIENCuyxwf3sRmBVBB5bHblkRX4C7p29Th1Xj99TkVmXTl9xj4p79bbxkAABAgQIECBAgAABAgQIECBAgAABAgQIECBAgAABAgQIECBAYEoBMytNCWWzlRX4WfXsphX9RKW2w0lY+p/mwYErq6BjBAgQIECAAAECBAgQIECAAAECBAgQIECAAAECBAgQIECAAIFNEJCstAnIDrHtBb7S9OA0274nOkCAAAECBAgQIECAAAECBAgQIECAAAECBAgQIECAAAECBAgQ2EIByUpbiO/Q20bgnE1Lv7ZtWqyhBAgQIECAAAECBAgQIECAAAECBAgQIECAAAECBAgQIECAAIElFJCstIQnRZOWSmDPas01mxa1Pwe3VA3cQGMOrn1eVfGtivwM3vEVz6g4b8XPKxQCBAgQIECAAAECBAgQIECAAAECBAgQIECAAAECBAgQIECAwEIEJCsthFWlKyRwt+rLGSt+WvHCFejXQ6oPSbq6UcXZKvaq2K/iLhUfrTigQiFAgAABAgQIECBAgAABAgQIECBAgAABAgQIECBAgAABAgQILERAstJCWFW6IgIXqn48sunLE+r269u8Xzep9j+86cPb6vbyFXtXnKXi0IoTKo5s1rshQIAAAQIECBAgQIAAAQIECBAgQIAAAQIECBAgQIAAAQIECMxdYI+516hCAqshcKbqxisr9ql4b8WjVqBbj2768Jm6vW5FZotKOaniFRXvq8g6hQABAgQIECBAgAABAgQIECBAgAABAgQIECBAgAABAgQIECCwEAEzKy2EVaXbXOA01f5XV1yk4ssVN634xTbv08Wr/Rdt+vCPddsmKnW79dV68OJt3k/NJ0CAAAECBAgQIECAAAECBAgQIECAAAECBAgQIECAAAECBJZYQLLSEp8cTdsSgVPXUY+qOKgiP4uWGYi2+8+/BfLAjuYbOvf7d/PzcAoBAgQIECBAgAABAgQIECBAgAABAgQIECBAgAABAgQIECBAYCECkpUWwqrSbSqwe7X7RRVJUDqx4toVn9qmfek3+9zNgh/V7Tf6KzuPvzSyzioCBAgQIECAAAECBAgQIECAAAECBAgQIECAAAECBAgQIECAwEwCkpVm4rPzCgnsVn15dsXNK35Q8acVH16h/p226UuSlcbKWuvH9rWOAAECBAgQIECAAAECBAgQIECAAAECBAgQIECAAAECBAgQIDAqIFlplMfKHSTwtOrr7SuSrJOZld63Yn3/SdOfvdfo155rrLeaAAECBAgQIECAAAECBAgQIECAAAECBAgQIECAAAECBAgQILBhAclKG6az4woJPL76creKJPRcv+LdK9S3tivtT7+dsRacaaR/5xhZZxUBAgQIECBAgAABAgQIECBAgAABAgQIECBAgAABAgQIECBAYCaBPWba284Etr/AQ6oLf9d045/qNgl8u0a6laSfz4ysX9ZVH+o07Bp1/6gJDb3ShOUWEyBAgAABAgQIECBAgAABAgQIECBAgAABAgQIECBAgAABAgRmFpCsNDOhCra5wAM77T+87ifGynNr5R3HNljSdR+pdh1bcUDFAypeXfGLXlsz49KdlrT9mjVfgYtXdQ+q+HLFgyt+3qk+s289puI0FUnm+0pnnbsECBAgQIAAAQIECBAgQIAAAQIECBAgQIAAAQIECBAgQGAmAT8DNxOfnQlsK4GHNq09sG5fW3G5itNWnKXiRhVvq9ir2cbNagtkFrE/q/j7itv0unr3epyfRbxjxSN76zwkQIAAAQIECBAgQIAAAQIECBAgQIAAAQIECBAgQIAAAQIzCZhZaSY+O6+AwN4r0Idpu/Ci2vBSFUlQuXYT3X1PqAeHVLyrYs/uCvdXTuD0nR7t0+vd2LqVg9AhAgQIECBAgAABAgQIECBAgAABAgQIECBAgAABAgQIENhcATMrba63oxHYaoH7VwOuU/H6iu9UnFRxfMXTKi5d8YGKz1coqy3w5OreiRUfrXhZr6vPr8dfrPh6xVNWm0HvCBAgQIAAAQIECBAgQIAAAQIECBAgQIAAAQIECBAgQGCzBcystNnijkdg6wXeWE1ITCoXn7TC8pURSIJSP0mp7dyn684FVqanOkKAAAECBAgQIECAAAECBAgQIECAAAECBAgQIECAAAECSyVgZqWlOh0aQ4AAAQIECBAgQIAAAQIECBAgQIAAAQIECBAgQIAAAQIECBAgQGB1BSQrre651TMCBAgQIECAAAECBAgQIECAAAECBAgQIECAAAECBAgQIECAAAECSyUgWWmpTofGECBAgAABAgQIECBAgAABAgQIECBAgAABAgQIECBAgAABAgQIEFhdAclKq3tu9YwAAQIECBAgQIAAAQIECBAgQIAAAQIECBAgQIAAAQIECBAgQIDAUglIVlqq06ExBAgQIECAAAECBAgQIECAAAECBAgQIECAAAECBAgQIECAAAECBFZXQLLS6p5bPSNAgAABAgQIECBAgAABAgQIECBAgAABAgQIECBAgAABAgQIECCwVAJ7LFVrNIYAgVUU2LM6tdcqdkyfCCyRgOTjJToZmkKAAIEBgVPXMtdDAzAWEZijgOuhOWKqigABAgsQcD20AFRVEugJuB7ylCBAgAABAgQIENg2ApKVts2pWsmGXrx6tXvFV1ayd5vXqfdu3qE2dKQ3bGgvOxEgsBGBA2qnT2xkR/sQILBlApeuI+d66PNb1oLVOPCbl7wb/7nk7dM8AqskcNHqzPtXqUP6QmAHCPxJ9THXQx/fAX1dZBePWmTlc6j7P6qOhEKAwOIFLlmHeMfiD+MIBAgQIECAAAECBDYuIFlp43b2nF3gl00Vv5q9qh1ZQ/uXMr+u3ieWrXT/kmcZ27dsXtpDYBaB3ZqdvZ/OomhfAlsj0F4PLevn+daoTH9U10PTW9mSwKoLuB5a9TOsf6ss4HpotrPremg2P3sTWCUB10OrdDb1hQABAgQIECBAgACBhQm8q2o+uWLfhR1htSv+fnUvA5uXX9Ju/qhp38FL2j7NIrBKApk9IO+nmbFOIUBgewm8pZqb129mRlPWL/Dd2iXXQ4esf9dN2ePEpn033pSjOQiBnS2Q2QPyfnq5nc2g9wS2pcDrmtev/89s7PR9s3bL9dDNNrb7wvc6oWnf7RZ+JAcgQODoIsj10FVRECCw7QRe0bx+D9x2LddgAgQILJfAS5r30ystV7O0ZkjAbxgPqVhGgAABAgQIECBAgAABAgQIECBAgAABAgQIECBAgAABAgQIECBAgMDcBSQrzZ1UhQQIECBAgAABAgQIECBAgAABAgQIECBAgAABAgQIECBAgAABAgQIDAlIVhpSsYwAAQIECBAgQIAAAQIECBAgQIAAAQIECBAgQIAAAQIECBAgQIAAgbkLSFaaO6kKCRAgQIAAAQIECBAgQIAAAQIECBAgQIAAAQIECBAgQIAAAQIECBAYEpCsNKRiGQECBAgQIECAAAECBAgQIECAAAECBAgQIECAAAECBAgQIECAAAECcxeQrDR3UhUSIECAAAECBAgQIECAAAECBAgQIECAAAECBAgQIECAAAECBAgQIDAkIFlpSMUyAgQIECBAgAABAgQIECBAgAABAgQIECBAgAABAgQIECBAgAABAgTmLiBZae6kKtyGArtXm29R8aKKL1b8qOKnFcc1yw7ahn3SZAIECBAgQIAAAQIECBAgQIAAAQIECBAgQIAAAQIECBAgQIDA0glIVlq6U6JBmyxwSB3vsxUvq7h1xfkqTlexd8X+zbK31+0DK3ZCuWJ18tdNHLATOqyPBAgQIECAAAECBAgQIECAAAECBAgQIECAAAECBAgQIECAwOYJLHuy0nmK4noVV6vYa/NYHGkHCSRB6QIV3694RMWBFWerOHfFjSo+VrFbxaMrrlmhECBAgAABAgQIECBAgAABAgQIECBAgAABAgQIECBAgAABAgQIbFBgK5OVLlVt/mjF7Sa0/TG1PD/D9d8Vb6v4csW1JmxrMYGNCvxN7fi4iswi9NCKD1acUPH1itdUHNzcr5tT3SP/KAQIECBAgAABAgQIECBAgAABAgQIECBAgAABAgQIECBAgAABAhsT2Mpkpcxoc8mKPx1oehKY/qFi94qTK/KzVGev+K+KzLakEJiXwA+rojzXkqA0VL5bC1/frMjzVSFAgAABAgQIECBAgAABAgQIECBAgAABAgQIECBAgAABAgQIENigwFYmK7WzJL281/ZT1+NHNcteUbdnqjhXxbsrTlfx173tPSSwaIE2kSk/B6cQIECAAAECBAgQIECAAAECBAgQIECAAAECBAgQ2CkCe1RHj6n4dsWVd0qn59jP81ddx1d8ouLMc6xXVQQIENjWAluZrJSf3Up5T0/wpvX4vBWZ0eZOFT+q+GbF3zXb+Sm4HpiHCxe4SnOEXEQoBAgQIECAAAECBAgQIECAAAECBAgQIECAAAECBHaKwH7V0atXnLXixjul03Ps58FVVwwvVnGFOdbbr+rOtSC/VvSFir2b+GKz7M/7G3tMgACBrRbYymSl0zad/1YP4e7N43+r2+931n2ouZ/sU4XAZgncoQ7UJivlObkKJRdFr6rIa+9nFcdXPKMiSYI/r1CWS+Cgak4uLt/WNOsidfvciq9UnFTxjYr/rLhcs37o5uhamDrav3j4k7r/uorvNMufOLBTEkfzPPl6RY7z1Yo3VdyqIj/RuVa5YW1wVMVxFXmepZ73VTypws95rqVnPQECBAgQIECAAAECBAgQIECAAAECBAgQWA6BjEfkD/ozVvDmBTXpFlXvXy2o7q2uNr8elDHvr1W0493zbtP+VeFTmkrvVbcZl0m0v1j0r3U/CVMKAQIECJRABr4zeP6HHY1klGbZLyuG3jDzIXhyZ3t3t7fAu5rzue8SdCOJe2ds4o/q9pCKIyuzy2P8AAAgAElEQVR+VfGLinywL1vJhU1eL5dfR8Me0uyT/frxvVp2y87ydvazdVR/ik0zK1qOkeQoZeMCbbJS3jOvWdG69s9fnqttsmf/aG2yUhKQ8lcPeS/t7t/9ec383Oare+v7x0rS0pn6B2keZ/8kT/X36T6+6IR9Ld64wPtr13w+XnzjVdiTAIEtEnhL8/qd9XN3i5q/5YfNbKz5jMm12zKWE5v2+avDZTw72rRqAu+oDuV6aCyJf9X6rD8EVkUgf0zj/zMbP5uZkT7XQzfbeBUL3fOEpn23W+hRVE6AQATyHWDeT6+KgwCBbSfwiub1e+ASt3y3atteC2zfl6ruDyyw/q2u+tTVgGn+EHyj7cwfj+eaMH+E3i+vada9vL/CYwIrKPCS6lOuh660gn1buS5t5cxKxzWauzqqSaRIeW1FPpS65Qz1YM+KH/eWe0hgHgKZsSvJOokkhSQz/PYVz6q4TEUyjrd7uUl14OFNJzJLT5KcMg3kWSoOrciXR0c2690sn8C5q0n5D8tnK65fcfaKnLvrVnyyIv9RyPP0ahWTytVrxYsqkuj2wIokkl27IslJbfmPupNZkfJB/piKJBYlqTSD6PevyHtwfo4zH/ZDJTOQ3bxZkbpyzOx7UMU9K7L+U816NwQIECBAgAABAgQIECBAgAABAgQIECBAgMDyCyQRJn8IvYiSySzy6x+rXDIxQibrWES5RFXaJq7n1y365Z+aBdkm1goBAgR2vMBdSyAfbJny7h4VT28eZ9nQ73VmRpGs+2iFshoCyzSzUpIp8vzqRy4c3lORZJ5lK+udWSkJLenfpytOM9CZfWtZd9aeWWd4MLPSAPIGFiXJp31eJpFun4E6zlrLvt1sd8zA+vxVVVvHF+r+eQa2yaIkOrXb5T16qCQ5qt3mNr0Num1NYpOyeQJmVto8a0ciMG+Bt1SFSRCd9XN33u3aLvWZWWm7nCntJLB4ATMrLd7YEQgsSsDMSrPJmllpNj97E1glgXwHmP9fmllplc6qvuwUge0ws9Iiz8Wjq/KMO6zyzEqL9Pv3xi/jf0Mlf+z++Wabpw1tYBmBFRIws9I2OplbObPS88opg+bnqnhqRTswnjfJ9w4YZqaPlFxwKwTmLXBsVZgP68RpKy5QceuKzEB0xYpMjXh4xXYt+Wmo9qe3/rHu/3SgI0mEefHAcov+H3t3AT9ZVb9xXP7E0i0hCywd0iXN0ikgjYq0ICCiKCUKAiIg0iiSC6IisITCgrC0CEiHSCywdJd0/58HztHL9c7Mnbz3znzO6/UwMzfPfc8vhr3f3znlEThJXXkjozseFevUsHwlPU6fsU1ctL2eeH7prLZdWPioHv3hNqtdpoVXhxXbpDb4Rnj9hB6PzNqZZQgggAACCCCAAAIIIIAAAggggAACCCCAAAIIIFA5ARdDuqDom6meLx+WXxGWD9OjZ1jwPeB3ldeUvyk7Kun70sO17A7FM0G4La7EP5b2o/fN09J98P2w3ykeMMN9eFw5TUn+seAieu171b5f4hGjnlN8L9CzrdRqvofo2SpOVjxAgO/XvK/4/tqflFrTksf++ZqGKsmW7vswrczr5+OMp2waDuhrzGo+7+lhxWZ6TL8PWfuwDAEEEOh7AU9rNEJ5SPEvo72UrB+QnsPTo9uMURZWaP0hUKaRleqJHqeV/kXuD2LD6m3Y43XNjKy0TbgGX8cMdfrpD5nxg2C7IzwwslId6CZWJT/Eetq2Wi35Id6jHyXbaL3w++op5Oq1vJX1e4Tj+XvC8yzH5qp9n8dFVbTeCjCyUm+9ORsCnRRgZKX2NBlZqT0/9kagnwQYWamf3k2uZdAEGFmpvXeckZXa82NvBPpJwP8G6H+vY2SlfnpXuZZBEajCyEr++eJ///d9pGSL9zBcEOTZG5IzeMT7TfHRBT3JdoBejFFeVbyNC4v8Osb3jvO0ZB9W0Q7+g/30uf3a55lP2UpxkVHWNu6DryOrxRGg4n42+ShxHE/1FgffSO4f++f9hqYO3I6fD7VY4vz1Cq1cSBX7vVCqD7xEoJ8EGFmpQu9mVmFQL7vvitZtlLkV/zA9Qvk4owP+Qb+M4uIJpoHLAGJRVwUOCUd30dzqXT1T9w7uwkA3f0h0dXit5g+TtPIKuDq/VkuOllSrIO3eWjuH5TOHRxct1WsuMHXz90RyFKd43ri+3jFYhwACCCCAAAIIIIAAAggggAACCCCAAAIIIIAAAv0h4PsLFyqeecEj/fi+1LTKcOVmxc2j+iSLeX6m1773G0cEui+89jLH946bae6DR0dykZP/+HtqZXZlX8WFRFMqLpg6WfG5/Iff7qP320V5WxmiHKVkNReV+Y+2f6DMpfiPuT1by6qKC6w8ytGxikdgara14udzLB1O9JYe76lz0ju1ztfn5nvuNAQQQKBwgaKLlQoHoAMI5BB4UdvEIrrJc2xfxk38YcnNxUr1WqP19fZlXfcFXNFfq3kquNgmqbFRvSFTXXjkD+FuWdMEJg/pD72x+cO+m3+f+IO+G19HAYIHBBBAAAEEEEAAAQQQQAABBBBAAAEEEEAAAQQGQMAFOh58wqMSuWDoWeVl5TplLcWjY7t9LTx248F9+LfiqdquVTyS0mPKYUqcEWLBsNzFTJcr7qP/UPw3ikdOcvNMFtOF58mH2/XCU8wdrbg4ySMVeQq5q5Udw4az6XGe8LyZh1b9YrGSZ1+wf63mUaBuCyspVqqlxHIEEOipQJHFSl/XlZ6ruNo0TztSG12k8AM0jxbbdFJgXh0sfq+4IryKLVZLT9ig8xM0WM/qYgVi0VlWLyZNLGylWMgfYmMxU/JYWeeaLLHQczK7uaAvnrdeP7OOxzIEEEAAAQQQQAABBBBAAAEEEEAAAQQQQAABBBCotoBHLEr+YXW8mtf15LLwopVCnmZUTtHGyT+4jvtenDjIqXruPqVbcps50isbvI6jR3mz9FRvDXb9z+pW/GYNe4/NcZK4Tdwnxy5sggACCHRPoMhipc11WR4GcL2cl+eb4BsoO+fcns0QaCTgkWSyKqOT+/l75NCwwKPNXNXooCVdH6d+88g3U9XpY3JKrzqbsaoggXofIF3NH5un2GylxWnmPDVnvRb/Z8LDpvqvI2J7PjxptH+9Y7MOAQQQQAABBBBAAAEEEEAAAQQQQAABBBBAAAEEqidwbZ0uPx7WJf8Yus7mLa/6e409n04sTxYWJTdPbtNsPz0zRhzZqNHAATW6+OloULVaLb84+4VHiGrU4jbTNNqQ9QgggEAvBIosVpovXODonBcai0SG59yezRBoJDCRNnBRh4d53F5ZVHHxkgt6Zlc8d66Hp9xQcTtcicNUhkWVefD8vLGtUqfXjFxWB6cEqzx8aq22bljhYUc9FGkr7a9hJ8/T7GK+Wm39sMLDiianpov/E+D9i/z9UqvfLEcAAQQQQAABBBBAAAEEEEAAAQQQQAABBBBAAIHuCNSbncR//OzW7XsH8Y+y01foadBieyG9MrxObpPVT9832VLxzEEPKp5yzgVKvi/j1LuvotUNWyt+sVgpz/3LWKwU92nYITZAAAEEuimQ9YO2m+dLHnum8OLRnCd8Mmw3Q87t2QyBRgLxg8Oa2tBDPrqgxyPDeA7bR5Q/Kcsr/qDxS+UgpartLnV8TOj8PnocP+NCPOLSdhnLWVQeARfVZY2M5Z+nu4RuugA0TwV91lX9Tgs9ndvMyq5ZG2iZi6Ji0ZSHU002f8+4DVO+l1zBcwQQQAABBBBAAAEEEEAAAQQQQAABBBBAAAEEEOhrgbdLcHWeJaVRSxYlNdo2rvf9af8B9x8Uzxw0heL7in9RRioXKO22VvxigVQc1aleH+I249XbiHUIIIBArwSKLFZ6r8mLjH1NjuLR5CHYHIHPCXjOWk+d9QvlBsUFSm8o7yue2sofOrxuEWUvxcVNVW4HhM4vocdLlCWViRUP9+iRcjyK1JCwDQ/lE/DXnwuVrlbWCc89Cpife+Q5V8L7g+ZPlVbb3drxqLDzr/T4c2UuxaOQzaLsqcSCpL/puYubku1SvRgVFhypx+MUf50NVeZVPFrZeUpyyrqwOQ8IIIAAAggggAACCCCAAAIIIIAAAggggAACCCCAQCkFzlKvPEOLRzDy7BIzKsMVz86yibK5UkTzAAxueaZ2mzZs2+ofvBdxfZwTAQT6WKDIyknPrekb75526l85jL8StokjLOXYhU0QaCjgr739Gm7VHxu42nthxYVXa4Qkr+wlvVhNuVGZILmC56UR2EI98fvooqB084hI31FqzbWc3r7W6321YlJlZ8XfG1nfHzdp+deUrEr9b2m5h0BdRfluiB4+11wERUMAAQQQQAABBBBAAAEEEEAAAQQQQAABBBBAAAEEyi7gP+ZePXRybz1entHhSTKW9WJRLDzKU6wUt8kzZVwv+s45EEBgwAWKHFnp4mC/vx6/2OB98IghB4Zt4qgdDXZhNQIIZAj4Q9RaymWKP8B4hLOxyomKR5C6TXlYoZVPYBx16VplccUV/J532aOAeepCj1a0lJKelk2Lmm4e/tRFTy5c89ClLiz1eVzM5inmtlVWCK/18D/NX1f+0P4NxR/Yn1F8zDcVf335a5CvMSHQEEAAAQQQQAABBBBAAAEEEEAAAQQQQAABBBBA4NN7CG5l/UP6YYn3yLOyZDXfYyui+R6M26w5Tu6iK7enc2zLJggggEDXBYocWelkXZ1H3ZhNuV05SPHUVM8lrno6PV9X8bRGwxTP1fnbxHqeIoBA8wJ/1S5OrbZArRUsL1zA0/Z5NLCtm+yJC4+abZ5azmmleZQnjwDl0BBAAAEEEEAAAQQQQAABBBBAAAEEEEAAAQQQQACBWgIvhhW+ZzyR8k6tDQta/u/EeefU87tT/fD9dt/LLqL9QyfdVPEftHuQEt+fyWrjhm287pasDViGAAII9FqgyJGVXOn5TcW/cGZWPCLIs4p/4Hvda4pHDDldGaZ4uqEdlUcUGgIIIDCIAkX+zB5Eb64ZAQQQQAABBBBAAAEEEEAAAQQQQAABBBBAAAEEuitwczj8pHo8SfGMPB5laT7FRTZFt/vUgTh12hF6vmzo15R6XFO5SXGx0OsFdPTv4ZyT6XHBOudfWOvs6xb3qbM5qxBAAIHuCxR949tTUS2hePSOWOnpH6YzKlMkLt9VocspjNKRQOEpAggggAACCCCAAAIIIIAAAggggAACCCCAAAIIIIAAAgggUGGBG9X3K0P/v6XHF5T3lPsVj7RUdPM0dT8MnZhdj+6v+/eqcrnioqqNlOvDNr188OxFnpnIbdU6J44zcLypbe6osx2rEEAAgZ4JFF2s5Av1Lxr/gByqbKHsoRys+If+Vop/6H9F6caQdK4g9S+PWlW5nt/T0865WOpq5fvK+AoNAQQQQAABBBBAAAEEEEAAAQQQQAABBBBAAAEEEEAAAQQQQKB9ga/pEB616FHlA8WFQC7+eb/9Q3fkCGfoKGsoLqryLEGeEehJ5Sxl8bD8Tj32urlo6sJw0u3rnHy7sG6kHu1LQwABBBAoWMDT0H2ijMroh0d38rR0Xp/MJXo9Tsb2LGpewJXHrkZ2oRqteQEPJ+mvTQ8tWcbm6mz3b+Uydq5CfVo+ONqS75UKvXE97uqtOp9/ni7Q4/NyOgQQaF/AI4z6+9fz3dOaF/AQ3P4dGf86rPkjdHcPT23t/m3Q3dNwdAQQkMANin+eLokGAghUTsD/Lsf/z7T+tj2vXf15w3+QWcb2Uuif/yiVhgAC3RUYrcP75+kK3T0NR0cAgS4IXBC+fz0bDQ2BZgWW1g7xXrZnKkq3FRPry3pPMd1nXiPQqsA52tGfh5Zp9QDs1zuBMoys1Lur/d8zbRIW+R810+0oLZhBccHFYcpvFH9hr6tsmt6Y1wgggAACCCCAAAIIIIAAAggggAACCCCAAAIIIIAAAggggAACCPRQ4Gady9PRue2ZcV7PHOTmPxLwbEI0BBBAoBQC45WiF591YkI9uMJtJmVq5Q3lccU/NF0w1I22WDhoemSlObR8s7DOj5eF54/o8UjFfwl0bljGAwIIIIAAAggggAACCCCAAAIIIIAAAggggAACCCCAAAIIIIAAAkUI7K6T3qN4Or3VFU9X5+ap6zZU3lW+F5bxgAACCJRCoAzFStNKwiMXuShosgwVz0X6R2U/5ZmM9e0smj7s/EDqIDvrtUed8rQcsVDJm5ytuFgpFjmlduMlAghkCEygZUMylrMon4Cn93IxZ2xY5nMbtK0GfaTEQXu/uV4EEKiewPjqMr/Dq/e+0eNqCfB5qFrvF71FAIHBE+Dz0OC951xx7wX4PNR7c86IAAIIlEXgYXXEBUsnK8crC4WO+bnbd5Ux4TkPCCCAQCkExim4F/5BeYUSi4ZidzyvZrpvnt98LeX2Dvb53zqWC6T8P8ue4s3NNxGeVqZRXGl68WeLP/2v++TiKffPBRi09gRe0+5TtHcI9kYAAQQQSAj4ryYuQgQBBCol8LJ661FFaQgggAACnRHYRoc5szOH4igIINAjged0nvS/Dfbo1JwGAQQQ6EuB3XRVJ/bllXFRCPSvwAW6tPWVpZXb+vcyuTIEEECg6wLn6AybKCsoN3X9bJygLYEiR1ZykYoLgfyPEb5Jc4xyifKQ8rYyqTKP4l/Orvb0CEx/UeZVXGTUifakDjK/MpviilO3rRUXKj2luD/J5r9MGFdxwRKtfYGPwyFc/OXQmhOIfylTVj/+kqe595OtEeiEQPy52oljcQwEEOiNwEfhNGX9fd4bhdbPwueh1u3YE4F+FeDzUL++s1xXPwvw70Ptvbt8HmrPj70R6EcBPg/147vKNSGAAAIIIIAAAgh0TGBPHck3ZR5RvtTgqEO1/rGw/f4Ntm1m9enhmB4Sz20W5dmwbK+wLPkwV1jnkZdo7QvcqEN4RCu/v7TmBV7XLv4eWqr5XXuyx5uhfyv35GycBIHBFvB0gf55usBgM3D1CFRSwNMO+/t3zkr2vvhOv6Iu+PPQasV3JbMHHknU/dsgcy0LEUCgkwI36GD+ebpkJw/KsRBAoCcCo8L3L/8/0xr389rNnzc2am33ru/l0fLdv626fiZOgAACo0Xgz0MeSYCGAALVEvDISv7+XaJa3aa3CCCAQOkEPLKSf54uU7qe0aH/EShy5JPNQ2/20+Mz/9Ozzy/wKEd7h0Wd/If+OE/njjr2C4pHdZpBeULJGiY1Fl3c/fnu8QoBBBBAAAEEEEAAAQQQQAABBBBAAAEEEEAAAQQQQAABBBBAAAEEEEAAAQQaCRRZrDRH6Nx1jToZ1l8THj26UafanTrQPoqHRf2iMkR5UdlYeSvjJFuGZX/KWMciBBBAAAEEEEAAAQQQQAABBBBAAAEEEEAAAQQQQAABBBBAAAEEEEAAAQQQqCMwXp113V41cTjBOzlPFLcbP+f2eTc7XBuepyyteNqqq8Njev9xteBU5TTlwvRKXiOAAAIIIIAAAggggAACCCCAAAIIIIAAAggggAACCCCAAAIIIIAAAggggEB9gSKLlZ5V12ZT5lVuqd/NT9fOH7bxFG2dbo/qgE699pFW/r7eBqxDAAEEEEAAAQQQQAABBBBAAAEEEEAAAQQQQAABBBBAAAEEEEAAAQQQQACB2gJFTgMXp3/7Qe3u/WfNOHq2d3h1RY7t2QQBBBBAAAEEEEAAAQQQQAABBBBAAAEEEEAAAQQQQAABBBBAAAEEEEAAAQRKJlBksdLxsvhE2UzxiEWz1rCZW8vPVzZS3lNOqLFdO4sn0M5bKRcp9ysvKY+kDuiCqXWV9RRvT0MAAQQQQAABBBBAAAEEEEAAAQQQQAABBBBAAAEEEEAAAQQQQAABBBBAAIEmBIqcBu4O9fNnyoHK10NcKPSw8o4yqeJCJSe2nfTE6zvZ5tHBzlMWbHBQF1a5v4srWyrnNNie1QgggAACCCCAAAIIIIAAAggggAACCCCAAAIIIIAAAggggEA/CXgAih8qqyt+PqXiASdoCCCAAAII5BYocmQld9LFP7so/w49nl+PGyhbKB7BKBYqPaPn6yhnhu069TCVDjRKcaGSi5GuV06qc/Bzw7oN62zDqvILfDG8137PL8/ZXX/gOkt5VHlbeUO5SzlEmTbnMdgMAQQQQAABBBBAAAEEEEAAAQQQQAABBBBAAAEEEEAAgaoKrKSO/1PZTfGAEBMqnp2GhgACCCCAQFMCRY6sFDv6Gz05W9lYWU6ZWZlE8VRsTyl/DflAj51u/kU6uzJG8fnvCSfYucaJbgjLPboSrZoCi6jbFyuz5Oz+MG13urJyxvYLa5mzvbKmEr9+MjatzKKl1dObQm/n0qO/N2jVFnhX3R+i7KicWu1LofcIIIAAAggggAACCCCAAAIIIIAAAggggAACCCBQkICLks5QfB/3ScX3WX3v1PchaAgggAACCDQlUIZiJXfYo9SMCGnqAtrceNOwv0d3ylNo8njY/kttnpfdixHw+z1CmVh5QZkuRzc8mteKikdT+rVygTJWmVrx6F/7KzMoFyrzKe8rNAQQQAABBBBAAAEEEEAAAQQQQAABBBBAAAEEEEAAAQT6SWBeXcxs4YJ8b/WSfro4rgUBBBBAoLcCRU8D19ur/d+zDQuLPP1bnhZHdypLkVeePrPNZ8NPHiQIT+PnQqVjlbwjzOygbf+s+APYjxSPOvSs4iEuD1e2U9w8QtdXw3MeEEAAAQQQQAABBBBAAAEEEEAAAQQQQAABBBBAAAEEEOgngS8mLuaOfrowrgUBBBBAoPcCg16s9GEgzzuX6rCwvYtVaNURmFNd3Uv5WNlT2UOZKGf3H9Z2GygezjKrnaeFr4cVS2RtwDIEEEAAAQQQQAABBBBAAAEEEEAAAQQQQAABBBBAAAEEKi6QvK/MTCMVfzPpPgIIIFC0QC9GCMo7gk0zFh7tphNtjA6ypDJcuTzHAbcI29yXY1s2KY+AC46+qzyveJQkt/HDYycentJBplDyFkB14pwcAwEEEEAAAQQQQAABBBBAAAEEEEAAAQQQQAABBBBAAAEEEEAAAQQQqJxAL4qVtu+CSqeKlc5W31ys5GnB1lAer9PX9bVu97D+rDrbsaqcAqekupV3NK08VzND2OiZPBuzDQIIIIAAAggggAACCCCAAAIIIIAAAggggAACCCCAAAIIIIAAAgggMKgCvShWuqrEuKepbzsqCyj3Ky5ouTb010MZLqLMo2yibKy4wOV6ZWTYhgcEXOw2TWC4uiIcK6ufngpvGWVy5TnFI4sdqjBsZ0XexEQ359DzfRQXXLpw7lXlZuWXyo2K39MhSr22uFZ+X/HXxJeUF5VbleOU6xI7+nUcpWwmPf8osS799DEtGKacrnSjaDV9Pl4jgAACCCCAAAIIIIAAAggggAACCCCAAAIIIIBA9wQmSBz6w+6dhiMjgAACCCAwGAIz6zLvUT7JEd+8n3EwWHpylS6k8IeZoT052+dPckJ4v/NM/1evexeG49xRb6MurXs9nHupJo7/07BP1te7i1w2S6yfs4njZm36ZjiWi6No3RFYU4d9Ozin31MXEu2qeLpLr6s1Ip2LlD6ucQzvd5ASm4vz4nlWSyxPP3XRU9xueHolr7si4N9P/nnq4lsaAghUS8CF/f7+bff3brWuunO9fUWH8u+cer+XOne25o/0WujfBs3vyh4IINCkwA3a3j9P/ZmVhgAC1RIYpe7y/zOtv2fPa1d/Htqo9UN0dc+XQv+26upZODgCCFhgtOKfpyvAgQAClRO4IHz/LlHynu+r/vlzh+8n0RBAAIEyCpyjTvnzkO9V0kou4NGDBr09KQCPKrKncmcNjPu0/EfKssqzNbZh8eAJbKlL3lDxB7MfVuDy3defhX56tBwXOU2oeGQojxzmfzwaEdbzUH6BWdTF85SJlCcUv7+ThSynR//jxPHKUKVWc3HaUYpHjfuVMqsyruIiTr92+4myaXjugpgHw/MtwmPWQ1znfiVHZsralmUIIIAAAggggAACCCCAAAIIIIAAAggggAACCCBQTgHfM/CMDDsrvl/gdmx45AEBBBBAAAEEOigwrY61sLKKspjiaZVo3RGo8shKrm6PIwfFoo7uKNU+arMjK/1Th3Jh1b8UF7ikm4ta4jV5u3ZHeGBkpbRwZ1//Wofz+/Se4ukq0218LbgtbOPt0iMruVDNxZded2J65/DaU156/ZjE+v3DMo9kkRzyNW7iIthnwjaeWpDWGwFGVuqNM2dBoBsCjKzUniojK7Xnx94I9JMAIyv107vJtQyaACMrtfeOM7JSe37sjUA/CTCyUj+9m1zLoAmUeWSlA/Vm+D6B40EfvjNobw7XiwAClRJgZKUKvV1lGllpOrmtpWyj7BYe19Cji4d62Ty6zN3K1Yqn9nqulyfnXJUQcBHPJcokiqeR27sCvfbUUPOHfh6ux3cy+vyUlv0xYzmLyikQRzvyexZHO0r29AO9OLpO11fXOhdjegq4+NcQ6c1PCAvm0OMi4fnZevT/lEyleBq6dBuuBXG6TG9LQwABBBBAAAEEEEAAAQQQQAABBBBAAAEEEEAAgeoLeJSl8RTP1kBDAAEEEECgLYEyFCutqCu4RvFfAV2mnKF46iI//lV5QblSWVqhIVC0gEcf8l+oTK/8Q3HByIdFdyrH+T0SVGwusKrVmLKrlky5lg9Td2IhZ6vvp4tB3e5TPCpFVvNoXLHNHZ6M1aNHRXPLmgouLnOx5/1hOx4QQAABBBBAAAEEEEAAAQQQQAABBBBAAAEEEECgegIHq8szKx5oYi7lOMXLaAgggAACCLQlUHSx0i7qvQuVhqeuwqN2xObq3NUU3xzfPrVdJ1/OooPtoXhqpfOVszIOPqmWObTBFPDoXy5UmlXx6FseCcxTnVWheT5hN/e33mhhj1fhYujjp/NDx/ZwHY+nte6jGutdeOe2kOKfuUOERzAAACAASURBVFlxEWls/vqPLY6YtIEWTJxY7qnnNg6vf5dYzlMEEEAAAQQQQAABBBBAAAEEEEAAAQQQQAABBBConoDvMXhmjhOVQ0P3XbhEQwABBBBAoC2BIouVllLPPcWQ+zBGceHSfMpEYZmn2FpQ+YHyRFj2Wz0uqnSyufjoJGWs4imTPNeqb7avk3ESj0DyhrJSxjoW9beAp7zyCF/zKB5txgV0r1bokmNBSaPiqkbrK3TJfd3VZIFQvffMBUhv1ZCYJix/T48v54inlYvtXD3xfv45vV5iuUdrmlrx/7wwpWAChqcIIIAAAggggAACCCCAAAIIIIAAAggggAACCFRc4NbQ/yn0OGXFr4XuI4AAAggULFBksdKPdO0eNekmZRHlN8oDyrvB5G09ujjIBUQe+eN2xXOh7h3W531wAdSQGhv7eCOVnRT3xTff3YdazSMuuWVNfVRrH5ZXX2AyXYKn2vLXob8+VlVeqthl+fvJbcIG/Z6gwXpWl0Mgvp/tvKevhUvx1/a0OeJi0dhcqDcqvEj+PIzPr9C65KhMiV15igACCCCAAAIIIIAAAggggAACCCCAAAIIIIAAAhUUiPdw3fXxKth/uowAAgggUCKBIouVVggOLlqqNfJHpHpdT34YXqzYpN/m2t4FUZ5PNd221gKPBOIb/7srrgJ2cVOt5pv6bsvW2oDlfSfgkb7+ongkME+3tYpSxSKMOPWbv8Y9SlStNn2tFSwvlUByKr/Z6vRscq2rVaD2TNjPo4W10uI0b2trZ49Q50K39cOBmAKuFVH2QQABBBBAAAEEEEAAAQQQQAABBBBAAAEEEEAAAQQQQAABBAZAoMiq11gw4RGT8rTbwkZx6qI8+8RtPHWcC5Z8U/3exI7bhucuVDotxwFdrOI2LMe2bFJ9ARdfXKB42r93lIMUF3bUK+7wyEvJQpKyKNyR6IgLrjyiWFZbJmshy0on8Jh65NGN/HPUI31dVKOH9d7P0drHo8rNqyygeCS7Ztql2jj2YS09d9Gpi6M8Ld3FzRyIbRFAAAEEEEAAAQQQQAABBBBAAAEEEEAAAQQQQAABBBBAAAEEBkegyJGVXgzMeQum4vRULzT59rgYyiMzzaRcryye2N836d3i9G6JVZlP4whQE2euZWG/CSymC3IRhptHWPJoMdc0SNw+7Faah7vUkzGhN/vocfyMnrnwZbuM5Swqn8An6pIL6dy2UbJGjvPUlj8I22Q9XKKFr4QVnobTX+O1mo+Vbu9rwblh4bp63CA8dyFccpq69H68RgABBBBAAAEEEEAAAQQQQAABBBBAAAEEEEAAgeoJfJzoctZ9pupdET1GAAEEEChMoMhiJRcOuS2Z8+qXDtu5WKSZ5im8Zld+q3jUj1GJnWPRkUcCydOmDRu9lGdjtkGgZAIHhP4soUcXqvh7z98DHq3M03ddpwwJ2/BQfoHD1EWP+OUp2K5WvqpMoUymeESlCxWPolWrcMhzS39bcVteuVnxtJmzKP6amEPx18XpyhVKVjs7LByuxzXDc6aAy5JiGQIIIIAAAggggAACCCCAAAIIIIAAAggggAAC1RZI3h9duNqXQu8RQAABBAZZYEFdvG+036g0GqloSm1zZ9j+y22gLat9H0rs/0899wgli6SO6WVZBUl7hO3/1kYf2PW/An7vP1SGgtKSgEcM89fqUk3sfXjYx/ul49HOXMj0Xlg3ZxPHzdrURYA+x8pZK1nWEYENdRQXHaXfS7/+QNlauSqs36HGGT0VXK1jxOPGaTjTh/CIS4+G43vbp5Qii2DT/Ruk17fqYv3z1FP60RBAoFoC/jnt7992f+9W66o711uPEujfQat17pAdPdJroX9xBMKOHpyDIYDA5wRu0Cv/PM37B1HwIYBAeQT8h4X8/0zr78fz2tWfhzZq/RBd3dP/xur+bdXVs3BwBBCwwGjFP09XgAMBBCon4JkU/P3rezRlbr4n8Lji3+1jFM824j+ipiGAAAJlEThHHfHPUw/sQCu5QC9uKg+VQTozatnTyreURZV7FU9NNVyZS/HIHnMrqysHKfcr8ylbKi4warX9XTv6uLHFUZYO1YJG09HNpm32CzvGqY8Sh+IpApUQ2Fu99IfHy5SXFRcmjVVOVFy056KUhxVaNQQuUjf91wtnKv6Z6qnZnlP8PzbLheX/0mO95lHnXDx6hOKfxS6C8y9xf33cpPxc+YaS1fw/JHF0Ja//g5IcBjZrH5YhgAACCCCAAAIIIIAAAggggAACCCCAAAIIIIBA9QR8T8AzNvjekmdn8L0m/6HWhNW7FHqMAAIIIDAIAnFkjnYfffPcN86P7iDaTDrWq4r7dpfiUUqmDq/jyEoz6PWuiked8XZPKFMqtPYFGFmpPcNWRlZq74zN7c3ISs15sTUC7QgwslI7euyLQLECjKzUnj8jK7Xnx94I9JMAIyv107vJtQyaACMrtfeOM7JSe37sjUA/CYzWxfg+CiMr9dO7yrUMikBVRlaK78c8enKS8oDie0FDBuWN4joRQKD0AoysVPq36L8dbDSaUJkuZVx1ZumQ73eoYx6J5GvKpYpHJ7lQcUGS21SKq4GTwxe6OGTzsPyzrfgvAggggAACCCCAAAIIIIAAAggggAACCCCAAAIIIIAAAgggMBgCD+oydx6MS+UqEUAAAQS6JdCLYqWyV/FfK1xPgXSMsrYSTTxFXixU+kjPL1d2U8YqNAQQQAABBBBAAAEEEEAAAQQQQAABBBBAAAEEEEAAAQQQQAABBBBAAAEEEGhSoBfFSn9rsk9FbP6oTrq+4ingVlaGKtMoHlnpGeUaxUMq0xBAAAEEEEAAAQQQQAABBBBAAAEEEEAAAQQQQAABBBBAAAEEEEAAAQQQQKBFgV4UK7XYtUJ2e0VnHVnImTkpAggggAACCCCAAAIIIIAAAggggAACCCCAAAIIIIAAAggggAACCCCAAAJ9LuCpzmgIIIAAAggggAACCCCAAAIIIIAAAggggAACCCCAAAIIIIAAAggggAACCCCAQNcFGFnp88Tj6+VkSp4irpe6/u5wAgQQQAABBBBAAAEEEEAAAQQQQAABBBBAAAEEEEAAAQQQQAABBBBAAAEE+kiAYqUvfGFqvZ/7KxsqszXx3o7TxLZsisAgC/jnjAsBaQgg0D0Bfid1z5YjI4AAAp0Q4PNQJxQ5BgL1Bfg8VN+HtQgggEDRAnweKvod4PyDIJDnj7AHwYFrRAABBBBAAAEEEKiAwKAXK02p9+hmZa4KvFf92MUv66LGVZ7ox4vrwTXFf4y/Ref6pAfna/YUsX9XNLsj2yOAQMsCc2rP+1remx0RQKAIgYV1Un8eeqiIk/fBOePnjSt1LWX+PHR+H1hzCQhURWB+dfTWqnSWfiKAwKcCiyn+PHSvUsbf52V/m+LnoZEl9Yv9O139c2gIINB9gYV0ihu6fxrOgAACCCCAAAIIIIBA6wKDXqy0l+hiodJVen6O8rjyQeuk7NmEwMeJbfnHqCbgwqbxH3tsV0Y//rK5+feUPRBoVyD5c7XdY7E/Agj0RoDPQ+0583moPT/2RqAfBfg81I/vKtfU7wLx+7as/75Rdn8+D5X9HaJ/CPRegM9DvTfnjAggUA6Bw9SN3ZR9leML7tIcOv8BymrKtMrLiv/QeGflkYL71urpR2vHVZXTlB1aPQj7IYAAAgh8JuBfCv6HEP6qp5iviBt12g+VocWcvvJnfT18/S5V0it5M/Rv5ZL2j24h0E8CHj3AP08X6KeL4loQGBABF8z7+9cjo9GaF3hFu/jzvP/hp4zttdC/DcrYOfqEQJ8JePQA/zxdss+ui8tBYBAERoXvX/5/prV3+3nt5s9DG7W2e9f3ein0b6uun4kTIICAbyL789AKUCCAQOUELgjfv0tUrufl6vCT6o4/F3lGkiLbPDp5/DehWJDvR983mzjRMc9A87biQTT8PLb39cTbu+jKbabw2suK/Ezl3zPuw6mfdaun/z06nNv/ltrttlw4l691mXCybySWzRyWTajHR8PybbvdKY6fW8CD0/jzUHzvcu/Ihr0XGPQ5jGcP5Mf0np4zIoAAAggggAACCCCAAAIIIIAAAggggAACCCCAAAIIIIAAAgh0QMBF8G5/6cCxsg7hP445UJkga2Vi2cF6PoXiP7JbU3FRywyK/9jOxUlunv3oD8pEigtx/vnZ4k//61GYko8u/o4trkss6pun9Xx/H65yuB6/1OUrzvLOWvau+rF76ItH8pq1y/3i8Aj0nUDZi5VcmbiOsqIypAv6roh0G9uFY3NIBBBAAAEEEEAAAQQQQAABBBBAAAEEEEAAAQQQQAABBBBAAIHuC+ykU7j455AuncpTzB2g1CtW8hS9a4TzH6fHK5T3FI+GeXNY7ofvKAspzygHJZb7abpYyfu/FbZJFs2kdqv8y3q+t+nqHlJc27Bll680WRCWfi/e0bljwZm7cUnIJHr8VZf7xeER6DuBIouVFpbm3Uqt4eoO1brHlEuV65QnlNU7/A6MCcebpsPH5XAIIIAAAggggAACCCCAAAIIIIAAAggggAACCCCAAAIIIIAAAr0T8Gg33WguQlorx4En1zYeVcntrhrbu9hpn7Dut3r09HDJli6Q8bq4rF+LlfL4xtGVPCVbN5tHxPKAJx8rr4YT1fM/KmzjaZmT0/l1s48cG4G+ECiyWMlVj64Y9fB36eYCJs/DOa7iOQX9A2E65UIlzgOZ3qeV1+eHndZrZWf2QQABBBBAAAEEEEAAAQQQQAABBBBAAAEEEEAAAQQQQAABBBDoawEPqOF71Y2aR9iJ7fUaG2+s5Z7K7CPltIxtBrFYKY+vp81zW1SZL8OtU4tcpPRaiJ+71StWulbrPUCKC652+Wxz/osAAnkEiixWiqMkxYKh2N/x9SQOz3eBnk+lzKj8XfEP+Dj3Y57ra7SNKx39w8PD663UaGPWI4AAAggggAACCCCAAAIIIIAAAggggAACCCCAAAIIIIAAAgg0FFheW3hACs+g4+YCkzOVJxVPbfaccp6ypFfWaKO13MdYNqxfTI+jFBePePmRif3itqcmlsWnHhzDoy753rjvN/9E8chHHtXIU6zdqxysxFGR9PTTNqtysXJ5XKDHNxSfO2YRPV9KOV3xcWK7JrGN70fHFqcx8zGfTiyPT+PoSclRlPz8A+Xfqe0X1OtTlPsUF0f5Gj1bkQcA+boyqZJuM2jBnoqnqPN78L7ia7pN8YhPQ5Rm2pzaOFr4Pa/VtgnbJUe/yuvrY9rwH+Hg36x1krA8+XXjIqKtFb8f/rrx195jigvF5grbpx/snfS3u/1j0VJye1+733u3zZR0/YW/Hv01NuKzTfgvAghEgfEKpPAPLrebUn34ml7PoniIte0U/5JwfqTcqMQiJz1tu3leSY/i5Pkkr1V8fD/6h3hyvkm9/J929v8sYQECCCCAAAIIIIAAAggggAACCCCAAAIIIIAAAggggAACCCCAQBSYQ09WVVz0kxx5aHq93kTxSEO7Kb+OO2Q8etsNlHMVT6MWm+/p5m0uwnFR0e+UeJ867ruAnjibKssocfovF1h5ai8X9XhwDbdHFReoxObiF08BtqLiopapw4pn9Oh70W6Ph0cXzng7t6vCY/qh1shK6UKZH2rHX6Z31mvPUuRsqLhfLlyKzcVYjygTJ5a5CMdFTYuHrKvHVRQv73bL6xv78Xs98XvoQqz9leT7kNXX+bXQNQa2SLZheuE6BBcX+WszFkHFbWIxXHIfL0sWMCXXuTjqUGVaxV9H94SV0+lx+/DcBVMuknOxHg0BBAoW8A84/wDxD+VkuzYsd/Vqsk0YlqcrRlObNfXSlZvuQytp6kRsnCng4rAPlaGZa1nYSMAV0v7a9S/lMjYXGbp/K5exc/QJgT4TuFXX45+n/hBMQwCBagn4HyX8/Zv+B5JqXUVxvY1zyK9WXBfqntlDRvvzkP8xjYYAAt0VuEGH98/Ten+R290ecHQEEGhVYFT4/uX/Z1oTfF67+fOGb0SVsfmGjvvnPxilIYBAdwV8o9Sfh1bo7mk4OgIIdEHAM834+3eJLhy7yEMur5P7c4Cn0vI9rduVdZQvKi7oWUu5T/E2HymxiEdP/9P8s83rj1E8Os0Lyr7KcMUDXAxTYovbnppYFp/a18fxZxMXInkmn9kVF+8srJwR1nubXynptl5ivQt7ajWPWuRjOMMzNnLxTFy/dMZ6L5pImSa1zuf0bESxue8287FOVuZWxld8P93Xs59ymTKukm4ezcqDcqyhxGtxv49UYt+2Se+k17V82xlZKZ4mr6+L1uJ7uVxGH+Oi2Fe/3/7683u6kOL3ey5lbyXWCfjrMt0m1wIn2exf6733ADH++rTfTomdJtPzWBPhfsdCtuRxed5ZgXN0OFu76JBWcgF/4xTV/D/SMyn+RvcvKDdXpq6k+IdG+heJf2B4GLpkpeenO7XRfP3+QU7rfwH/gv6G4gpZ/zLyByH/0vBwjH9UTlNqVQj7F9e3FFcSL6B4X38tugraNxj9AekxhYYAAggggAACCCCAAAIIIIAAAggggAACCCCAAAIIIIAAAv8V8MAVnmZseHiMay7Xk9uUfykekeagsE1cn3z8nl54RKPhSjsj07gIyMe4LnHwu/V8W2UWZRXFswB5mrRutFig5PuMd9Q4gUdjiiMyxU08QECy+Tj/p7yofDuxwvc6fT1OrbZpxgqPHOWRmlww53v1LiQbkbFd0YtcX+BCpDUV3/f1wBj1mt/vA5WfJTZyXcLhikfo8tfcYorf+ycS22QNnuIit1rNxTH+WnbBnYtkfhs29Nf91srmiovEXgnLeUAAAQn4h1hRLRZ3DE904Kfh+SV6dCFIsrmoyT80XGDSqeZipVbTqT5wnO4L+IOFP+icoaytuEjOX0uugPUvjd8o1yvpCll/eNpd8dficYp/8cV9XTnr4jqv91B+rj7uh+YPN7Fq2pXQNAQQQAABBBBAAAEEEEAAAQQQQAABBBBAAAEEEEAAAQTaEThJO7twI9088k0cwMJFMh45p1bzdFrtFCr5uC5uSRYqJc/lwQ3cZlM8CEI32qzhoM/o0QVLrbZYvOSRe2Zu9SAZ+90clg3NWFeWRX8IHfEAFY3eJw+GkjVSlg8R328/n6cDFzc2HCO+x/GQ7u8GytkdOAeHQKCvBIosVvp9kHShyK6KH/1Dxe3Q8Jh8WDK8GJuxjkUI1BKYUisuUOZQ/AHGldAeWWkGxV9T/gDk4hwX6fxaSTYXNHmoPo+s9LCyizKv4mP6eDsrrlh24dKfFFfn0hBAAAEEEEAAAQQQQAABBBBAAAEEEEAAAQQQQAABBBBA4L8C9UbAOT8B5VFustpDWnht1ooml9U7RnIgDRcBdaPFacBebvPgV2t/36P0tG+3KDsqQ9o8pnePRVA+blnbheqYR57yfVmPAFWveYq39KhUcftOv9/xPeV+cb13hHUIJASKLFY6S/14RJlROUFx4YfbiYp/qKbbV8MCD+1GQyCvwGva0AVH/rpyVexRyr2Khwn0cHz+5e1CObctFU/xFtt7erKV4gInj6Lk7R5UPDygh5r0EH4bKi52cgGThxukIVBVgR+p4/0yQlhV3wP6jQACCCCAAAIIIIAAAggggAACCCCAAAIIIIBAPwo8VeeikqMlebCBrOZ7e51oyam+0sfzFGqxdeseeixWanc6MBfgrKP4enyv/WTFxkcos8eLqPHomVU8cIgLyHy/1KMPxVlXDq6xT5kWe4SuP4cONbo328v3OxYrxfe4TGb0BYFSCnTrB22ei31bG3kKrjMVj1pzp7K34mm10m1cLfiK4uImFznREGhGwKMe7aa4yjarxeEl/f2Qrti+Q8tc4JT8gJI8xt/14rGwwCM20RCoooCHNPUHWIqVqvju0WcEEEAAAQQQQAABBBBAAAEEEEAAAQQQQAABBMot4IKYWs1TwcU2SY2NPDhBJ5rvTxfZfM/b7aMOdMKDMniwBd9fd6HStIr/MN333T3l2PRKuvl+6f3KvspSyrPKVcrIkAfSO5T0dZzBaX31r94oWL18v+N7Ol5JzegWAqUTKPqb5RmJbJNDxd/cy+TYrtVNptOOHibOI+/4B1qeIi7/MKf1h0CyYnuiFi7JH6JcpTxOC/uyCwJlEHD1PQ0BBBBAAAEEEEAAAQQQQAABBBBAAAEEEEAAAQQQ6IbAxHUOOmliXa0pu+rsXqlVr4bedmqqMHv5j9F/pXiWIg8KsrLiEYdWUTwYSLwPupyeH6f4fqaLmfZQ4mhAevppO0T5cXzR4cdahWitnOZy7eS+2/FrShkGO3GxmFvaNCzmAQEE0gJFFyul+1PEa//Q9g/xZufxpFipiHerO+dMDinpArpmmovbFgw73NfMjmyLQEkE/LNv45L0hW4ggAACCCCAAAIIIIAAAggggAACCCCAAAIIIIBA/wnMqkt6sMZlzZ9Y3ux9uhqHLO3iWMjSqWKleKEe+OOikHX1eI7i6eH2V3YKG22vRxcqPa5sq3wYlicfWiko8hRysdWrPZgl43ytLvKMOOcrvjYXZpWhWCm+p+1O8deqCfshUDmBPCMI9eqiFtGJNlNcBBR/aHb73KvrBMcqsVDpaT33tF7X5Ui3+8bxeyewdjiVh5D0dIR5m3+hH6N4NKbXlTjkYN79i9rOFdUXKy8oHnZzrHKS4g8J7yu0agssru67It7TZnrqwyeUkcpKGZe1s5Z5GkN/TbjtqcR5if3oD7ZZzdX5Pqb39dfQs8o/lF8pM2ftwDIEEEAAAQQQQAABBBBAAAEEEEAAAQQQQAABBBAYWIEV61y5i2vcfF/i9jrbFbkqWdgzQRsdicVYX9Ix6hX2tHGKL1yqnU8IB1g0caBh4bnvhWYVKnm179c325KjYdW7RzS8zoFb8Y33ZVfVcZMDU9Q5TVdXxWIs1xvQEEAgh0C3fgjmOPV/NtlCz36ueBqt2FxV+tvEaxeFXKlMqXxdeSixrp2n3ws7+4eG+/G3dg7GvpUU8LCT8etghJ67Ejer+YOHt/XX4lSKC0K+q6yguOhn0/Coh1K3n6p3P0v10NXsLhDcPDyW+gLoXF2B72utC4b8dRqbPxg6GykHK/4aiM1z+Xq+3vcUF226YM8/f2NzEVKyuaJ+hLJJark/BDpLKqel1vESAQQQQAABBBBAAAEEEEAAAQQQQAABBBBAAAEEBlvAo/r4/kWcBi1qzKQnu4QXo/WYvEdRJrEXE535sp7f0GLn/IffbhMqLiS6tcXjjKv9PJpSrTZFWJEsJPp3WDZHjZ08bdzwGuvqLfZ9Ut9f8n183y/9XcbGHkBkqYzlcVErvr6v/7ji+5y+z+8BJopqfj/i9d1SVCc4LwJVEyh6ZCUXKf1RSRYqZRm6ktYFRS4Q+VbWBi0uiz80fqD9KVRqEbHiux2t/vuDkD/8+OuxVvPXnT9Aeeg+j1hzrrKw8hNlIeV6pextQ3UwFipdp+f++veHIQ9L6GnAXlJGKLRqCnhkuqMUFyr5A78/nPnDkQuV/NrNX6/+oBjbOnoypxKnMHShkV/HfCexrZ/+WomFSt52pbDt8nr0qHhef783pCGAAAIIIIAAAggggAACCCCAAAIIIIAAAggggAACEvB9Xg8EcLXi+xJ+7sIWP79KmVpx4U3yj631slTN9z5isY/vLc6nxHsw7n/edpc2fDtsvGzenTK2c3GO7bZTXHzke/6+PzS94vveOypufwmPfoj3MhfU88MVvw++Bu/ve6SXKE8pzTa/vxeFnb6qx+OVeZWJlWHK7oqnbHtDqdVa8fV5XWfg5qngimy+Zzxp6IBncUo2Dwzgvt6UWs5LBBAoUGDV8I3pb86RysqKf4D6tYsm0s2jgnhd+hs8vV0zrz2Kjo/pofZovRe4Uaf0sH5De3/qT8/oKbD8/jseYaZe2yGxbdzHj/5A4V/AyWEU6x2nk+teD31aKudB/xm2/5cePXVduvl9cIV1vD4XrLTT4rH8vU3rroCLzuKHnRNrnMo/Z/3ejslYf1tYd2TGurjIBUnxa2PvOtuxqhgB//WFf54uUMzpOSsCCLQh4H9U8Pdvu7932+hCpXd1Ibl/P61W0qvwX5W5fxuUtH90C4F+ErhBF+Ofpx7tk4YAAtUSGKXu8v8zrb9nz2tXf97wv52Wsfnfed2/rcrYOfqEQJ8JjNb1+OfpCn12XVwOAoMgcEH4/l2izy423lf4WNflP6j3PbV4nyH56EKlWFyTJvDPNm97anpFxut62/rno4/zzYz94qLhYRtvN23Gdj9OrE/2f73Etp6FIq7z8bJa7Oefs1bmXObrSBvG+95xuaeDGz9xPBfT+I/Xk/tFFy9zsdLSYb3vG6VbPV/fa38y7Js8fnz+mNatFda/mz5weJ3HN72r74nEc8yTWFmvr8ljxH3jH+qnj5/39V6hHy7ISpp7wIh4jiPyHozt2hI4R3v763qZto7Czj0RKHJkpd3CFfrmuEd1uUbx/1zXaveGFXPX2qCF5f6fZbdaPxRbOCS7VETAH4pOCH3dX4+NPhCcqm1ckezvmckVVx27EtgVxr755GpYF+CVtfmX9fyhc66Wfiejo76WWIGcsZpFJRZYXX3zB2B/4P9JjX7Gr3dXyC9SY5t6i2NV+hPayD+3aQgggAACCCCAAAIIIIAAAggggAACCCCAAAIIIIBAIwHfX7tWWVw5S/H9qPcV3xc+T/Ef5Z+ilL0dqg7upHh0JN9n8x/t36O4SKeZ5mIKt7WVGZvZMbHthXq+rXKZ8owSi478h+0uUvLIS+spLmCKzf31aE4umnkkrHNxzT+UXRUP7HBHWK6Hppr7sJjimT4eUHzv3cVp9jlIWUi5TnHhTq3Wiq+Lr3wOtyJHV/IIV24eOCBp7hGXYnNRIg0BBEoi4F9E/oE0U6o/XhaLiJKrpg3bJ7/B272U88Mxu/W9mgAAIABJREFUV2z3QOzfkkBRIyu5qMi/JP21VmsUmrwX5BGKbg7HGpN3pw5t18zIStuEPvqaXdRSq30zsV27Izz4Q4/Px8hKtbQ7t9xDatr67jqHnC7x3m6W2u62sK5eEZJH5PI5TqpzDlYVJ8DISsXZc2YE2hVgZKX2BBlZqT0/9kagnwQYWamf3k2uZdAEGFmpvXeckZXa82NvBPpJwKNI+GY1Iyv107vKtQyKQL+PrOR7C8xy89+v5kn01PfC7eLRhGjVFnCdgd9Lx4V3yfajsPyx1HJedk+AkZW6Z9vxIxc5spKLj9xcaZmn+Qe3W735LPMcJ7nNcXrhHxwemq1Ii2b7zfatC7hi+GJliHKmslvrh/p0T1dOHxWO4RFr5mrzeN3aPX4IdAHRc3VO8niddawqr8DQ0DVXpscPROnH5Mh1LlxqtsUit4ea3ZHtEUAAAQQQQAABBBBAAAEEEEAAAQQQQAABBBBAYKAFuA/737f/LT39ZXi5sx4nHuivjOpf/PfDJfiPMDxKVbItEV6MSC3nJQIISKDIXwyxSGnmnO9EnFew2aH06h3+eq10oZKH2btCWU1xEQutPwU8/KB/Ubjw7Q+Kh+RzQUe7LVkEMnm7B+vS/vGDjouV6rVG6+vty7riBDznrdt7yss50uwIdf5dMWU4B18jAYIHBBBAAAEEEEAAAQQQQAABBBBAAAEEEEAAAQQQQKAFgaO1j2e08B+jM7pSC4Al2WUN9WNDxTP6fC+jTx5E4yPljIx1LEJg4AXGK1DgJp17NmV35YcN+uGptvYN23iezU41//CfW/F0Wp4azPEPjBeUtxucpN0pshocntUdFphfx/urMoXi+W+/pXzcoXP42LF1spiuQ9379DDx63nCBgedoMF6VpdT4LXQrcv16A9FnW7+XnGR0qQKFf6d1uV4CCCAAAIIIIAAAggggAACCCCAAAIIIIAAAgggMEgC7+tit1BuVnyffITy8CAB9MG1+p7q8eE6vqvHMalr8iAADyp/Up7og+vlEhDouECRxUqeOmtLZU/FxUg/UV7JuMIFtOw3iqc3clXiqRnbtLrokIwdx9WyGTOWs6i6Ap6ezfN1T6tcpHxdcVFao+ZfIh6pxlO91Woe0cbzjbrdorjQrYwtTv3ma5pKebVGJ6evsZzF5RaII9XN08VuegQxFyu5wJOGAAIIIIAAAggggAACCCCAAAIIIIAAAggggAACCCDQusA92pU/EG/dr+g9XXBW776cBxrwrE40BBCoIVBksdLt6pMrRX+l7KJ4Ts57Qz99Q9xFJf4Gnzcs84OrEh9NvG73qQukaP0t4GkGr1JcgOavHRe+Ld/gkl3F7MI4b+fp4vy1+GfFX58vhn19vJUUTyM4q+LipzIP03hH6LcfVlFGJl4nny5TYzmLyy3gYrydFP+8dIHnfU1298Owfb2Rtf6ubVz452kzPS1cp0Yma7KrbI4AAggggAACCCCAAAIIIIAAAggggAACCCCAAAIIIIAAAgggUGWBIouV7ObRlTwiyLHKdMrCAXOIHjcIz/3wsrKjcmFiWSeeZo2s1InjcozyCHxDXXExkdvsiqeCa9Q8PeFYxcUYkylbhdTaz5Wx31FcFFXWdpc65uEHPX3hPoqLrz5IddYjLm1X1gugX3UFLtFaj0w3teKCvDWUWiOCjaN1n6SOFovwvlznLB6m0t8LwxTPu+v5lGkIIIAAAggggAACCCCAAAIIIIAAAggggAACCCCAAAIIIIAAAgg0JeDRMYpu56gDLiZxcdIJikexuUH5i/JbZVNlqNLpQiUdkoZAXYFRWuvh+fx1eJvypOIRl95WPLeoi5M8OphHAPPXcdnbAaGDS+jRxS1LKh5e0lPZra9cp7hQkFY9AX9dfjt02yOCeXSwzZVZFL+/HhHJ7/HpyhVKunl7N4+6tZsySUhy+MpLtczfE25HKscp/hryz2eP6LSZcp4yv0JDAAEEEEAAAQQQQAABBBBAAAEEEEAAAQQQQACBwRb4my7ff0DtPDXYFFw9AggggAACCJRJ4EZ1xtNPudiB1rzA69rFI+Qs1cSuh4d9vF86Hl3HhUzvhXUehamd9mY4zsrtHIR9mxLwVHAuXEq/t8nXLrxLN49s93TGfultXfjkIr16x18kfXBe90TgVp3FP089DSANAQSqJeCfq/7+bff3brWuunO99ciC/r3kAvMyNo/A6f4lR40tYz/pEwL9IOA/evLPUxfU0xBAoFoC/sMY/n+m9ffsee3qzxsbtX6Iru75UuifR2umIYBAdwVG6/D+ebpCd0/D0RFAoAsCF4TvX9+joSGAAAIItC7gAUb8eWiZ1g/Bnr0SGK9XJ6rAeVzVu6zi6ZNmUjyd0hvK44r/0dM3kjwtGA2BKgvsrc5frXgaLxc5Tao8q3jUnF8oLlh5WKk3HZhW00oq4FHA/P7uoKyteGQlj5LkwraHwrrf6THdXtCC5ZSfK6sq/vnn6TddUJhsXra6soXif2RcSHGhkwukHlA8spK/fmgIIIAAAggggAACCCCAAAIIIIAAAggggAACCCCAAAIIIIAAAghkClCs9BnLino4Tan3F+2Paf0uyuWZkixEoDoCf1VXnVqNkVlqyVRjuYuFXJTmNNPGauNv5NjBRZt/CMmxOZsggAACCCCAAAIIIIAAAggggAACCCCAAAIIIIAAAggggAACCCDwX4Eii5X2aeONOKyNfdO7eoSQ3yv/F1Z4qgbf7H9LmUyZS5lcmU3xsNTbKmcqNAQQQAABBBBAAAEEEEAAAQQQQAABBBBAAAEEEEAAAQQQQAABBBBAAAEEEGhCoMhiJU851WrrVLHS7OqAR1RyodL1yo8VT3vked5j87qVlEMUTxN3suJp4R79zxY8QQABBBBAAAEEEEAAAQQQQAABBBBAAAEEEEAAAQQQQAABBBBAAAEEEEAAgYYCRRYrPd6gd5No/TTKOGE7j3R0pfJgg/2aWb2rNp5YuVpZU/kwY2dPeXSNMly5Ijz+QI+7ZWzLIgQQQAABBBBAAAEEEEAAAQQQQAABBBBAAAEEEEAAAQQQQAABBBBAAAEEEKghEKc+q7G6q4uH6ej18kWtn1RZV/GoRy4qukVpZ/o47f65tlZ4dbAeswqVkht/oBcHhAWrpY7DSwQQQAABBBBAAAEEEEAAAQQQQAABBBBAAAEEEEAAAQQQQAABBHolsKlOdJXyqvKu8ohygjKsVx3gPAgggECrAkUWK+Xp89vaaJSyiuJRjTx1nKdk61SbJRzo7pwHvCtsN3PO7dkMAQQQQAABBBBAAAEEEEAAAQQQQAABBBBAAAEEEEAAAQQQQKB7Ai7a+Xb3Dl/KI5+sXp2r+D76lMoQZXbFMwvdqayg0BBAAIHSCpS9WCnCfaQnh4YX3Zh+bdyc71Dc7v2c27MZAggggAACCCCAAAIIIIAAAggggAACCCCAAAIIIIAAAggggED3BI7UoQepWGlHXa/jdoayqPIlxbMKuVDJxUvnK57JiIYAAgiUUmC8UvYqu1P3hMXLZa9uaelj2mtBZSnFIzg1asuGDTyEHg0BBPIJ+OfM+Pk2ZSsEEGhRYJwW92M3BBBAAIHeCPB5qDfOnGWwBfg8NNjvP1ePAALlF+DzUPnfI3pYfYGq/HF69aW5AgQQKJvAl9Uhz6bzYtk61qX++HPVgeHYv9PjdonzPKvnNyn3KZ4paE9ln8R6niKAAAKlEahSsVIsdpi2g3qX6VguVjpEuV55s86xXYEaR3fykHq09gX84cGjVT3R/qEG8gjxH+Nv0dV/UkKB2D9P4UhDAIHeCMyp0/h/QmgIIFAdgYXVVX8eeqg6XS5VT+PnjSvVqzJ/HvJfstEQQKA3AvPrNLf25lScBQEEOiSwmI7jz0P3KmX8fd6hy+zaYeLnoZEl9Yv9O139c2gIINB9gYV0ihu6fxrOgAACCJRG4Oul6UlvOrKSTuNRlNwOyjjlv7XMI00dq2yv7Kd8nLEdixBAAIFCBapUaR9HNXq9g2LH6FguUPLQeLcp31KmSx1/Rr32sIF3KP6Q/5RySmobXrYmkPwHKD8nzRlE9bK6tfZVwV4IINCOAP/D0Y4e+yJQjEDy+7asv9PL3K/4rpW1j8V8VXFWBAZbgM9Dg/3+c/XVFIjft2X9fV72fvF5qJpf9/QagW4K8Hmom7ocGwEEmhFYXhv7s1T8o/Yher6v8qDyYVg3aeqAM+n1Eco/lbeU55XrFN/DTd/XHq5lvn/rYhy3xZXkZ7fXwnI/+A994zr3q1bbJmz3bsYG+4d18Xwz6LXvGT8Zlvtec2zpbVfUivMUj3z0vuLr+rOyyn/2yP9kmbDpv/Q4psZuF4flHgTEMwwl26l6YdsRqeW8RAABBBDIEFhCyx5T/EvEoyF1sq2rg/kXTvqXl39ZvJFa/opeuy+0zgjcqMP4w8jQzhxu4I7iwj1/3aY/ZJQFwoWA7t/KZekQ/UCgjwU8eoB/ni7Qx9fIpSHQrwJXhe9f/4MJrXkBfz73543Vmt+1J3v4H8Xcvw16cjZOgsBgC3j0AH8eWnKwGbh6BCopMCp8//L/M629fb7R5c8bG7W2e9f3ein0b6uun4kTIIDAaBH489AKUCCAQOUELgjfv/12D3J5XZc/p9ytTKxcHV7He7L+d51kG64Xr6a2Sd6/9efGSRI7HKDnYxL7+H6vX8e4kCm2ThYrecSiuZRYpBT76Pcxtv31xMvPVDwVmwtJk9cSn3v5rv/ZK98Tj+Dt/X/fYHNPi+ftvpPYzoN2JPvhqeJoCPSTwDm6GH8eikV9/XRtfXctRU4D5w/OjZr75x+SsylxyOBfN9qpyfWXavullaOUWFQxhZ47sX2gJ65A/Z7yTGI5TxFAAAEEEEAAAQQQQAABBBBAAAEEEEAAAQQQQAABBBBAAAEEsgU8AtFxiu/D+r7sGYoHjUiOquR7wV7noiYPXOHRizxN8GTKJooLhNZWPOpSLO75mZ47RyouCLpP6UXB1zCdx4VJ0ysnKpcobyvvKOn2VS34puJCqzhilEeYcmGp7017Ojf3/1zFxUV5mq3cHm+w8RNaP63iwqrY3EcXcvge/EeKR1iiIYAAAoUIFFmstGqTV+zK0gOVvzS5X57N79JGHmZvmLKc4gIpV+b6L3+eUlzp60peGgIIIIAAAggggAACCCCAAAIIIIAAAggggAACCCCAAAIIIIBAPgGP5rO98mPl0Bq7HK3lLlS6R1lfcUGNm0etPlWZSHHBk0cJOkzxqEZFNffPU7mtqVzToBNTab1HVvc+yWk6/6TXHiDjemVCxYVYZyl5Whxw4+UGG8fiJxcsxeZZhbZWNlfOU15JrOMpAggg0FOBIouVGg1NZwgPQ+cfmg8rHtno0S7rjNXxHRoCCCCAAAIIIIAAAggggAACCCCAAAIIIIAAAggggAACCCCAQPsC1+oQtQqVXNCzbjjFAXqMhUrJs56iF79UPCrRxsoxyZUFPP+FztmoUCl2y8VVyUKluNzTmT+tzKTM08Q1eLQpN097V6/F9ckRrLz9H0Lq7cs6BBBAoOsCRRYrecg7GgIIIIAAAggggAACCCCAAAIIIIAAAggggAACCCCAAAIIIIBA/wq42KhW8+w3vmftQSw80lBWc+GNB7WYT5k7a4MeLzs55/k81ZqLkmo1T+XmYqVYgFRru+Ty/8uzkbYZJ2yXVSiV8xBshgACCHRPoMhipe5dFUdGAAEEEEAAAQQQQAABBBBAAAEEEEAAAQQQQAABBBBAAAEEECiDgKd3q9WGhhUurmk0tZk39bRyRTb30VO45WkvaKP36mz4QViXtwDJm7+leGo3Tx9Xr3kUKrd/19uIdQgggEBRAoNSrHR2F4AZGaoLqBwSAQQQQAABBBBAAAEEEEAAAQQQQAABBBBAAAEEEEAAAQT6SuC1OlczTVjnEYBerbNdXPV2jm26uUm9a0mftxt9dbHUrEp0S58zvnZBkxvFSrWEWI4AAoUKFFmsNGeXrnxMxnG/kbGs3UUUK7UryP4IIIAAAggggAACCCCAAAIIIIAAAggggAACCCCAAAIIIDDIArH45w0hxAKbojwmKerETZz3YW27mOKCpXptlrAy6955vf1YhwACCPREoMhiJf8g7UaL828mj/3XGid6X8tdfbq5MlHY5hE9en7QN5UJlOmVL4fnr+vxKOVfCq3/BYbpEj0speeJvVRZr/8vmStEAAEEEEAAAQQQQAABBBBAAAEEEEAAAQQQQAABBBBAoGcCcUq1KXRG35d9vgtn/iRxzHr3x2OBTxe60LFD3qEj+d72onWO6Ov4Yljv7WkIIIBA6QSamf+y052/SwfsxtB3Wf1cSwuzsr6We75OFyodrXhOVI/4tKqygbK24spU/zD/qTK54m3OU2j9LeCitxGKC5UGqS2ti/UHNqdbo58NkmcvrnX5xHsW53Vu9ryHaQcXaH632R3ZHgEEEEAAAQQQQAABBBBAAAEEEEAAAQQQQAABBBBoQ+Aa7ftR2H+TFo7zYdjHg1DUar4HEtvMtTbS8uF11pVlVRykYz51aI4anfI9cLd3FN+TpyGAAAKlE6hXOdrtzrracynFP1D9y+OPynXKWCWOajSjni+nbKOMr+wQ1o+rx6wRlLS4qfYtbb2l4kKlH9TZ03N5HqxMquylXKX8qc72rKq+wB66hJWUF5Tpqn85XAECdQU8VaaHNvX0lsfX3ZKVCCCAAAIIIIAAAggggAACCCCAAAIIIIAAAggggEDnBDyS0hWKB5E4UBmlPNbE4V8M286mRw9Q4QKddPP9Pk83N6WyqfK79AZ6vbrie9dlb3erg7cpSygebGPrVIc9EMOPwrIL9NirwUNS3eAlAgggUF+gyJGVhqlrlyuvKK78dCGSfzHcoNyp3KJcpPiH6bzKU8qJytNh3c16zIoW5247hS1PzrnHmWG7XXNuz2bVFPDX26GKp/2L73k1r4ReI5BPwB/83f6Sb3O2QgABBBBAAAEEEEAAAQQQQAABBBBAAAEEEEAAAQQ6JuB7rx48YlrF94g9qMA8yjSKR0IarniWCBcxeXCJZPP9YjcvP0nxjDkeKMP3nz0AhptnFPF9Z7evKv7Dbd8PnFgZpuyunK+8oVSh7a9O+po8MMdpykLKDIoLrq5VPA3cu8pBSro9qwXe96b0Cl4jgAACvRQoslhpP13oVIpHKnqiwUW/rPU/VjzCzT4Ntm1m9fxh40dz7jQ2bPflnNuzWfUEPNrYWcqEin/Rv1+9S6DHCDQt4MJN/7XBIU3vyQ4IIIAAAggggAACCCCAAAIIIIAAAggggAACCCCAQHsCLkJaR/GgFS428qw4DygvKb6PfI2ytzJMSbcbteDKsNDFOx5F6T3lfsX3PmLzvWYPjuG2m/Iv5S3F5z5W8QAbm3llBZpnLooFS9vpuUdbchGSR6haTPlA2VZ5SEk2F3+5qMnNA4jQEEAAgcIEiixWWjNctX+55Gn+ReO2Xp6Nc27jghS3KXJuH7dzlS2tPwVcRLekcq3ikbzi10h/Xi1XhcB/BVxhT0MAAQQQQAABBBBAAAEEEEAAAQQQQAABBBBAAAEEihDwvWCPELSn4lF/XHT0keLRju5VPGrSysqbSrp9TQuOUDxAhQt1XlWuV5KDEjyj1y7k+ZXiQijfF/EUafcoHoHI575O8ahDVWieJWYN5RLFVr5uX+MfFU9nd46SbgsnFniKOBoCCCBQmIBHkSmqxapNV6zmaXF+0S/l2TjnNq6U9RCAWyrH5dhnk7DN2Bzbskn1BBZVl12F7GEmt1H8YSQOD1m9q6HHgyjgD+00BBBAAAEEEEAAAQQQQAABBBBAAAEEEEAAAQQQQKBogb+pA+M02QmPbnRUSDO7+n6zR15y6rUXtfKHIbW2qzXYh2enyDtDRd5th9fqRM7lo7Wdk7ctHjYcq8c4fV7efdkOAQQQ6KhArR+2HT1JjYO5IMRtwRrr04vjdnmLm9L7Z70eGRZ6jtNtlHq/MDfW+l+E7S/MOhjLKi0wRL339G/jK54H9/FwNfW+Jqp6wa46v1hxlbWrxscqrkb3/LVMeyeECjcPa+ppKv21/KTi188p5yoeMaxW8wdZF+edmrFBXLes1vn7YWvFI+J5ek4f30Wfng95LoWGAAIIIIAAAggggAACCCCAAAIIIIAAAggggAACCCBQToElQrdGlLN79AoBBAZJoMhipTitm4fkazTV1gTa5ufhjbmlg2/QL3WssYrnKz1DeURx0YaHF9xJ+Z5yjHKfcr4yieICAO9H6y+Bg3U5Cyh/Vvy10K/tp7qwq5X1Fc/56yKtWRV/vXs+2zkVWnUFVlXXb1O2UoYq/tk5vbKp4p+duyittvm1o4cEHaEMV6ZWfPxhynbKHYqHFaUhgAACCCCAAAIIIIAAAggggAACCCCAAAIIIIAAAgiUT8B/mO5ZOvr5Xmj51OkRAghkChRZrOT5QN08yotvcm+jxKnhPlvz2c3wzfTCN9lXCQuPjSs78OjRnXxz/85wrNn06KKNIxUXLblQyQVLHqnEzUVLqyme55TWPwLL6VJcoPaS8u3+uaz/uZINteRnYel1enRhiQsFp1E8cpivf0RYz0M1Bc5Ut/3z1D8vJ1cmVlZUPJSnR0U6XllBaaV5BLoNFA+/6jmNp1TmVvZRPMLSpMpvFBoCCCCAAAIIIIAAAggggAACCCCAAAIIIIAAAggggEC5BHxf50HF97+fKFfX6A0CCAyiwHgFXvQNOvd+yqHKfEqs4HxTzx2PdjRFqn+ehu2K1LJ2Xz6qA7how8UaHn3Ew9/NqHjEkA8UT6Hkm/8eWclTKTFNlhD6qHm0LBd4uHBvZ+X5Prq29KXE0cke0Iq1lXfCBi408Yg5/1C8jlZdAf+8Wl15O3EJ/lnrIsu7FI+cdZDiItFmm4vaDlRiwZv3f105XPHPSx93McXTCfIh1zo0BBBAAAEEEEAAAQQQQAABBBBAAAEEEEAAAQQQQKAcAq+pG75fREMAAQRKIVDkyEoGcPHR+opHLIrNo3N4hKVkodJDer2F4uKmbrQPddA/KZsowxRPjTW+4hvwvvHuEWnOVihUEkKfNY+iNUd4f0f22bUlL2cBvfA0Xm4uLomFSsltntKLPyYX8LxyAqeox8lCpXgBb+nJ0eHFcD1O18KVvat94oh46d2TXzfzpFfyGgEEEEAAAQQQQAABBBBAAAEEEEAAAQQQQAABBBBAAAEEEEAAgShQ5MhKsQ9/0RPHhRQe1WgmxaPd+Ia7Rwm5TblH6XVzAROtvwXW0OV5NCUX6Xy3vy/10++t2C6vc62eHm6HOutZVW6Bm+p07+rEOo+AVO/rIOswt2uhR73Lao8nFk6WtQHLEEAAAQQQQAABBBBAAAEEEEAAAQQQQAABBBBAAAEEEEAAAQQQsEAZipXiO3G/njg0BHol4EIlt6HKqw1Ouq7WfxK22VePhzXYvmyrvxQ65GITFwHWasmik1rbsLy8Ak/X6drYxDqPXtdsqze1m6fMjK3oEfuavS62RwABBBBAAAEEEEAAAQQQQAABBBBAAAEEEEAAAQQQQAABBBDooQA3lXuIzalKJzBIX/8TB/1aI+PEN6fR+tK9iXTocwLv1fHwNG6x4M7TbTbbsqaXa/YYbI8AAggggAACCCCAAAIIIIAAAggggAACCCCAAAIIIIAAAgggMOACZRpZacDfCi6/AIHddc79G5x3b63/pnK9smvYtt7IRA0OV9jqWGgyYYMeTNBgPavLLVDv/XXB2jih+xSllft9pHcIIIAAAggggAACCCCAAAIIIIAAAggggAACCCCAAAIIIIBA3wr0oljp1C7o7dCFY3LIwROoN61V1Hg5PHlDj/dVmCgWWE2pa5hKqTXt3fQVvka6/oUvzCqEh2pAzJ5Y/kyNbViMAAIIIIAAAggggAACCCCAAAIIIIAAAggggAACCCCAAAIIIIBAVwV6Uay0fReugGKlLqByyL4WuCNxdavo+cgaV7tMjeUsrobACurmlTW6unpY7qngkl8PNTZnMQIIIIAAAggggAACCCCAAAIIIIAAAggggAACCCCAAAIIIIAAAp0X6EWx0lWd7zZHRACBJgXu0vZjlDmVfZQ/Kx+kjuERl7Zr8rhsXi4BF3IepbyW6tbker1HWHa1Hl8qV7fpDQIIIIAAAggggAACCCCAAAIIIIAAAggggAACCCCAAAIIIIDAoAj0olhptUHB5DoRKLnAAerf75UllEuU/ZV/KhMpyymHKEMUWjUFPlK3p1ZcjPRj5WbFBWmLK0cqsygfKz9VaAgggAACCCCAAAIIIIAAAggggAACCCCAAAIIIIBAIwH/kbv/SPoB5XzlROWdRjuxHgEEEEAAgUYCvShWatSHMq1fRJ2ZW5lO8U3+35apc/SlEAGPRhNHpCmkAx086R90rIWVvZQ1QpKH92g7Li68UZkguYLnlRC4Vb08XDlHGZXRYxcq7aL8PWMdixBAAAEEEEAAAQQQQAABBBBAAAEEEEAAAQQQQACBtMA4WjCF8pWQb+pxJeX19Ia8RgABBBBAoBmB/2tm4z7edgtd2yPKncqflOOVn6eu17+MRyu3KS5ooiFQRYG91em1lMuUl5X3lLGKK+FdrOev74cVWvUEPJLSRcpSyh+Vp5X3leeVc8NyCjAFQUMAAQQQQAABBBBAAAEEEEAAAQQQQAABBBBAAIFcAqdrqxkV31/6RPEfxe+Ta082QgABBBBAoI5AWUZW8vREGylxVKO39fxbqX5PGl6/Wed6WlnloqT9cuzoX8C++b+q4r55Ci0aAlUU+Ks67dRqC9RawfJSCvxNvXIxZWz36MnXm+xpvek6661LnibZhyZPz+YIIIAAAggggAACCCCAAAIIIIAAAggggAACCCBQQgHfH31OOULxH71vqayp7FvCvtIlBBBAAIEKCRQ9spILkE4bTFHTAAAgAElEQVRSxipHK99RNlbWyTC8T8veUDy0YKeaC49iodIFer6KMkOdg18c1nk7GgIIIIAAAggggAACCCCAAAIIIIAAAggggAACCCCAAAIIIDAIAneFi5x2EC6Wa0QAAQQQ6K5AkcVK4+rSRio7KR6Rw9NRPVDncs8P6zxlW6fabuFAR+rRRVLXKJ4yqVa7N6xgGrhaQixHAAEEEEAAAQQQQAABBBBAAAEEEEAAAQQQQAABBBBAAIF+E3g/XFCR95f7zZTrQQABBAZWoMhfJltLfQ3FU77trkypzFfnnbg8rFu2zjbNrloy7HBMzh1fDdtNkXN7NkMAAQQQQAABBBBAAAEEEEAAAQQQQAABBBBAAAEEEEAAAQQQQAABBBBAAIEgMF6BEtuGc7tQ6bQc/Xg4bDMsx7Z5N4nDFD6Tc4dJwnaejo6GAAIIIIAAAggggAACCCCAAAIIIIAAAggggAACCCCAAAIIIIAAAggggAACTQgUObLSvKGfcXq3Rt1+K2wwcaMNm1gfi5RmzrnPMmG7J3Nuz2YIIIAAAggggAACCCCAAAIIIIAAAggggAACCCCAAAIIIIBA1QU+DBcwpOoXQv8RQAABBIoXKLJYKRYdvZmTIY6C9FLO7fNsdlPYyKM7NWoTaYN9w0aXNtqY9QgggAACCCCAAAIIIIAAAggggAACCCCAAAIIIIAAAggggECfCDwWrsP3bGfrk2viMhBAAAEEChIochq4sbrm+ZUFlbtyXP9aYZtHcmybd5OjtOGWyp6Ki5F+orySsfMCWvYbZSHlXeXUjG1YhAAC2QIuihw3exVLEUAAAQQQQACBgRDg89BAvM1cJAIIIIAAAgjUEeDzUB0cViHQIYFxOnQcDoMAAgjUErhCKx5U5lEuVDzIw53K88ontXZiOQIIIIAAAlkCRRYrjVKHXKx0qLK+EocOzOqnq3P3CyvOzdqgxWW3a78fKr9SdlF2Vu4Nx5pUjxcp/oUbp6zzqu8qj4ZteGhP4Mva3UUsT7R3mIHdO/7P580lFYj9G13S/tEtBPpRYE5d1H39eGFcEwJ9LLCwrs2fhx7q42vs5qXFzxv+x7Iytti/C8rYOfqEQJ8K+N8Zbu3Ta+OyEOhXgcV0Yf48dE+/XmCXryt+3hip85TxJmHs3wj1z6EhgED3BfxH1zd0/zScAQEEBlDgA13z8srByqaK7/W6zaWMCc95QAABBBBAIJdAkcVKx6iHOyhrK7cpByrXp3o9g15vHNZ5SMEnlbNS27T70qMrPaMcq0yn+IaRm+db3SA898PLyo6KK4VpnRFI/gNKGf8xpTNX2b2jJP9Spox+yf51T4EjI4BAUuBjOBBAoHICye/bMv4+Lzson4fK/g7RPwR6L8Dnod6bc0YE2hXg81B7gvHzkD9LlvHzJP8+1N77y94ItCLA56FW1NgHAQTyCrjIfAKFGTXyirEdAggggEApBYarV28p8X+m/SHazz9SXkss9zK/XkbpVptQB/YIT8crLkhy4dSflZOUTRSvp3VW4EYdziNqDe3sYQfmaK/rSv29sVRJr/jN0L+VS9o/uoVAPwl49AD/PPW0pTQEEKiWwFXqrr9/PTIarXkBT+Hsz0OrNb9rT/aI/0+T/COInpyYkyAwgAIePcA/T5ccwGvnkhGouoD/Ip//n2n9XYzTrmzU+iG6uudLOro/r23V1bNwcAQQsMBoxT9PV4ADAQQqJ+ARmf39u0TJe+4ipYcV/273v0mvokxV8j7TPQQQGCyBc3S5/nnazbqSwRLt4tUWObKSL+taZUHFoyx5hKXYH89hPoU3UHPh0uXKbsrYzxZ15b/v6qguTnJoCCCAAAIIIIAAAggggAACCCCAAAIIIIAAAggggAACCCCAAAKfCayph/gHd1/T86eAQQABBBBAoFWBoouV3O9HFY9oNLXiEViGKtMo/itkT892jeK/EKIhgAACCCCAAAIIIIAAAggggAACCCCAAAIIIIAAAggggAACCPReYNZwyhf1SKFS7/05IwIIINBXAmUoVoqgnsJhZF/pcjEIIIAAAggggAACCCCAAAIIIIAAAggggAACCCCAAAIIIIBA9QXifeX3q38pXAECCCCAQNECZSpW6qbFDl04+KldOCaHRAABBBBAAAEEEEAAAQQQQAABBBBAAAEEEEAAAQQQQAABBBBAAAEEEECgbwUGpVjplC68gxQrdQGVQyKAAAIIIIAAAggggAACCCCAAAIIIIAAAggggAACCCCAAAIIIIAAAgj0r0CRxUqXt8G6VpP7vldjew9T+IIyVBmS2OZDPX9bmUCZMLHcy25WHkgs4ykCCCCAAAIIIIAAAggggAACCCCAAAIIIIAAAggggAACCCDQzwLxXurH/XyRXBsCCCCAQG8EiixWWrM3l/jpWZIFR+nT7qoFxyu3Ksco1ytPK5+EDSfX4zLKD5WVlLOUM8M6HhBAAAEEEEAAAQQQQAABBBBAAAEEEEAAAQQQQAABBBBAAIF+F1g8XKAHgqAhgAACCCDQlkCRxUqNCn4m0ZXNoiyqjK+8oRyo3N/WFX9+5+X08jjlr8pXFY+olG7/Duuv1ONFiqd/+5fyj/SGvK6MwBfV05HKCorf+zwjdX1J2+2hrK3MqnjUrWeVvyknKLcoNAQQQAABBBBAAAEEEEAAAQQQQAABBBBAAAEEEEAAAQT6RWBcXcjMyrbKpuGiRvXLxXEdCCCAAALFCRRZrLRNzsueQtvtpeyrrKwcnXO/PJv5uP+nHKRkFSolj+EhDQ9TXNTk/TZJruR5ZQQWUU8vVlwIl7d5FDAXN7mAzs2jbjnDQr6hx4OVA7yy4m1p9f+mcA1z6XFMxa+nCt3fX530188jypxV6DB9RAABBBBAAAEEEEAAAQQQQAABBBBAAAEEEEAAgYEQcJHSKYkr9Uw1RwzElXORCCCAAAJdFXChTtnb6+rgj5VjlfWUrTvYYRdmuN2T85j/DNstm3N7NiuXgCu+b1RcqJR3iMppte35iguV7lZWD889taBH/bpUGUf5qZJnhCZtRkMAAQQQQAABBBBAAAEEEEAAAQQQQAABBBBAAAEEEECg9AL+433PQvN35XvK8sqbpe81HUQAAQQQKL1AFYqVIuLp4Ukni5WmbPEdmqbF/ditGAEXE3n0rHOViRUXvnk6vzxtc200qfK24mKk0co7ygfKXcrXlFjEto2e0xBAAAEEEEAAAQQQQAABBBBAAAEEEEAAAQQQQAABBBDoB4HTdBGeBWc55Tjl/X64KK4BAQQQQKB4gSoVKz0auBbqINvz4Vir5jzmSmG7vKPy5Dwsm3VZwFNreeo+T+W3p7KHMlHOc84atvOoSs9l7OOipWvC8mEZ61mEAAIIIIAAAggggAACCCCAAAIIIIAAAggggAACCCCAAAIIIIAAAgggEASqVKzk6bjcPMpNp9qV4UDH63GeBgd10crRYRuPrkOrjsDD6up3FY+CdFTo9vg5ux8L0yars3382ny5zjasQgABBBBAAAEEEEAAAQQQQAABBBBAAAEEEEAAAQQQQAABBBBAAAEEBl5gvAoJbBD6mjW6TauX8Qvt+HVlFsUj55yjXK64uMXzrU6ozKaspmyjTKK8pxym0KolcEqqu54aLk+LoyYtoI39dZAuVBumZeuEA43Mc0C2QQABBBBAAAEEEEAAAQQQQAABBBBAAAEEEEAAAQQQQAABBBBAAAEEBlWg7CMruX8zKz9QXFjkdn147MTDGB1kY8WFSUOUrZU/KrcpDyh3KRcquyouVHpb2UJ5UKENhsDtuswR4VIv0uPOyrjh9ZJ6dPHS5MoVyoiwvOwPK6uDFyseNepdZaxykuKiPeYaFkJBLdqvoPO78M2FmV7mR79fq+To16La5gzF02a+o7yk/EPxz1DPKV2rfagV/lrwz9yplCMUF216mc9/iZKcLnM6vf6l4p+FPs9ryrWKf542aotrg7OVRxTv+4Ti643TbDban/UIIIAAAggggAACCCCAAAIIIIAAAggggAACCCCAAAIIIIAAAgi0JOCb443ykbb5JBHfOF+wpbPV32mYVv9GeTF1vnjuV7T8VGXO+odhbZMCN2p7fw0MbXK/Tmx+gg7i99cjaTVqHoHs92F77+MCjfOVj0P8tTNRo4N0Yf3roU9LNXHsn4Z9kt9X8fmrWrdZYn27X+8uAvSxXRxFqy2wf3C6SY/fV/x1lfX+eLkLJ2u1A+rs6+O5gKnWz09/H3qbZZXHw/N0H/zz2CPRLaS40C29Pr7eS+tqtXrX5/0PqrUjyxsK3Kot/D56FDgaAghUS+Aqddffv+3+3q3WVXeut/6c7t8hHgGzjM0Fve5fHCW2jH2kTwj0i8ANuhD/PPUfldAQQKBaAqPUXf5/pvX37Hnt6s8bG7V+iK7u6T+kcv+26upZODgCCFhgtOKfp/5jSBoCCFRL4AJ119+/S1Sr2/QWAQQQKJ2AZ9Lyz9NlStczOlQqgVo3umst9ygcq/fgCobpHL5h7xsefpxdyTtlWA+611enqEqxUkQfoSfpr08XKhXVmi1W2jDR/2v13P+I7xHFplb8D1oeScejh8VrbPemKcVKwszR9g/mLhZzQZBHGfqK4tHc/N745mYsIPJIRF9U0u07WhDft/P0/P/buw94+a6yXvhwCaELgoBA6JEiIM3QS0KTJr0KSCgXQRGu4KUJol6U7gUBeUVeCShVmoAgGiBIlSKIIC1A6AEiEFrovM+P7MW7szN7Zs6ZcubM/7s+nyczs8taa3/3nnN2/us5a1+t4hwV56u4c8WnuvVfrNdzVQxLfmln//wD4mcrss95u0gCW/uHz6zPz+IkK92z4gIVv1CRRyEmGSp1JKl0Uhv9RLgn1TaZySszOR1Skc+t/7ev98rOBSQr7dzMHgQ2RUCy0mJnQrLSYn72JrBNApKVtulsOpYDTUCy0mJnXLLSYn72JrBNApKVtulsOpYDTUCy0oF2xh0vAQKrEpCstCrZFdSbGWP2qvzPORrO4PU3K5JE8R8VmVlk1eW4aiChEGgCSQ55WsUdK3JN5pFYmV3mwhV5LNwvV+R6/ljFJpc/7Tr3kXq9SUUSX1K+V5Eb4TwuLOuUvRFIctHrK25Xkess5dsVeQRckoPeXnHGiiQGPTcru3K2en1c9z6/gJNo1Epmc8ijLTNwk5+hv1jx2Ir7/GyLU77JI+DyuLkP9Ba/pN4nmSlJVElCSgJVspH/rbdN/mH5rhVJQEwCXB4Zl/1aSb+f2n34y3r9/d66z3WfL1qvSZpL/5JwpRAgQIAAAQIECBAgQIAAAQIECBAgQIAAAQIECBAgQIDAFgrsZbLSs7fQ0yFtn0CSM95acYmKj1YkEeR9Ffnu5JFYT6y4TsU7K5Lk8f6KTSx5NFSSqlIeX9ESlfp9TdJIElvu3V/o/VoFnlCttUSlfsPvqA85P5mFKNdiv9y2Pvxct+Dhg3XtY/Z9SkUes3anigdUZAakYXljLegnKrX1r643SRbNTEj5PvQTldo2SabKzEuZaenibWH3mlnxkiiVOh41WNc+Pr3eJFkp+16hYlO/SyPdt5gAAQIECBAgQIAAAQIECBAgQIAAAQIECBAgQIAAAQIE5hHIwLNCgMC4wJNrVZJD8oirPForiUopmWnmeRVJAsqMRJmRJrPabOp3qv+c43/KAYyUN48st3j1AnkEXGYmGiuf6VZkJqV+uWb34b/q9bjBuv7HJBylZP/MjDSpJOFoUvlBLfxKtyKJeWPl892KYR9v1C3/YL3mcT2Tyod6C4cJWZO2t4wAAQIECBAgQIAAAQIECBAgQIAAAQIECBAgQIAAAQIE9qHApiZW7ENKXd5CgTPXMWUWmpTMBpNHag1LEjju1i28ZL1mlqVNLOfvOvWtej1+Sgc/PWWdVasVyKPe8ki+sZKEoZThz+0LdsvzuMxppf+YwguMbJgZmMZKEvRS0s+x0rYZ9jEzQqXk8YmZOWpSfKlX6Xl6770lQIAAAQIECBAgQIAAAQIECBAgQIAAAQIECBAgQIAAgS0SyKOs9qpcqRq+RUVmBTlvRQan059vVBxb8d6KV1Xk8UcKgb0QSBLIGbqG3zOlA0kCSQJQHnOVR1gdM2XbvVqVxKuUJCtNK7PWT9vXusUEvrPL3c/S7Tfp0X79KlN/koROW3HOkbZm1ZHdWkLSSBUTF+dxiilJxprnGmuJWRMrs5AAAQIECBAgQIAAAQIECBAgQIAAAQIECBAgQIAAAQIE9q/AXiQrXaW4/p+KK46wZVD7ohU3rHhYRZKWHlwx9niqQ2vdNSrySC6FwDIFvturrCVbTKr/9LXw7N2KeRIxJtWx6mUtEeaMMxo6eMZ6qzdP4ISuS2ed0bWsT6JSyjdnbLvs1W1WsjyC8FbLrlx9BAgQIECAAAECBAgQIECAAAECBAgQIECAAAECBAgQILB/BIaP6ll1zx9UDWSmpJaolNkz/qPi7yue3UXef6Cizaxx5Xr/poqHVAxLZmd6W8XFhit8JrAEgc9WHe2RV/edUt89at2ZKjJrzdunbLeXq9qj385Rnfj5KR3JLGfK/hJoj267xIxu5zGFraz7cX9f6Bru92FGd60mQIAAAQIECBAgQIAAAQIECBAgQIAAAQIECBAgQIAAgW0UWGey0h0K8EkVafPzFb9Vce6KK1Rk3f/sIu8vX5Gkid+u+GJFZgN5fMVvVrRyRL05puI8vWXeElimwI+rsqd0Feba+4uKzPqVkmsyj4n7s4qndcsyu1cSnDax/HuvU9eb0sGrT1ln1WYKvL7rVpKVpiUs5bGbKd+veFf3fl0vR3cNXapeL7uuRrVDgAABAgQIECBAgAABAgQIECBAgAABAgQIECBAgAABApsnsK5kpSQlZeakJHgcU3HpimdVnDiF5Gu17pndtv/abZdkkTxu63YVr6s4W0USSv6rW++FwLIFkiT3nK7S363XT1Z8uyKPVftMxcMrDq54bcX9Kja1vL86dmzXuTxeMY+uG5bMuHTP4UKfN17gn6uHSepMeexIbw+p5bl+U15Yse7HFb6m2vxq135+rmcmsrHSHlU3tt5yAgQIECBAgAABAgQIECBAgAABAgQIECBAgAABAgQIENjHAutKVkoCRBKLTqi4bcU3d2CWhKbbVPx3RRKVXlbx4oozVHyj4pYVL6lQCKxCIMlwuX5vUPH8ik9UJJnidBVJEHlVRZLnblZxUsUml0d3nfvVek3yyGEVZ644V0Vm3XlzRb5Xyv4SyExJmZkuJT8rX1qRc3uWipzb21ck4TPJaPk5+gcV6y7frQbv0zV6rXp9Z8UdKy5UkT5evCLX4N9UJPlKIUCAAAECBAgQIECAAAECBAgQIECAAAECBAgQIECAAIEtFThoTcd1k66dDES32TV20nQG2DMz00Mrrt/tmFliMrj94Z1UZFsCncD96zUxb3lDbZjYz+UF1fk8YvEhFTfqon88SSZMUtbbKjJblLJ/BP6xunqvisxalITQxLAcXwtuXpHHcO5FSaLpfSueWvErFS8a6cR7R5ZbTIAAAQIECBAgQIAAAQIECBAgQIAAAQIECBAgQIAAAQJbILCumZUu01ll5pbdlmN6Ox5d769SIVFpt5r2O1AFkvB344rXVSQJ8HsVx1U8o+IKFe+p+HiFsv8EkgyaZLSnV3y0IjN9Zfa5JP88quJS3ft62bPyV9Xy5SqeUPGfFZk574cVuRbfUfGnFXepUAgQIECAAAECBAgQIECAAAECBAgQIECAAAECBAgQIEBgSwXWNbPSOTq/Ly3gmFlBWkmyxY8WqMuuBA5kgdfXwSfGymXHVli+EoHHVK2JWeXwWRvU+o9U/O4c2w03med3wSHDnSZ8ziMGZ5UkwyVpLqEQIECAAAECBAgQIECAAAECBAgQIECAAAECBAgQIECAwAEmsK6ZlTJzRsoZF/A9Q7dvZguRqLQApF0JECBAgAABAgQIECBAgAABAgQIECBAgAABAgQIECBAgAABAgQI7IXAupKVvtgd3MUXOMi2b3+GpQWqsysBAgQIECBAgAABAgQIECBAgAABAgQIECBAgAABAgQIECBAgAABAusUWFey0vu6g7r1AgfX9m11LVCVXQkQIECAAAECBAgQIECAAAECBAgQIECAAAECBAgQIECAAAECBAgQWLfAupKVXt4d2C3r9fBdHOR1ap/bdvu1unZRjV0IECBAgAABAgQIECBAgAABAgQIECBAgAABAgQIECBAgAABAgQIENgrgXUlK72kDvBjFaeteFXFzXdwwNn21d2+H6/XF+9gX5sSIECAAAECBAgQIECAAAECBAgQIECAAAECBAgQIECAAAECBAgQILAhAutKVvpBHe+tKr5ecbaKJB+9seLIikMrksTUSt5n2ZEV2Sbb/lzFSRV3qfhhhUKAAAECBAgQIECAAAECBAgQIECAAAECBAgQIECAAAECBAgQIECAwD4TOGiN/f1wtXWzihdWXKjiiC7ShSQgfTNvqiQx6XTd+/ZyfL25Q8W7B8t9JEBg8wWSFDn8Tm9+r/WQAAECBAgQILA8AfdDy7NUEwECBAgQILA/BdwP7c/zptf7S6D/R+H7q+d6S4AAAQIECBAgcMAJ7MXN61lK+Q8qjqw43wzxz9b6F1Q8oeKrM7a1ev8JZKats1f8ZP91fSN63L6/m+q3Fz9fNuLE6ASBPRS4dbX9yj1sX9MECOxc4ITa5VwVm/r7fOdHtN493A+t11trBPaDwJHVyefuh47qIwECPxPIHymet8L90O4uiv6/v2yioX8f2t15tReBRQTuXzs/Y5EK7EuAwNoFXl4t3qLiuxU/XnvrGiRAgMD2CJyhDiWTaFy74h3bc1jbeSTrnFmpCX673jyiIglLV6y4WkX+QeLcFfkf6i9XfKni7RUfqFC2V6D/Dyib+I8pmy7vH6M2/QzpH4H1C/gf2fWba5HAogLuhxYTdD+0mJ+9CWyjgPuhbTyrjmnbBfrfW/8+tPOz3U/e3kQ/yUo7P6f2ILCogPuhRQXtT2D9Ann6zNfW36wWCRAgsHUC3+uO6Adbd2QOiACBpQq8rWrLIwAPWWqtB05lJ9ah5h+hrrKhh/ytrn9HbGj/dIvANgnkMan5eXrZbToox0LgABF4Q/f9PfQAOd5lH2ZmX8390A2WXfGS6stMounfLZdUn2oIEBgXeEutyv3QYeObWEOAwIYKvLb7/vr/md2doPzRZ+43brO73Ve+V2YSTf/utvKWNECAwNFFkPuhzCSgECBAgAABAgQIENhogTwrXCFAgAABAgQIECBAgAABAgQIECBAgAABAgQIECBAgAABAgQIECBAgMDKBSQrrZxYAwQIECBAgAABAgQIECBAgAABAgQIECBAgAABAgQIECBAgAABAgQIRECykuuAAAECBAgQIECAAAECBAgQIECAAAECBAgQIECAAAECBAgQIECAAIG1CEhWWguzRggQIECAAAECBAgQIECAAAECBAgQIECAAAECBAgQIECAAAECBAgQkKzkGiBAgAABAgQIECBAgAABAgQIECBAgAABAgQIECBAgAABAgQIECBAYC0CkpXWwqwRAgQIECBAgAABAgQIECBAgAABAgQIECBAgAABAgQIECBAgAABAgQkK7kGCBAgQIAAAQIECBAgQIAAAQIECBAgQIAAAQIECBAgQIAAAQIECBBYi4BkpbUwa4QAAQIECBAgQIAAAQIECBAgQIAAAQIECBAgQIAAAQIECBAgQIAAAclKrgECBAgQIECAAAECBAgQIECAAAECBAgQIECAAAECBAgQIECAAAECBNYiIFlpLcwaIUCAAAECBAgQIECAAAECBAgQIECAAAECBAgQIECAAAECBAgQIEBAspJrgAABAgQIECBAgAABAgQIECBAgAABAgQIECBAgAABAgQIECBAgACBtQhIVloLs0YIECBAgAABAgQIECBAgAABAgQIECBAgAABAgQIECBAgAABAgQIEJCs5BogQIAAAQIECBAgQIAAAQIECBAgQIAAAQIECBAgQIAAAQIECBAgQGAtApKV1sKsEQIECBAgQIAAAQIECBAgQIAAAQIECBAgQIAAAQIECBAgQIAAAQIEJCu5BggQIECAAAECBAgQIECAAAECBAgQIECAAAECBAgQIECAAAECBAgQWIuAZKW1MGuEAAECBAgQIECAAAECBAgQIECAAAECBAgQIECAAAECBAgQIECAAAHJSq4BAgQIECBAgAABAgQIECBAgAABAgQIECBAgAABAgQIECBAgAABAgTWIiBZaS3MGiFAgAABAgQIECBAgAABAgQIECBAgAABAgQIECBAgAABAgQIECBAQLKSa4AAAQIECBAgQIAAAQIECBAgQIAAAQIECBAgQIAAAQIECBAgQIAAgbUISFZaC7NGCBAgQIAAAQIECBAgQIAAAQIECBAgQIAAAQIECBAgQIAAAQIECBCQrOQaIECAAAECBAgQIECAAAECBAgQIECAAAECBAgQIECAAAECBAgQIEBgLQKSldbCrBECBAgQIECAAAECBAgQIECAAAECBAgQIECAAAECBAgQIECAAAECBCQruQYIECBAgAABAgQIECBAgAABAgQIECBAgAABAgQIECBAgAABAgQIEFiLgGSltTBrhAABAgQIECBAgAABAgQIECBAgAABAgQIECBAgAABAgQIECBAgAAByUquAQIECBAgQIAAAQIECBAgQIAAAQIECBAgQIAAAQIECBAgQIAAAQIE1iIgWWktzBohQIAAAQIECBAgQIAAAQIECBAgQIAAAQIECBAgQIAAAQIECBAgQECykmuAAAECBAgQIECAAAECBAgQIECAAAECBAgQIECAAAECBAgQIECAAIG1CEhWWguzRggQIECAAAECBAgQIECAAAECBAgQIECAAAECBAgQIECAAAECBAgQkKzkGhkIw9YAACAASURBVCBAgAABAgQIECBAgAABAgQIECBAgAABAgQIECBAgAABAgQIECBAYC0CkpXWwqwRAgQIECBAgAABAgQIECBAgAABAgQIECBAgAABAgQIECBAgAABAgQkK7kGCBAgQIAAAQIECBAgQIAAAQIECBAgQIAAAQIECBAgQIAAAQIECBBYi4BkpbUwa4QAAQIECBAgQIAAAQIECBAgQIAAAQIECBAgQIAAAQIECBAgQIAAAclKrgECBAgQIECAAAECBAgQIECAAAECBAgQIECAAAECBAgQIECAAAECBNYiIFlpLcwaIUCAAAECBAgQIECAAAECBAgQIECAAAECBAgQIECAAAECBAgQIEBAspJrgAABAgQIECBAgAABAgQIECBAgAABAgQIECBAgAABAgQIECBAgACBtQhIVloLs0YIECBAgAABAgQIECBAgAABAgQIECBAgAABAgQIECBAgAABAgQIEDgIAQECBFYscNqqP6EQIECAAAECBA5UAfdDB+qZd9wECBAgQIBAE3A/5FogQIAAAQIECBAgQIAAgZ8JSCBwMeylwNer8bNX/GQvO7GP227f30318/NlH19cur5vBW5dPX/lvu29jhM4MAVOqMM+V8Wm/j7f9LPifmjTz5D+EVi/wJHV5HPX36wWCRBYQOD42ve8Fe6Hdofofmh3bvYisM0C96+De8Y2H6BjI0CAAAECBAgQ2P8CHgO3/8/hfj4C/wi1n8+evhMgsIkCP97ETukTAQJTBdwPTeWxkgABAjsWcD+0YzI7ENhzAd/bPT8FOkCAwJYJ+Lm6ZSfU4RAgQIAAAQIECBAgsFyBt1V1P6w4ZLnVHjC1nVhHmgHOq2zoEX+r698RG9o/3SKwTQLvroPJz9PLbtNBORYCB4jAG7rv76EHyPEu+zC/WhXmfugGy654SfVlJtH075ZLqk81BAiMC7ylVuV+6LDxTawhQGBDBV7bfX/9/8zuTtCXarfcb9xmd7uvfK/MJJr+3W3lLWmAAIGjiyD3Q9dGQYAAAQIECBAgQGDTBcystOlnSP8IECBAgAABAgQIECBAgAABAgQIECBAgAABAgQIECBAgAABAgQIbImAZKUtOZEOgwABAgQIECBAgAABAgQIECBAgAABAgQIECBAgAABAgQIECBAgMCmC0hW2vQzpH8ECBAgQIAAAQIECBAgQIAAAQIECBAgQIAAAQIECBAgQIAAAQIEtkRAstKWnEiHQYAAAQIECBAgQIAAAQIECBAgQIAAAQIECBAgQIAAAQIECBAgQGDTBSQrbfoZ0j8CBAgQIECAAAECBAgQIECAAAECBAgQIECAAAECBAgQIECAAAECWyIgWWlLTqTDIECAAAECBAgQIECAAAECBAgQIECAAAECBAgQIECAAAECBAgQILDpApKVNv0M6R8BAgQIECBAgAABAgQIECBAgAABAgQIECBAgAABAgQIECBAgACBLRGQrLQlJ9JhECBAgAABAgQIECBAgAABAgQIECBAgAABAgQIECBAgAABAgQIENh0AclKm36G9I8AAQIECBAgQIAAAQIECBAgQIAAAQIECBAgQIAAAQIECBAgQIDAlghIVtqSE+kwCBAgQIAAAQIECBAgQIAAAQIECBAgQIAAAQIECBAgQIAAAQIECGy6gGSlTT9D+keAAAECBAgQIECAAAECBAgQIECAAAECBAgQIECAAAECBAgQIEBgSwQkK23JiXQYBAgQIECAAAECBAgQIECAAAECBAgQIECAAAECBAgQIECAAAECBDZdQLLSpp8h/SNAgAABAgQIECBAgAABAgQIECBAgAABAgQIECBAgAABAgQIECCwJQKSlbbkRDoMAgQIECBAgAABAgQIECBAgAABAgQIECBAgAABAgQIECBAgAABApsuIFlp08+Q/hEgQIAAAQIECBAgQIAAAQIECBAgQIAAAQIECBAgQIAAAQIECBDYEgHJSltyIh0GAQIECBAgQIAAAQIECBAgQIAAAQIECBAgQIAAAQIECBAgQIAAgU0XkKy06WdI/wgQIECAAAECBAgQIECAAAECBAgQIECAAAECBAgQIECAAAECBAhsiYBkpS05kQ6DAAECBAgQIECAAAECBAgQIECAAAECBAgQIECAAAECBAgQIECAwKYLSFba9DOkfwQIECBAgAABAgQIECBAgAABAgQIECBAgAABAgQIECBAgAABAgS2RECy0pacSIdBgAABAgQIECBAgAABAgQIECBAgAABAgQIECBAgAABAgQIECBAYNMFJCtt+hnSPwIECBAgQIAAAQIECBAgQIAAAQIECBAgQIAAAQIECBAgQIAAAQJbIiBZaUtOpMMgQIAAAQIECBAgQIAAAQIECBAgQIAAAQIECBAgQIAAAQIECBAgsOkCkpU2/QzpHwECBAgQIECAAAECBAgQIECAAAECBAgQIECAAAECBAgQIECAAIEtEZCstCUn0mEQIECAAAECBAgQIECAAAECBAgQIECAAAECBAgQIECAAAECBAgQ2HQByUqbfob0jwABAgQIECBAgAABAgQIECBAgAABAgQIECBAgAABAgQIECBAgMCWCEhW2pIT6TAIECBAgAABAgQIECBAgAABAgQIECBAgAABAgQIECBAgAABAgQIbLqAZKVNP0P6R4AAAQIECBAgQIAAAQIECBAgQIAAAQIECBAgQIAAAQIECBAgQGBLBCQrbcmJdBgECBAgQIAAAQIECBAgQIAAAQIECBAgQIAAAQIECBAgQIAAAQIENl1AstKmnyH9I0CAAAECBAgQIECAAAECBAgQIECAAAECBAgQIECAAAECBAgQILAlApKVtuREOgwCBAgQIECAAAECBAgQIECAAAECBAgQIECAAAECBAgQIECAAAECmy4gWWnTz5D+ESBAgAABAgQIECBAgAABAgQIECBAgAABAgQIECBAgAABAgQIENgSAclKW3IiHQYBAgQIECBAgAABAgQIECBAgAABAgQIECBAgAABAgQIECBAgACBTReQrLTpZ0j/CBAgQIAAAQIECBAgQIAAAQIECBAgQIAAAQIECBAgQIAAAQIECGyJgGSlLTmRDoMAAQIECBAgQIAAAQIECBAgQIAAAQIECBAgQIAAAQIECBAgQIDApgtIVtr0M6R/BAgQIECAAAECBAgQIECAAAECBAgQIECAAAECBAgQIECAAAECBLZEQLLSlpxIh0GAAAECBAgQIECAAAECBAgQIECAAAECBAgQIECAAAECBAgQIEBg0wUkK236GdI/AgQIECBAgAABAgQIECBAgAABAgQIECBAgAABAgQIECBAgAABAlsicNotOQ6HsT8F3lbdvmrFdyp+sj8PYU97fbZqPd/hb1X8eE97Mrnx1r8fTV5tKQECKxC4QtX5wRXUq0oCBFYn8Iaq+roVJ1Vs4u/z1R35cmpu9xvfruo28Z7D/dByzrNaCOxE4Oq18bt3soNtCRDYc4HXVg9uVOF+aHen4qy1W/4gNf++9sPdVbHSvdwPrZRX5QQmChxRS98ycY2FBAgQIECAAAECBDZE4KAN6YduHJgC36zD/vqBeehLOer8A1S+wz+o2MTBzQwYnq5iE/+hbCknQCUENlBA4ucGnhRdIjBDIEnH7odmIE1Znfug01d8v2IT74fa/Vrui/yMnnIirSKwRIFN/FmwxMNTFYGtFPDvQ4ud1twPHVyR+6FNTN52P7TY+bU3gd0IuB/ajZp9CBAgQIAAAQIECBAgQIAAAQIECBAgQIAAAQIECBAgQIAAAQIECBAgQIAAAQIECBAgQIAAAQIECBAgQIAAAQIECBAgQIAAAQIECBAgQIAAAQIECBAgQIAAAQIECBAgQIAAAQIECBAgQIAAAQIECBAgQIAAAQIECBAgQIAAAQIECBAgQIAAAQIECBAgQIAAAQIECBAgQIAAAQIECBAgQIAAAQIECBAgQIAAAQIECBAgQIAAAQIECBAgQIAAAQIECBAgQIAAAQIECBAgQIAAAQIECBAgQIAAAQIECBAgQIAAAQIECBAgQIAAAQIECBAgQIAAAQIECBAgQIAAAQIECBAgQIAAAQIECBAgQIAAAQIECBAgQIAAAQIECBAgQIAAAQIECBAgQIAAAQIECBAgQIAAAQIECBAgQIAAAQIECBAgQIAAAQIECBAgQIAAAQIECBAgQIAAAQIECBAgQIAAAQIECBAgQIAAAQIECBAgQIAAAQIECBAgQIAAAQIECBAgQIAAAQIECBAgQIAAAQIECBAgQIAAAQIECBAgQIAAAQIECBAgQIAAAQIECBAgQIAAAQIECBAgQIAAAQIECBAgQIAAAQIECBAgQIAAAQIECBAgQIAAAQIECBAgQIAAAQIECBAgQIAAAQIECBAgQIAAAQIECBAgQIAAAQIECBAgQIAAAQIECBAgQIAAAQIECBAgQIAAAQIECBAgQIAAAQIECBAgQIAAAQIECBAgQIAAAQIECBAgQIAAAQIECBAgQIAAAQIECBAgQIAAAQIECBAgQIAAAQIECBAgQIAAAQIECBAgQIAAAQIECBAgQIAAAQIECBAgQIAAAQIECBAgQIAAAQIECBAgQIAAAQIECBAgQIAAAQIECBAgQIAAAQIECBAgQIAAAQIECBAgQIAAAQIECBAgQIAAAQIECBAgQIAAAQIECBAgQIAAAQIECBAgQIAAAQIECBAgQIAAAQIECBAgQIAAAQIECBAgQIAAAQIECBAgQIAAAQIECBAgQIAAAQIECBAgQIAAAQIECBAgQIAAAQIECBAgQIAAAQIECBAgQIAAAQIECBAgQIAAAQIECBAgQIAAAQIECBAgQIAAAQIECBAgQIAAAQIECBAgQIAAAQIECBAgQIAAAQIECBAgQIAAAQIECBAgQIAAAQIECBAgQIAAAQIECBAgQIAAAQIECBAgQIAAAQIECBAgQIAAAQIECBAgQIAAAQIECBAgQIAAAQIECBAgQIAAAQIECBAgQIAAAQIECBAgQIAAAQIECBAgQIAAAQIECBAgQIAAAQIECBAgQIAAAQIECBAgQIAAAQIECBAgQIAAAQIECBAgQIAAAQIECBAgQIAAAQIECBAgQIAAAQIECBAgQIAAAQIECBDYPoEf1iH9pOKuuzy0o7v9n73L/e1GgAABAgQIECBAgAABAgQIECBAgAABAgQIECBAYBGBa9XOGe9KHLLLiox57RLObgQIbKbA/9jMbukVAQIEDjiB09UR377iBRWfrPhWxUkVn+qW5UZWIUCAAAECBAgQIECAAAECBAgQIECAAAECBAgQILDpAmeqDv5exVsrTqj4QcXxFa+tuEPFaSvmKb9aG32uIoleD5tjh69227bksEmvL5qjHpsQIECAAAECB7DAgTKz0g3qHB9bMemGqS37ca1/xAF8LTh0AgQIECBAgAABAgQIECBAgAABAgQIECBAgMB+FDjQZla6cJ2k4bhXkpX642BJWkpC07TyG7Uyf9jf9puVrJSJWjKeNm28LeskK01Tt47AmgTMrLQmaM0QIEBgisCda93FK06s+JOKZImfu+L8Fbeo+EBFMsz/tOL6FQoBAgQIECBAgAABAgQIECBAgAABAgQIECBAgACBTRRIMlDGvf674h4VP19xcEWSmJ7Ydfgm9fro7v3wJTkMj6t4fkX2Sz3zlHPWRm3GpiPq/RVH4qHzVGYbAgQIECBA4MAVOFBmVjpbneLHVvzCyKnOzdUXKpLt/fKRbSwmQIAAAQIECBAgQIAAAQIECBAgQIAAAQIECBDYPIEDaWalyxR/m9no10dOxbO6bfJYuGH5uVrwmm799+r1ThV5lFzqnDWz0iW77TK70ukqFAIENljAzEobfHJ0jQCBnwn8aMstvlnH9/CKPLN3UsnzdV/XrfiVSRtYRoAAAQIECBAgQIAAAQIECBAgQIAAAQIECBAgsPEC2z7mldmTUpJc9C8jZ+P13fLz1usZB9vcsj7frOJrFTeuyCxNZx5sM/bxXN2KPMlk253HDCwnsG8EJCvtm1OlowQOaIFkTmd2ocdXfKziOxW5SXljRTKqFym/WDun3jxq7RsVSRz6YMWTKi42R8V5VFumqfz3ikxD+e2Kj1b8Q0Wepbus0hKZ2vSVy6pXPQQIECBAgAABAgQIECBAgAABAgQIECBAgAABAusRyJhXZh96XsVnK/I5Mwy9pOKwBbuQx549p+KTFSdVZGzpXRUPqjj7HHUvY8zry107Gc86y0ib7UkjGe/77mCbv63PT664esWbunWnH6lnuLglK8372Ljh/j4TIECAAAECBH4q0B4Dd796/5mKNm3k8DXPrJ00nePR3T7PHvG8aS1PctKwvvY5iUd3HNk3i/M83dzwjO2fG8tllTbFZZKgFAIECBAgQIAAAQIECBAgQIAAAQIECBAgQIAAgf0h0H8M3O2ry0kkmjS2lMeX/fbIIc0a83p07Zf9J9WbZUlgutxI3Vm8rDGvM1VdX+r68ZgJ7SXx6N3d+iRszVMyyUCOYdZj4I7stvu3eSq1DQECBAgQIEBgTKAlKyWz+nMVmano3BUHV1y64jkV7abrDyZUMu3G7fK1fbK1s//7Km5ekbozg9P1Ko7p1mWayGtXDMsv14L0K/t/quJeFVmWuEXFX1Rcv2IZ5e5VSTvOX1tGheogQIAAAQIECBAgQIAAAQIECBAgQIAAAQIECBBYi0A/WSljS2+rOKLibBVJ7sk41DsqMhY0Ni41bcwrf/TfxpH+vt5freIcFeeruHNFxrGy/osVbfahevuzsuwxr/641lOrlfQlJU87ySPg0pfMKpX+zVPmTVZ6cFf3a3uVTprsYJ42bUOAAAECBAgcwAItWSmvlx1xeGEtz01NZkg662CbaTdueYRc9stj5XIzOCzJ7H5Lt00e6zZ8/FqrOzM+JclpGSWP5swNW+ICFTeoOKoimfA/qPjdCoUAAQIECBAgQIAAAQIECBAgQIAAAQIECBAgQGD/CPSTlTLD0ZkndD2PTPt4Rcau3jRh/diYV8a4Tuz2y5jZpHJILWxPCnnWhA1WMeb1gGqnjfN9td4/t+JbFe34LjyhH2OL5k1W+rOu/q/U6ycq2qQDmbzgPyoeV5HxN4UAAQIECBAgMFWg3cQky3qsJNs7NzaJTJ3ZL2M3bhfp7XP3wT79j8lkb3Vfo7cimd7JbM+6e0/Zf6erDu2119pNotJfVYwla+20DdsTIECAAAECBAgQIECAAAECBAgQIECAAAECBAisT6CfrPTwKc3mEXBtfOg8g+3GxryO7O1zkSl1P6rb7hv1esbedqsa80oTR3ZttmPK63srkpi1kzJvstIfTmiv33bef73iZjtp3LYECKxGILN4KAQIENh0gUx9OVb+q1bk2bcpVx7baLD8mr3Pr5uyz1trXW5aUvqPX7tOfW4/P18zZf9lrMqMTkmI+uuK2y6jQnUQIECAAAECBAgQIECAAAECBAgQIECAAAECBAjsicC0Ma88FaSVK83ZuzbmlfGy46bs8+puXWZiunpvu1WMeR1U9f9xRf4YP+VdFf/Wvc9xJfnoxt3nZb78SVV2o4qYXLAiSVmZxSoTHzy0ImN+Z694WcWlKhQCBPZQQLLSHuJrmgCBuQU+P2PL47r1edbtPCU3KCmZFvPLU3ZIhnWm3EzpTwvZ2smj546fsv9OVx1bOyQ5KZGbp4tX3LnizRV5vvBLKx5ZoRAgQIAAAQIECBAgQIAAAQIECBAgQIAAAQIECOw/gWljXsf1DmenY15tPGtM5GO9Fasc88oYVx5Hl1mOvldxp4qrVmSc6/CKf6+4SMU/VtyjYtnlX6rCt1d8riLtn1Tx4YonVCQxK8vOUJHkJYUAgT0UkKy0h/iaJkBgboHcOEwrudFIOeu0jXrr2vSSbb9pu327W3nO3kbn6t7n2bqrKulbnlv8oorrVTyta+iP6vUi3XsvBAgQIECAAAECBAgQIECAAAECBAgQIECAAAEC+0dg2pjXd+sw8of0Kcse8/pOr+5Vjnndvdq5XcUPKg6veHEOpivtj/OfVZ+Tp/DMiov11q/67X9WA60/R6y6MfUTIDBdQLLSdB9rCRDYDIH+s3Mn9aglH82bPHRCV8k8N3qZDjMlsyi1khmZUjL70brKY7qGTlevN1xXo9ohQIAAAQIECBAgQIAAAQIECBAgQIAAAQIECBBYmsC0Ma+MO2VmopRlj3llTKzVvcoxr3t2/T+qXjOL0rAkien+FZ+uyAxHvzncYMWfk7CUcu4Vt6N6AgRmCEhWmgFkNQECGyFw4Rm9aFnXX5ixXVudqR9TcmN2vin75GfkL3Xrc9PUype6N3mu7Xl6y1f59itV+Y+7Bn5ulQ2pmwABAgQIECBAgAABAgQIECBAgAABAgQIECBAYCUC08a8+rMM7XTM6xIzenvJ3vpVjnm1cbX3TOlPEpbe0a2/+JTtVrEqCVIp/YStVbSjTgIEZghIVpoBZDUBAhshcO0pvbhirWuPZXvvlO36q95YH3IjlPLrU/a5bq1riUFv6W2XZ922crMp+y9z1aWqsvYz+zPLrFhdBAgQIECAAAECBAgQIECAAAECBAgQIECAAAECaxGYNubVnqyRR8FNmpVoUgdf3y1MstK0hKVbdNt9v17f1ato2WNeeZRdShu76zV1irdtZqN5Z5Aaq2eny6/Z7fCBne5oewIECBAgQODAEfhhHWpuyDKj0FVHDvsV3TZ5NNvwsWxHd+uePWHfl3brPlmvmSFpWE5fC97W22aY3Pnubt2n6rX/bN9hPbM+57Fus2ZnStvtOPNM4UXam9Uf6wkQIECAAAECBAgQIECAAAECBAgQIECAAAECBJYncK2qKuNdicyYdI4JVeeP5zPjUbbJ+NawjI15HVwbps7s97LhTt3nQ+r1q902R03YZlljXqn677t2PlyvZ5rQVhZdpiJJU+nzXUe26S/+YLftw6Zse1Ct+4Up67MqExhkzDHt3n3GtlYTIECAAAECB7BAS1b6dhl8ueJeFeevyM1NbmT+rqLd3D10gtPYjVs2vUDF17r931+vN63IzeHZKpLVntmXUnduWm5cMSxXrwWtfx+p93euyPScF6q4RsWjKp403GnC5zyKLvX8U0WOLzNFJXkpfUl9d6jIrE7tOB9d7xUCBAgQIECAAAECBAgQIECAAAECBAgQIECAAIH9IXCt6mbGeTIelJmHMmvSTSp+viLjRNetaAlDP6r3GWcalmljXnkKSBtHyh/rH1ZxlorMbnT7ivzhftafUJHxsWFZ1phX6s3MRS0hKH1OX9qEAPlj/HtWHF+R/ny0oj2Wrd6OlnmSlTKulke7HVWRMbvLVmS8LY+Zu1HFiypim3b/tWI4SUEtUggQIECAAAECJwvkpi1x+YrPVbQbreHr82pdZigalmk3btn2KhWfrxjW1z4nq/vIYaW9z3ep90mkGtv/lVP2batyszi2f395HJ5Qcdo56rQJAQIECBAgQIAAAQIECBAgQIAAAQIECBAgQIDAZgi0ZKV3VHduVZGEpUljQ0mm+a2RLs8a80oS0PdG6k1bX6y48kjdWbyMMa9W/X0GfUm/kkjUP+aP1edDp/Snv2qeZKU8RWWS6XBZJg9IkphCgAABAgQIEBgVSILO+7q1mboxMxV9vOKkiq9XvKEiMw+NlVk3btkvWeWPqEgWe+rMY9aSyf30imRbzyrZ5okVH6r4RkUSnJJY9fyKSZnvk+q7dC38s4pkch9bkXpy45ZpO/Pc4KxLBrhCgAABAgQIECBAgAABAgQIECBAgAABAgQIECCwvwRastL/7br9K/X6goqMJ2U8KDMNvbhiWjLRPGNel6o6nlaRJ4JkvOvEivdUPLIiyTyzyjLGvFobl6w3T6l4f0XGvTLm998Vb654YMWZK+Yt8yQrpa4rVDy54p0VmUXqBxWZdOATFfHOU1ZMClAICgECBAgQIECAAAECBAgQIECAAAECBAgQIECAAAECBAgQIECAAAECBAgQIECAAAECBAgQIECAAAECBAgQIECAAAECBAgQIECAAAECBAgQIECAAAECBAgQIECAAAECBAgQIECAAAECBAgQIECAAAECBAgQIECAAAECBAgQIECAAAECBAgQIECAAAECBAgQIECAAAECBAgQIECAAAECBAgQIECAAAECBAgQIECAAAECBAgQIECAAAECBAgQIECAAAECBAgQIECAAAECBAgQIECAAAECBAgQIECAAAECBAgQIECAAAECBAgQIECAAAECBAgQIECAAAECBAgQIECAAAECBAgQIECAAAECBAgQIECAAAECBAgQIECAAAECBAgQIECAAAECBAgQIECAAAECBAgQIECAAAECBAgQIECAAAECBAgQIECAAAECBAgQIECAAAECBAgQIECAAAECBAgQIECAAAECBAgQIECAAAECBAgQIECAAAECBAgQIECAAAECBAgQIECAAAECBAgQIECAAAECBAgQIECAAAECBAgQIECAAAECBAgQIECAAAECBAgQIECAAAECBAgQIECAAAECBAgQIECAAAECBAgQIECAAAECBAgQIECAAAECBAgQIECAAAECBAgQIECAAAECBAgQIECAAAECBAic5jQPK4SfVHwOBgECBAgQIECAAAECBAgQIECAAAECBAgQIEBgBQKbPBZxdB1vxkmevYLjVuV0gUd29sdO32wj1v6w6+tdN6I3OrGfBfbTdb9Rzv9jo3qjMwQILFvgeVVhbsiev+yK1UdghsAHumvvEfV6xopPdp/vMWM/qwkQIECAAAECBAgQIECAAAECBAgQIEBgfwkYi9hf52ubevsXdTAZB/vnbTqoPTiWc1ebP+gsr7EH7WuSwG4FbtNdtyfWa8YjlcUFXtiZPnfxqqbXIFlpuo+1BPazwO2r83er+EbF7+/nA+n1/bB6/0cVB2/J8WzrYVy2w4tvegAAHRFJREFUDuxyFfkfhBdUfLfiAd3BPq1eL7ytB+64CBAgQIAAAQIECBAgQIAAAQIECBAgcIAJGIs4wE74Bh3u6aovd+j644/2Fzsxd6zdD6r4VMXbF6vK3gTWKvAbXWsvr9eMR25r+d91YDda08E9uNr5ZsVvVtxuTW1qhgCBLRI4Ux3LZyuSLPJ7W3RcyeDMMZ11i45p2YeyCVOvPrY7T28dHNyru+UvXfZBq48AAQIECBAgQIAAAQIECBAgQIAAAQIE1i5gLGLt5BvT4CaMRfxaaWTM6DsVZ+vJeAzczi+Td3SWj9n5rqfYYz89Dstj4BY82Ruw+9mrDyd11+4N9rA/q77uL9od45PWeIxJWMrP189U5Hf9SoqZlVbCqlICey5w7+rBIRXJenzWnvdmOR04bVVz4+VUpZYVCuQ83bmrf/iXDH/eLc+UjJdZYR9UTYAAAQIECBAgQIAAAQIECBAgQIAAAQKrFzAWsXpjLYwL3KVblT+UzniYsjuBi9VuV+t2HY7r7K5GexFYj8Btq5k8+u2LFW9aT5N70spN96DVv6o2v1VxwYojV9W+ZKVVyaqXwN4K/E7XfB7B9e297crSWr9h1XSepdWmolUJXKsqzmPe8mzjvx80ckx9PrYiCU2/PVjnIwECBAgQIECAAAECBAgQIECAAAECBAjsLwFjEfvrfG1TbzPTx627A5Jgs9iZbUlf76tqPrxYVfYmsFaBdu2+qFr90VpbXl9jZ6imkpS17pJEpRd3jd5/VY1LVlqVrHoJ7J3AlarpS3bNP3tGN65Y6/+y4iMV+aHz1YoPVORxay2LelhFbv7+oSJZqt+r+FzFP1fkebZ5PvBYyXSKeVZofu6cpeJRFe+vSLtJqPrPiv9TkSn7+iWJL2nvn3oLkyGfqedaXOGUu/z005Ur/q7iExWZAjDT1L2s4rpZOVJ228dWXdpLn44eqb8tPq7bLtOk7rTE714VecTa1yti96GKeJ654vsVs0r8f7fiXRX/XXFiRc7FIyrOMWvnGevbjUGuiRMG28bmb7pleY6030EzMK0mQIAAAQIECBAgQIAAAQIECBAgQIDAhgoYizj5xBiLGL9AVzkWcctq9qwVX6vojx/1e5Pxkvzx9N0r/rXbNuNUn6z464pD+xuPvF/GmNjPV91PqPh4Rdo/vuI1FdfvtZk/1n9ixUcrMqaV8Z9jKmYlKeT4blXx+orPV+SReB+reEbFPMdXm53mN/KfKpkAYaz8eq3IGNunKnIMGSPMGNOTKzLzyrC0sapr14rsl2POsrxmzO96wx0Gny9Xnx9XkcfT5RznD+QznpXxt4xHjpWM8/XHyW5fn9PPuGSM6uZjO44sX/T7vcpzv1ujHGqum3tWvK0iY4QZq8044cMrMlPRz1XEK2PAw5JzkHXXqGjfrzfV+5yfjBvnGvl/K36pYlpZ9No9f1V+eNfApGv3vLXujyveU/HlilwXeU1ff68i+w9LkiDvVpHJGI6ryLWe72O+l0+rmLRPLZ5aFhk7vm/VHM8juhYeXK+xb/HKqS1PXrmT73LOY8ovV/zK5OosJUCAwCkFHlQf80Mqv7zzg36sPKJW5Jd2/4da//1vD3bMTeWrpmyfff+5Ir94J5XW1tVqZW7Ixtr9yKCOG9fnYyu+0NsnCUhZ1uLS9b5f8kvmx73th239yWD79nG3fWz7L/ILZ6RLp1icG4R/nHJcSfjKsed4J91ApLJDKrLd0KR9zrm5RDbcRTl97ZMEpdTVHgU3rOawbn228YttqOMzAQIECBAgQIAAAQIECBAgQIAAAQIE9oeAsYiT/z3eWMTk63WVYxFpsY1X5VFFw3J0LcgYRBKEkigzNh7yzVp3leHO3edljYkloePTI334US3/jYqMlSSJYqyfDxnpY2ZcedGU/ZKAksSEaSVJh2k3fbnAhA3jkMSNsb5leRIZWnlkt22SjKaN1eV78zu9/fpv86SVYXtJVuove/zIvm2cL2OV2WZYT39cqm1715G6pvU/9c4aa1zluV/E6KDq+8sn2DSrTGrR6p801ti+X/eu7V4xpZ5p369lXLvtd1ASiYbl8FqQ9ofnv//5qcOd6nOSt/rbJMGp//lL9fnCE/Zr1/2xE9YtMnb82qovdSZpKv3I2H8+t3jmhPbGFu30u5x6MunENyrS9gPGKracAAECfYGXdD80xjLJs+09um3yw+WYiltUHFqRDOH8Us4PznNV9Eu74ckNwZ9WJEEombUXr8iNUm56Ul+ytyeVH3brk8ySH6b5oXaxisykdPmK53TrU8eTK4Yl2c7tF0Ky5cdKZuxp2z2p3l+oIj9MD6nI57Yu2dTDsmgfF/mFM+zLpM/5xdn6/5f1Pufs4IocWzzzC6Nlh0+6gTio1v9HV0d+ed+kIglQuSm4UUV+uaX+ZE8n8WinJTe92T/XwplHdk4fMhtUtvutkW0sJkCAAAECBAgQIECAAAECBAgQIECAAIHNFjAWYSwi/86/F2MR56x2WxLBdSZ8TY6uZelbZnrJuE/GtC5ZkbGQzAL0wIo2lvLeej+pLHNM7LPVQP7AOzO9JDKOlaSH9DFjZvkD/SQrZaabJAz9QsVNKzIDVLZJosJwzK4W/fTJKVmfpIz7VCRBJ09AuVxFxuraeM1F6/1YyXhctnvjyAbP7dZnm2dXxDvjgtesSLJRZnDql0fWh2ybccAkQCVZ7KoVSZTIebtlRUveyow1564Ylpyn/6p4YsWvVmS8KuN8SYrK2GfqT90ZYxyWNs6Xc57t8sf7965IfzOGlZlzWmnb3rW3rL1d1ljjqs79IkZJsopN4jkVl6nIeG++Izl/ud5O7NZP+n6371eu3SSd5RpKEljGe3+p4qEVLblm7Pu1jGs3decY/rCiXzKRR/vuvKXeZxKNnPeMT+aayfWQyTdyvMOSBKh8F5JEmO9qytkqMq7exsGP6pb3X9p1f+yEdX9Xy9LPuE0rx3XbPWzCRu/p1mWce7dlp9/l1s6/dG2/cLcN248AgQNL4DPdD41Hjxx2kkhaFmSmmcyNy6ySm4/2iytTzk0qSXxp2+SH+LC0X/rZ5rrDld3nN3R15JfIsMyTrJTEmy92dQxvkFp9uTFKHyb9wli0j8v4hTM87vb5fPWm9e+okY1u3R1bjm/SDcT/6tYnWejCE+rIzURuLLL/XSesn7Wo3bz/7YwN39y1cdSM7awmQIAAAQIECBAgQIAAAQIECBAgQIAAgc0UMBZx8r+lG4s49fW56rGIjFNlHCPXYBIThiVJAW286uHDld3nLG/bDMdLljkmlqSajL0My2167WdcJgk9w5KZeVofkzzTL1eqD208Z9If52e87PPd/s8e7Ns+JgGobXOvCdtcq9s/fUgCyjzlkb19klg06fxcvbfN3eeptLdNJjNoM+ZMGq/sj/O9qrZNUs9YadsOx8OWNda4qnM/djxt+TSjJLQlSSznNGOak0qup3bdTRpr7H+/Hj2pglr2qF4dFxpss4xr91K9+g8d1H/+3rokYi2r/FFX7/ETKmzX/bET1i1j7HjRZKXdfJfbofxxd9zHTTg2iwgQIHAKgdxYtJuTsV/wd6xt2i+ZZLjOU47q9kl296Qbi1ZHSzZKRuqwtF/6bx2u6H2+d71vfRvO7DNPslKyorN/bgCSoT2pHNFr4wqDDRbt4zJ+4Uzqc5bdv9fvi45tVMvzGLcYTLqBaFnGT5myf0sk2ulzTnPz0/4S4cZT6s+q53Z9fNOM7awmQIAAAQIECBAgQIAAAQIECBAgQIAAgc0TMBZhLGKvxiLybchsKRkHedzIV6MlUyQpIzP6TCqZHaiNR91wsMFR3bpljIllVpJJJWNgGctKH/510gbdsq902wyTrjKbTfbNkzLGSksy+GptkO/ssFy/FqSOzIJzjuHK+vzMbv2n63WeiQ9SRUvaSL3Xm1BnW/TZru7MgLTT8s5u38dM2LGN8+WYx8YJ225t27sO6lnWWOOqzv2Ewz7VojGj/jjshU+11/+/4IP1Nudw0lhj//uVscFJ5dBu/9Qx/H4t49r9P139Oc5hySxR7bs9KZFvuP28nzP22eo9aLBTu+6PnVDZMsaOF01W2s13uR3KPbrjzs+rST9HJhzy/IuWXuH8TduSAIEVCCQjtiUT/fdI/Yd3y/MYsNxMzlMyPWJKm15xbJ9XdytyAzJMNmr7HDO2cy3PDU8rmVZvpyWPMkvJL9HciEwqH+otvMSkDWrZMSPLs3jRPk6peuqqTHWZkvP2qSlbJtloUsm0oclWThnbJuuaz5hNV8WpXvJXAJlGMTfOuVGZVtq1OWna0mn7WUeAAAECBAgQIECAAAECBAgQIECAAAECey9gLOLkc2As4tTX4qrHIjJLSxuzesGpmz/FkvwBd540Mal8prdwOB61zDGxt09qvJb9oCLjKSmTEi7abpn5KGXYxzYeNs94T76vOS/DcpduwWvr9evDlfX58G7Z6+o1iQo7Kdn+bVN2aP7D45qyy89Wfat7d8YpG7+01o2NE07Z7aerljXWuKpzP6v/WT9m1Gbw+nBt0x/vHNY57bpq2+b71doZ7j9tLHUZ1257ws+knwHfqM7kmk3Jk2D+rOI83edFXvrHOu3aW6SNVe17eFfxbr7LbUw3eUWTkhoX6vMw62uhyuxMgMCeC/SzhMd+Cf9i18uP7aC3F+y2nZXc1OpMhvV5KyZl3PZvAIddyM1ZK7tJpjyk2zlTaia7dVYZ++W0yj7O6tPY+kxbmDLrHIzdXFygV/HLxxrpLR+zGdu13Ri8uDZINvq00n6xzcpqn1aHdQQIECBAgAABAgQIECBAgAABAgQIECCwNwLGIk52NxZx6utvHWMRp61mkyj2gVM3f4olux3rWeaY2KRxstbJNpby5SnH0bYZjpm18bAH1L6JWSVjPv128ni0/BF6yvNHdt7NeGKrKm19b6TeLG7jgcPjarvkUXx3rTisIjMAJalpJ3kNs66N1s6k12WNNa7q3C9iNO+1fdwkmMGy3X6/Fr12r1b9uFhFEuIyJjmp/GYtzFjotSsyK9mDKl5W8ZcV05Lozl7r71mRWZQuXZFJF85csd/LIt/lNqYbg/zuH8s/2JXRTr7Uu2rATgQIrFWgPw3jWJZzm81mLNt12OHU2Z7petJw5eBzP0M9P7Am/SLOo8JWVdqx5QZonuPrJ0f1+7TKPu722Nsvw1nHNba+P4vR16oTeVzgtHLitJWDdbnJvUG3bOymtr9Luzb9DtoBsk0JECBAgAABAgQIECBAgAABAgQIECCwIQLGIk4+EcYiTn1BrnIsIq212YDmGYvYzVjPssfEZo2r5Zhm/QH4UDkJPm2Gk4wJTUsKGu7bPt+83iQxI2NB/zhho2EbEzaZumg39qkw40Z/U3G3rvYcXxLTTqhox3l4vZ/15I5JM0V1Vc58WdZY4yrOfTq/iFF7bNvYjGMNZ2yssY+3m3M8vK52c+22nwFHV2e+NHI2c70cXnGHit+vuHJFJl1IZMarB1bk0Wr9cs368MqKX+gWfqJek9gUi4ypZiw0yU/7rQzNd9r/fr7B0sd1l17hTo/O9gQILFUgSSitjP2ibkko82aC5odQfqnnxmfs2aOtzf50jd/s9WVdb9vNRx5Xd6t1NbqLdsaekTytqvZLf9bUggePVNK/MbtebfP+ke12s/hOtVNu4D9ZMW260lZ3+0Xfz8bdTbv2IUCAAAECBAgQIECAAAECBAgQIECAAIH1CxiLONncWMSpr71VjkVkJqvLVuTJGi88ddNLWbIfxsSSOJExuIzJPariKbs48pbwkdlmvjth/7SRJI2MC847njihmh0vekjtkUSlnOMkmTy94vuDWt5an5NYsqqy6WONixi1JKUzzcBbVQ7Jotdu+pUEpJRZCYtp60VdXKVef6ciyUrXqHhHxa9X5Gd4ShL3XlGR8ct/r8isXnlUXr/coD78y2DZMj/uZux4nvYX/S63Md20tfRx3WRSKQQIbI9Af+q1sWSllmV6iR0c9ue6bWftc8luu8xY9MUd1L+sTb/QVdT6sax6562nPXpu2i/x3NSNnZtp7RzfrbzotI1qXR6/N6k0m6xbts9O/pIh7bfjX+pUgZMO2jICBAgQIECAAAECBAgQIECAAAECBAgQWLqAsYiTSZf9b+3znqgDfSwiySqfnhdrF9vthzGxRcbDMjnBTTuXaQkfuxlP3AX3KXa5d/fpBfX65xXDRKWsXlVSR+vIIraLHv88+y9i1I7tYjMayixCqyqL+N6wOpW+ZdaqJBfNW95VG9694nIVSULKOO5Tezvfst6fu/ucCRqGiUpZtdvrbpU/r3uHMPXtIt/l/ph2P1F5aoPzrpSsNK+U7QjsD4EkCX2l62qe4TqpvL1bmGdtzvpl1PZ/fffmJvXan951WP8tugXvrtdJmdjD7XfyuT8N5sEjO2bKv5RLVSS7ft0lWeYpF5zS8HVrXZ6nvNOSTN6U/CKddpNw9ZGKk+z0oW7d7Ua22c3ii9dOyUhOyc3jPOVC3Uafn2dj2xAgQIAAAQIECBAgQIAAAQIECBAgQIDARgkYizj5dBiLOPVluaqxiIyr3Llrbt6xiFP3br4lmzAmNqunbTws43Knn7XxYH3GiM5QkaSRY6bs28YTMza4rpyCNraZccZJJTMCrTpJcK/HGicdd3/ZIkbNNWOoY5MfpK027jerL7tZv8i12yZPeFU13MZkd9KHj9TGv9ftcIl6bbOGXaRbllm1Pj5S4RVGls9avIyx4zZGPjY+PqsPi3yX25huEp76Y/Wz2pxr/bp+sMzVGRsRILAUgWSHpowlrbyy1rVM5CfX+3kSZ/62tss0cUnCyTR5k8rNauF1uhV/PWmDBZe1JKxUc5mRul5Ty9tfdDyz3uemZazMc9xj+44t/1i3IrMf5fmnw5JEr4cNF875+eW1Xc5Bfm7/wcg+16zlVx1Zl8XP69bdtl5bYtnY5vP6tBuDJFPll/ysEoN2k/Nvsza2ngABAgQIECBAgAABAgQIECBAgAABAgQ2UsBYxMmnxVjEqS/PVYxFXLuayRhVEuX+/tRNLnXJJoyJzTqg9DHl/BWPnbHxcLwnj8JKySOyMu40Vl7crbhIvT5wbKMlL8/j7VIOHan34bV82tjfyG47WrzXY42zOruIUR77l4STaWONl6/115/ViQXW7/baTWJRZkBKmTYjWI5teM33u5tHvqXE4Xvd+290r5l1rP/Ys27xaX6x3tyvfdjh6zLGjtsY+dj4eLqUBLQXVjy+YpjUtMh3OY/NSzGm20F4IUBgusAjanWmlMtzI8d+GD+k2ybbva7iBhXJjMxMSzeqeHrFb1b0yxPrQ7bPjeCfVvxSRW4Ist+DK5IZmvVvqUhCyrDkh37W33W4ovf58G6bbDf8ZZC2TuzWv6deL12RdnJzes6KVpKIk/0T/1Fxx4r0MdPUXbwiSTp/U/EvFcOyaB/jl+cZp+1PVeR5pzmO/OJLIleefZobv2a108SlZ9W+7dj+b73PzdoZKw6puG9FznmyfrNNm6a03v6s5JfTe7v1OY9PqkhSVaY2PF/FYRUPqsgvnCSfzVOSoJT2st885Urd9tlnWmLVPHXZhgABAgQIECBAgAABAgQIECBAgAABAgT2RsBYhLGIdY5F/FVd5mkvM6rMKkd32z57xoZtvOV2E7Zbx5hYxnHSh/81of22KONh2eZxE7bJWF47hkxUkASTJFXk6RxJarh7xasr/qyilQvUmzaOlfGaWeUfa4O0kX3+oiLjSBmTyqxid6hI4tgvV7TyyHqT7Y/tLZv09phuuxxDv+T8Zv/vViSpKmNgifQ1yVVZ19wyxjUs84zztX2mbbvqscZFzv2iRn/eOcYy7zOGmvHkjBXmmjm+oo1jThprXMb3azfXbmZWS58zFjptNrFcn/9V8dCKK1a0xJ2z1fvbVHyhIvX8Q0Ur/bHLjJtnPDkmGTu9V0WeFPPZiuyXOGtFv0y77pcxdpxJLFrb96/3Z+miP8vYP/e2OfKU3fvpp51+l7NPEr/auHM8FQIECMwUuFZt0X5gjd1o5IdLkl3adpNehzdHB9X2+QuBSdu2ZZlGbphk1Do87Zd+2+bwXv2T6un/MO734+atgu71t+o1NzLT+pobvGFZRh//cEa7SVB6RbfNTpOV8svnjVPqzzHFIsc96QaiFp8mN6JvnVJHMxuaZt9h+dWuntyknn+4cuRzS5RL5ve0m4mR3S0mQIAAAQIECBAgQIAAAQIECBAgQIAAgQ0QMBZxmtMYi1jPWESSDZKgkPGL/IH6rLKMZIp1jIktkrASgzzKrSVxTRsP6yf1/H7tk20/PAuxW5+JAN7Q7TPWRv/xWNOSNvpNHtPVOUxW+pVa/o1ee5kAoCVXpf2MEz6oW98/rlr00zLPON+8267y+73IuV/UKMlfmVxh7Hy2RJ+xscZlfL92c+2+putzxqqnlUMmHFtmUOof77H1OUla/XLUYJt2LWW/T3Tbt0k1zjrYd9Z1v+jYcRIQkzA1PGf9se6M0bf1vzvoXz7u9LucffKknFbn1SbUaREBAgROJZBMz890Pzyecaq1p1xw7fr4vIpPViS556SKj1Ykk/bCp9z0Z5+Smf3SiuMq8sP9KxWZpejIisx0NFbmuUE4vHZuP/QmJSvl2O5T8b6K71Qk4SWzJ2VKwmHJzE+Z6u4DFcn6zExCJ1Tkh/VjKvrZpvXxp2UZfUw9mb0pv+jTXtpNFvLLK47IyirJgM9x7jRZKfvG+H4V76zI8X+r4j+7uvLLPW6peyxZqVadJjfZyUhPFm2ule9XxDO/nDMV4J0qWqZxvR0tLeEtN6rzlo/UhunfUfPuYDsCBAgQIECAAAECBAgQIECAAAECBAgQ2DgBYxEnnxJjEeOX5rLGIm5ZTWRcIWMieQrHrLKMZIrWxirHxBZJWOkbXLc+PLfi4xUZ68nYXRIbXl/xwIokKbSS8bVYPqq3bNbbTICQMaXMOJN6M+6Vc/HuivyBev7QvpVZSRttu2PqTfoxTFbK+nyn/rYiY2tp60sVr634tayskrG27LvqZKW0tarv96LnfhGjHFfOaZKx3lGR5LBcNx+q+KOKnM8HVIyNNS7z+zXvtZtrOGOZ6VPGtqeVHNtNKnINZdwzx5bx369WvKXiwRX9a7Y+/rRkv/tW5Ak1GS/P+GvGNDOme/aKlDdXpA87TVbKvouOHV+k6nh+Rb4XsfhixVNTcVfuUK9fq3h/xXl7y/tvd/Jdzn4tGfJT9T6/8xUCBAjMJZAkmPywTJJOnuGpENgEgetUJ3JdJq6yCR3SBwIECBAgQIAAAQIECBAgQIAAAQIECBDYtYCxiF3T2ZEAAQIbK9Bmr/r0xvZQx1YtkISuNsvZ/151Y+onQGC7BPLczWQaJykk2a8KgU0QeEV3TWZGJ4UAAQIECBAgQIAAAQIECBAgQIAAAQIE9reAsYj9ff70ngABApME8uSajDHn6TXKgSmQWdlyDWQmp/yuVwgQILAjgbvV1vkhkinfzr2jPW1MYPkCN+qux0ydeOjyq1cjAQIECBAgQIAAAQIECBAgQIAAAQIECOyBgLGIPUDXJAECBFYokEf8ZYz5ZStsQ9WbK3Ce6lryC3IN3GVzu6lnBAhsukCeXZkfJM/Z9I7q31YLHFxH99HuWrz3Vh+pgyNAgAABAgQIECBAgAABAgQIECBAgMCBJ2As4sA7546YAIH9KXDIjG7fttZnbDnxWzO2tXo7BZJXkPP/d9t5eI6KAAECBAgQIECAAAECBAgQIECAAAECBAgQIECAAAECBAgQIEBgXQIvrIb+teJ+FVeoOHvFQRXnr/j9iu9WJFHlsxVnqVAIECBAgAABAgQIECBAgAABAgQIECBAgAABAgQIECBAgAABAgQIECCwK4EX1V5t5qSx1y/VNoftqnY7EdiBwP8H6brQSJLdTecAAAAASUVORK5CYII=;" vertex="1" parent="1">
          <mxGeometry x="-250" y="60" width="2347" height="927" as="geometry" />
        </mxCell>
        <mxCell id="HyvRcSLAMewFetW_w3H8-2" value="&lt;div&gt;&lt;font face=&quot;monospace&quot;&gt;d rwx r-x r-x&lt;/font&gt;&lt;/div&gt;&lt;div&gt;root&lt;/div&gt;&lt;div&gt;0&lt;/div&gt;&lt;div&gt;4 Kio&lt;/div&gt;&lt;div&gt;...&lt;br&gt;&lt;/div&gt;" style="text;html=1;align=center;verticalAlign=middle;whiteSpace=wrap;rounded=0;fontSize=20;" vertex="1" parent="1">
          <mxGeometry x="570" y="60" width="200" height="180" as="geometry" />
        </mxCell>
        <mxCell id="HyvRcSLAMewFetW_w3H8-3" value="0; 120; 1" style="text;html=1;align=center;verticalAlign=middle;whiteSpace=wrap;rounded=0;fontSize=20;" vertex="1" parent="1">
          <mxGeometry x="570" y="240" width="200" height="40" as="geometry" />
        </mxCell>
        <mxCell id="HyvRcSLAMewFetW_w3H8-4" value="&lt;div&gt;bloc 120&lt;br&gt;&lt;/div&gt;&lt;div&gt;(contenu de /home/)&lt;br&gt;&lt;/div&gt;" style="text;html=1;align=center;verticalAlign=middle;whiteSpace=wrap;rounded=0;fontSize=20;" vertex="1" parent="1">
          <mxGeometry x="490" y="920" width="340" height="80" as="geometry" />
        </mxCell>
        <mxCell id="HyvRcSLAMewFetW_w3H8-5" value="18" style="text;html=1;align=center;verticalAlign=middle;whiteSpace=wrap;rounded=0;fontSize=20;" vertex="1" parent="1">
          <mxGeometry x="490" y="540" width="80" height="40" as="geometry" />
        </mxCell>
        <mxCell id="HyvRcSLAMewFetW_w3H8-6" value="d" style="text;html=1;align=center;verticalAlign=middle;whiteSpace=wrap;rounded=0;fontSize=20;" vertex="1" parent="1">
          <mxGeometry x="570" y="540" width="40" height="40" as="geometry" />
        </mxCell>
        <mxCell id="HyvRcSLAMewFetW_w3H8-7" value="&lt;div&gt;inode 18&lt;/div&gt;&lt;div&gt;(pour /home/)&lt;br&gt;&lt;/div&gt;" style="text;html=1;align=center;verticalAlign=middle;whiteSpace=wrap;rounded=0;fontSize=20;" vertex="1" parent="1">
          <mxGeometry x="570" y="400" width="200" height="80" as="geometry" />
        </mxCell>
        <mxCell id="HyvRcSLAMewFetW_w3H8-8" value="&lt;div&gt;.&lt;/div&gt;" style="text;html=1;align=center;verticalAlign=middle;whiteSpace=wrap;rounded=0;fontSize=20;" vertex="1" parent="1">
          <mxGeometry x="610" y="540" width="220" height="40" as="geometry" />
        </mxCell>
        <mxCell id="HyvRcSLAMewFetW_w3H8-9" value="2" style="text;html=1;align=center;verticalAlign=middle;whiteSpace=wrap;rounded=0;fontSize=20;" vertex="1" parent="1">
          <mxGeometry x="490" y="580" width="80" height="40" as="geometry" />
        </mxCell>
        <mxCell id="HyvRcSLAMewFetW_w3H8-10" value="d" style="text;html=1;align=center;verticalAlign=middle;whiteSpace=wrap;rounded=0;fontSize=20;" vertex="1" parent="1">
          <mxGeometry x="570" y="580" width="40" height="40" as="geometry" />
        </mxCell>
        <mxCell id="HyvRcSLAMewFetW_w3H8-11" value=".." style="text;html=1;align=center;verticalAlign=middle;whiteSpace=wrap;rounded=0;fontSize=20;" vertex="1" parent="1">
          <mxGeometry x="610" y="580" width="220" height="40" as="geometry" />
        </mxCell>
        <mxCell id="HyvRcSLAMewFetW_w3H8-12" value="800" style="text;html=1;align=center;verticalAlign=middle;whiteSpace=wrap;rounded=0;fontSize=20;" vertex="1" parent="1">
          <mxGeometry x="490" y="620" width="80" height="40" as="geometry" />
        </mxCell>
        <mxCell id="HyvRcSLAMewFetW_w3H8-13" value="d" style="text;html=1;align=center;verticalAlign=middle;whiteSpace=wrap;rounded=0;fontSize=20;" vertex="1" parent="1">
          <mxGeometry x="570" y="620" width="40" height="40" as="geometry" />
        </mxCell>
        <mxCell id="HyvRcSLAMewFetW_w3H8-14" value="charlemagne" style="text;html=1;align=center;verticalAlign=middle;whiteSpace=wrap;rounded=0;fontSize=20;" vertex="1" parent="1">
          <mxGeometry x="610" y="620" width="220" height="40" as="geometry" />
        </mxCell>
        <mxCell id="HyvRcSLAMewFetW_w3H8-19" value="&lt;div&gt;&lt;font face=&quot;monospace&quot;&gt;d rwx --- ---&lt;br&gt;&lt;/font&gt;&lt;/div&gt;&lt;div&gt;charlemagne&lt;/div&gt;&lt;div&gt;0&lt;/div&gt;&lt;div&gt;4 Kio&lt;/div&gt;&lt;div&gt;...&lt;br&gt;&lt;/div&gt;" style="text;html=1;align=center;verticalAlign=middle;whiteSpace=wrap;rounded=0;fontSize=20;" vertex="1" parent="1">
          <mxGeometry x="1150" y="60" width="200" height="180" as="geometry" />
        </mxCell>
        <mxCell id="HyvRcSLAMewFetW_w3H8-20" value="0; 510; 1" style="text;html=1;align=center;verticalAlign=middle;whiteSpace=wrap;rounded=0;fontSize=20;" vertex="1" parent="1">
          <mxGeometry x="1150" y="240" width="200" height="40" as="geometry" />
        </mxCell>
        <mxCell id="HyvRcSLAMewFetW_w3H8-21" value="&lt;div&gt;inode 800&lt;br&gt;&lt;/div&gt;&lt;div&gt;(pour /home/)&lt;br&gt;&lt;/div&gt;" style="text;html=1;align=center;verticalAlign=middle;whiteSpace=wrap;rounded=0;fontSize=20;" vertex="1" parent="1">
          <mxGeometry x="1150" y="400" width="200" height="80" as="geometry" />
        </mxCell>
        <mxCell id="HyvRcSLAMewFetW_w3H8-22" value="&lt;div&gt;bloc 510&lt;br&gt;&lt;/div&gt;&lt;div&gt;(contenu de /home/)&lt;br&gt;&lt;/div&gt;" style="text;html=1;align=center;verticalAlign=middle;whiteSpace=wrap;rounded=0;fontSize=20;" vertex="1" parent="1">
          <mxGeometry x="1070" y="920" width="340" height="80" as="geometry" />
        </mxCell>
        <mxCell id="HyvRcSLAMewFetW_w3H8-23" value="800" style="text;html=1;align=center;verticalAlign=middle;whiteSpace=wrap;rounded=0;fontSize=20;" vertex="1" parent="1">
          <mxGeometry x="1070" y="540" width="80" height="40" as="geometry" />
        </mxCell>
        <mxCell id="HyvRcSLAMewFetW_w3H8-24" value="d" style="text;html=1;align=center;verticalAlign=middle;whiteSpace=wrap;rounded=0;fontSize=20;" vertex="1" parent="1">
          <mxGeometry x="1150" y="540" width="40" height="40" as="geometry" />
        </mxCell>
        <mxCell id="HyvRcSLAMewFetW_w3H8-25" value="&lt;div&gt;.&lt;/div&gt;" style="text;html=1;align=center;verticalAlign=middle;whiteSpace=wrap;rounded=0;fontSize=20;" vertex="1" parent="1">
          <mxGeometry x="1190" y="540" width="220" height="40" as="geometry" />
        </mxCell>
        <mxCell id="HyvRcSLAMewFetW_w3H8-26" value="18" style="text;html=1;align=center;verticalAlign=middle;whiteSpace=wrap;rounded=0;fontSize=20;" vertex="1" parent="1">
          <mxGeometry x="1070" y="580" width="80" height="40" as="geometry" />
        </mxCell>
        <mxCell id="HyvRcSLAMewFetW_w3H8-27" value="d" style="text;html=1;align=center;verticalAlign=middle;whiteSpace=wrap;rounded=0;fontSize=20;" vertex="1" parent="1">
          <mxGeometry x="1150" y="580" width="40" height="40" as="geometry" />
        </mxCell>
        <mxCell id="HyvRcSLAMewFetW_w3H8-28" value=".." style="text;html=1;align=center;verticalAlign=middle;whiteSpace=wrap;rounded=0;fontSize=20;" vertex="1" parent="1">
          <mxGeometry x="1190" y="580" width="220" height="40" as="geometry" />
        </mxCell>
        <mxCell id="HyvRcSLAMewFetW_w3H8-29" value="101" style="text;html=1;align=center;verticalAlign=middle;whiteSpace=wrap;rounded=0;fontSize=20;" vertex="1" parent="1">
          <mxGeometry x="1070" y="620" width="80" height="40" as="geometry" />
        </mxCell>
        <mxCell id="HyvRcSLAMewFetW_w3H8-30" value="f" style="text;html=1;align=center;verticalAlign=middle;whiteSpace=wrap;rounded=0;fontSize=20;" vertex="1" parent="1">
          <mxGeometry x="1150" y="620" width="40" height="40" as="geometry" />
        </mxCell>
        <mxCell id="HyvRcSLAMewFetW_w3H8-31" value="salut.c" style="text;html=1;align=center;verticalAlign=middle;whiteSpace=wrap;rounded=0;fontSize=20;" vertex="1" parent="1">
          <mxGeometry x="1190" y="620" width="220" height="40" as="geometry" />
        </mxCell>
      </root>
    </mxGraphModel>
  </diagram>
</mxfile>
